<?xml version="1.0" encoding="UTF-8"?>
<!DOCTYPE svg PUBLIC "-//W3C//DTD SVG 1.1//EN" "http://www.w3.org/Graphics/SVG/1.1/DTD/svg11.dtd">
<svg xmlns="http://www.w3.org/2000/svg" version="1.1" width="101px" height="81px" style="shape-rendering:geometricPrecision; text-rendering:geometricPrecision; image-rendering:optimizeQuality; fill-rule:evenodd; clip-rule:evenodd" xmlns:xlink="http://www.w3.org/1999/xlink">
<g><path style="opacity:0.424" fill="#d4926f" d="M 90.5,-0.5 C 91.5,-0.5 92.5,-0.5 93.5,-0.5C 93.2148,1.28801 93.5481,2.95467 94.5,4.5C 95.891,3.35536 97.2243,3.35536 98.5,4.5C 97.7174,6.28818 96.3841,7.28818 94.5,7.5C 95.6016,5.9081 94.935,5.07476 92.5,5C 91.8742,4.24956 91.3742,3.41623 91,2.5C 90.7216,3.4158 90.2216,4.08247 89.5,4.5C 89.6287,2.7839 89.962,1.11723 90.5,-0.5 Z"/></g>
<g><path style="opacity:0.471" fill="#e3916d" d="M 89.5,4.5 C 88.7703,6.04504 87.437,6.87838 85.5,7C 86.056,7.38258 86.3893,7.88258 86.5,8.5C 83.7252,8.16625 83.0585,6.83291 84.5,4.5C 86.0026,5.05216 87.6693,5.05216 89.5,4.5 Z"/></g>
<g><path style="opacity:1" fill="#e94640" d="M 94.5,7.5 C 94.2088,10.037 94.0422,12.7037 94,15.5C 93.2828,14.9558 92.7828,14.2891 92.5,13.5C 90.5434,10.9409 88.8767,11.2742 87.5,14.5C 86.8333,14.5 86.5,14.8333 86.5,15.5C 85.8333,15.5 85.5,15.8333 85.5,16.5C 84.0755,18.0311 83.4088,17.6977 83.5,15.5C 85.0072,13.7106 86.3405,11.7106 87.5,9.5C 87.3764,8.89333 87.0431,8.55999 86.5,8.5C 86.3893,7.88258 86.056,7.38258 85.5,7C 87.437,6.87838 88.7703,6.04504 89.5,4.5C 90.2216,4.08247 90.7216,3.4158 91,2.5C 91.3742,3.41623 91.8742,4.24956 92.5,5C 94.935,5.07476 95.6016,5.9081 94.5,7.5 Z"/></g>
<g><path style="opacity:0.463" fill="#cb8563" d="M 86.5,8.5 C 87.0431,8.55999 87.3764,8.89333 87.5,9.5C 86.3405,11.7106 85.0072,13.7106 83.5,15.5C 83.9255,12.8808 84.9255,10.5475 86.5,8.5 Z"/></g>
<g><path style="opacity:1" fill="#f6a832" d="M 34.5,22.5 C 33.0351,23.4057 32.0351,24.739 31.5,26.5C 35.8469,27.3917 39.8469,29.0584 43.5,31.5C 41.9137,33.1727 41.2471,35.1727 41.5,37.5C 41.5,37.8333 41.5,38.1667 41.5,38.5C 40.8826,38.6107 40.3826,38.944 40,39.5C 39.1901,43.3575 39.3567,47.0242 40.5,50.5C 41.3711,57.3953 44.7044,62.8953 50.5,67C 48.3048,70.3594 45.6381,73.1928 42.5,75.5C 42.1667,75.5 41.8333,75.5 41.5,75.5C 41.7031,73.9557 42.3698,72.6223 43.5,71.5C 43.0431,70.7025 42.3764,70.3691 41.5,70.5C 45.5979,67.6793 44.9313,66.0126 39.5,65.5C 35.6877,64.6762 31.6877,64.1762 27.5,64C 29.0664,63.3918 30.3998,62.5585 31.5,61.5C 34.8499,61.665 38.1832,61.4983 41.5,61C 37.6523,55.1205 35.6523,48.6205 35.5,41.5C 31.0322,43.4504 26.3655,44.4504 21.5,44.5C 17.1667,43.1667 12.8333,43.1667 8.5,44.5C 7.00828,50.9319 7.34162,57.2652 9.5,63.5C 10.7814,71.2743 15.448,75.441 23.5,76C 22.2625,76.2321 21.2625,76.7321 20.5,77.5C 18.5,76.8333 16.5,76.1667 14.5,75.5C 11.8712,72.3694 9.03787,69.3694 6,66.5C 4.87803,64.5932 4.04469,62.5932 3.5,60.5C 1.4804,52.0738 2.4804,44.0738 6.5,36.5C 10.4697,31.5244 14.4697,26.5244 18.5,21.5C 21.2854,17.5421 24.2854,13.7088 27.5,10C 32.8333,9.33333 38.1667,9.33333 43.5,10C 40.1229,13.9312 37.1229,18.0979 34.5,22.5 Z"/></g>
<g><path style="opacity:0.29" fill="#aa8759" d="M 92.5,13.5 C 91.478,14.8917 91.8113,16.225 93.5,17.5C 95.7294,18.5771 98.0628,19.2437 100.5,19.5C 100.5,20.1667 100.5,20.8333 100.5,21.5C 98.4496,21.0388 96.4496,20.3721 94.5,19.5C 94.1667,19.8333 93.8333,20.1667 93.5,20.5C 95.1852,24.6607 95.8518,28.994 95.5,33.5C 94.0701,27.9145 92.4034,22.2478 90.5,16.5C 90.1667,16.1667 89.8333,15.8333 89.5,15.5C 86.4665,16.482 84.7998,18.482 84.5,21.5C 81.1445,19.8147 80.8112,17.8147 83.5,15.5C 83.4088,17.6977 84.0755,18.0311 85.5,16.5C 86.1667,16.5 86.5,16.1667 86.5,15.5C 87.1667,15.5 87.5,15.1667 87.5,14.5C 88.8767,11.2742 90.5434,10.9409 92.5,13.5 Z"/></g>
<g><path style="opacity:0.824" fill="#9b794d" d="M 37.5,21.5 C 36.5416,21.9528 35.7083,22.6195 35,23.5C 34.6012,23.2716 34.4346,22.9382 34.5,22.5C 37.1229,18.0979 40.1229,13.9312 43.5,10C 38.1667,9.33333 32.8333,9.33333 27.5,10C 24.2854,13.7088 21.2854,17.5421 18.5,21.5C 17.8333,21.1667 17.1667,20.8333 16.5,20.5C 19.1135,16.1272 22.1135,11.9606 25.5,8C 32.5496,7.79812 39.5496,7.29812 46.5,6.5C 47.4077,7.79001 47.241,9.12334 46,10.5C 43.1608,14.1867 40.3275,17.8533 37.5,21.5 Z"/></g>
<g><path style="opacity:1" fill="#f4a633" d="M 100.5,21.5 C 100.5,27.1667 100.5,32.8333 100.5,38.5C 99.3882,40.5994 98.7215,42.9327 98.5,45.5C 97.0787,48.0094 95.4121,50.3428 93.5,52.5C 95.0061,46.2689 95.6727,39.9355 95.5,33.5C 95.8518,28.994 95.1852,24.6607 93.5,20.5C 93.8333,20.1667 94.1667,19.8333 94.5,19.5C 96.4496,20.3721 98.4496,21.0388 100.5,21.5 Z"/></g>
<g><path style="opacity:0.851" fill="#9d7949" d="M 85.5,29.5 C 85.5,30.1667 85.5,30.8333 85.5,31.5C 84.8333,31.1667 84.1667,30.8333 83.5,30.5C 78.8139,24.2598 72.4805,21.2598 64.5,21.5C 61.0974,21.5611 57.7641,22.0611 54.5,23C 51.3347,25.3347 48.3347,27.8347 45.5,30.5C 45.5,29.5 45.5,28.5 45.5,27.5C 55.5758,17.5077 66.9092,16.0077 79.5,23C 82.2588,24.5288 84.2588,26.6955 85.5,29.5 Z"/></g>
<g><path style="opacity:1" fill="#367983" d="M 95.5,33.5 C 95.6727,39.9355 95.0061,46.2689 93.5,52.5C 91.412,54.3356 90.0787,56.6689 89.5,59.5C 88.0937,59.9731 87.427,60.9731 87.5,62.5C 85.0515,65.5558 82.0515,67.8892 78.5,69.5C 78.5,69.1667 78.5,68.8333 78.5,68.5C 82.1373,65.694 85.3039,62.3607 88,58.5C 89.4114,56.3496 90.2447,54.0163 90.5,51.5C 91.1222,48.5847 91.4556,45.5847 91.5,42.5C 91.7058,38.5313 91.0392,34.8646 89.5,31.5C 88.8734,27.5799 87.2067,24.2466 84.5,21.5C 84.7998,18.482 86.4665,16.482 89.5,15.5C 89.8333,15.8333 90.1667,16.1667 90.5,16.5C 92.4034,22.2478 94.0701,27.9145 95.5,33.5 Z"/></g>
<g><path style="opacity:1" fill="#cab075" d="M 16.5,20.5 C 17.1667,20.8333 17.8333,21.1667 18.5,21.5C 14.4697,26.5244 10.4697,31.5244 6.5,36.5C 6.06233,35.4937 5.39567,35.4937 4.5,36.5C 7.7376,30.5956 11.7376,25.2623 16.5,20.5 Z"/></g>
<g><path style="opacity:1" fill="#f9e9a7" d="M 81.5,51.5 C 81.5,52.1667 81.1667,52.5 80.5,52.5C 75.4693,51.4091 70.4693,51.4091 65.5,52.5C 64.8333,52.5 64.1667,52.5 63.5,52.5C 58.6034,51.0336 53.9367,51.3669 49.5,53.5C 45.097,43.5521 47.4303,35.5521 56.5,29.5C 67.8362,25.413 76.3362,28.7463 82,39.5C 82.6936,43.554 82.5269,47.554 81.5,51.5 Z"/></g>
<g><path style="opacity:0.02" fill="#d1b780" d="M 84.5,21.5 C 87.2067,24.2466 88.8734,27.5799 89.5,31.5C 89.8016,34.0593 89.4682,36.3926 88.5,38.5C 88.0679,37.2905 87.4013,36.2905 86.5,35.5C 85.7659,34.2921 85.4326,32.9587 85.5,31.5C 85.5,30.8333 85.5,30.1667 85.5,29.5C 86.3635,30.463 87.0302,30.463 87.5,29.5C 86.4215,26.7931 85.4215,24.1264 84.5,21.5 Z"/></g>
<g><path style="opacity:1" fill="#2d7682" d="M 21.5,31.5 C 25.8461,31.3343 30.1794,31.501 34.5,32C 38.1271,33.2211 38.1271,34.8878 34.5,37C 28.8859,40.2086 22.8859,41.2086 16.5,40C 15.3279,39.5814 14.3279,38.9147 13.5,38C 16.0534,35.5748 18.7201,33.4081 21.5,31.5 Z"/></g>
<g><path style="opacity:1" fill="#e3af51" d="M 72.5,41.5 C 72.6085,43.5138 71.9418,45.1805 70.5,46.5C 66.5734,47.185 62.5734,47.5183 58.5,47.5C 58.6107,46.8826 58.944,46.3826 59.5,46C 57.8753,43.9052 56.5419,41.7385 55.5,39.5C 58.1161,36.6014 59.9495,33.2681 61,29.5C 64.346,28.2752 67.346,28.9419 70,31.5C 71.7275,34.6179 72.5608,37.9513 72.5,41.5 Z"/></g>
<g><path style="opacity:1" fill="#61948c" d="M 83.5,30.5 C 84.1667,30.8333 84.8333,31.1667 85.5,31.5C 85.4326,32.9587 85.7659,34.2921 86.5,35.5C 85.2089,36.5417 85.2089,37.7083 86.5,39C 82.2045,43.2812 82.5378,47.1145 87.5,50.5C 87.1131,51.7199 86.2798,52.3865 85,52.5C 83.8615,52.0109 82.6948,51.6775 81.5,51.5C 82.5269,47.554 82.6936,43.554 82,39.5C 76.3362,28.7463 67.8362,25.413 56.5,29.5C 54.4582,26.6345 53.2915,26.9679 53,30.5C 52.1667,29.6667 51.3333,28.8333 50.5,28C 53.9815,25.0143 57.9815,23.181 62.5,22.5C 63.1667,23.8333 63.8333,25.1667 64.5,26.5C 65.5896,25.6086 65.5896,24.6086 64.5,23.5C 65.5,22.1667 66.5,22.1667 67.5,23.5C 66.6744,24.451 66.5078,25.451 67,26.5C 67.8333,25.5 68.6667,24.5 69.5,23.5C 70.1924,24.0253 70.6924,24.6919 71,25.5C 72.6667,25.5 74.3333,25.5 76,25.5C 78.1216,27.7564 80.6216,29.423 83.5,30.5 Z"/></g>
<g><path style="opacity:1" fill="#cdb476" d="M 37.5,21.5 C 37.4894,23.0174 36.8228,24.1841 35.5,25C 38.4055,26.0375 41.2388,27.2042 44,28.5C 44.3826,27.944 44.8826,27.6107 45.5,27.5C 45.5,28.5 45.5,29.5 45.5,30.5C 44.4043,33.0316 43.0709,35.3649 41.5,37.5C 41.2471,35.1727 41.9137,33.1727 43.5,31.5C 39.8469,29.0584 35.8469,27.3917 31.5,26.5C 32.0351,24.739 33.0351,23.4057 34.5,22.5C 34.4346,22.9382 34.6012,23.2716 35,23.5C 35.7083,22.6195 36.5416,21.9528 37.5,21.5 Z"/></g>
<g><path style="opacity:1" fill="#3b7484" d="M 63.5,37.5 C 58.472,37.9726 58.472,36.6393 63.5,33.5C 64.2916,34.6998 64.2916,36.0331 63.5,37.5 Z"/></g>
<g><path style="opacity:1" fill="#2f7283" d="M 65.5,34.5 C 68.7673,34.4239 70.1007,35.7573 69.5,38.5C 67.1917,38.0345 65.8584,36.7012 65.5,34.5 Z"/></g>
<g><path style="opacity:1" fill="#3c7683" d="M 63.5,37.5 C 66.5688,37.963 67.0688,39.2963 65,41.5C 62.6275,40.6828 62.1275,39.3495 63.5,37.5 Z"/></g>
<g><path style="opacity:1" fill="#3e757f" d="M 67.5,40.5 C 71.2076,41.5509 71.0409,42.8842 67,44.5C 66.5,44.1667 66,43.8333 65.5,43.5C 66.1925,42.4822 66.8592,41.4822 67.5,40.5 Z"/></g>
<g><path style="opacity:1" fill="#cd7e38" d="M 70.5,46.5 C 71.9418,45.1805 72.6085,43.5138 72.5,41.5C 74.7605,40.1144 75.5938,40.7811 75,43.5C 73.871,45.1412 72.371,46.1412 70.5,46.5 Z"/></g>
<g><path style="opacity:0.188" fill="#ab8e69" d="M 100.5,38.5 C 100.5,40.5 100.5,42.5 100.5,44.5C 99.8333,44.8333 99.1667,45.1667 98.5,45.5C 98.7215,42.9327 99.3882,40.5994 100.5,38.5 Z"/></g>
<g><path style="opacity:1" fill="#317086" d="M 59.5,41.5 C 61.1117,40.445 62.445,40.945 63.5,43C 63.1667,43.5 62.8333,44 62.5,44.5C 61.265,43.6602 60.265,42.6602 59.5,41.5 Z"/></g>
<g><path style="opacity:0.725" fill="#9f7c4e" d="M 89.5,31.5 C 91.0392,34.8646 91.7058,38.5313 91.5,42.5C 91.4556,45.5847 91.1222,48.5847 90.5,51.5C 89.5,52.8333 88.5,54.1667 87.5,55.5C 88.3537,49.8791 88.687,44.2124 88.5,38.5C 89.4682,36.3926 89.8016,34.0593 89.5,31.5 Z"/></g>
<g><path style="opacity:1" fill="#2f7682" d="M 31.5,61.5 C 27.4949,61.5565 23.9949,62.8899 21,65.5C 20.6667,61.1667 20.3333,56.8333 20,52.5C 19.3605,49.8877 18.1938,47.5543 16.5,45.5C 18.0453,44.5481 19.712,44.2148 21.5,44.5C 26.3655,44.4504 31.0322,43.4504 35.5,41.5C 35.6523,48.6205 37.6523,55.1205 41.5,61C 38.1832,61.4983 34.8499,61.665 31.5,61.5 Z"/></g>
<g><path style="opacity:1" fill="#927042" d="M 41.5,38.5 C 40.6403,42.4338 40.307,46.4338 40.5,50.5C 39.3567,47.0242 39.1901,43.3575 40,39.5C 40.3826,38.944 40.8826,38.6107 41.5,38.5 Z"/></g>
<g><path style="opacity:1" fill="#ca7934" d="M 55.5,39.5 C 56.5419,41.7385 57.8753,43.9052 59.5,46C 58.944,46.3826 58.6107,46.8826 58.5,47.5C 56.023,45.5841 55.023,42.9175 55.5,39.5 Z"/></g>
<g><path style="opacity:1" fill="#2c7682" d="M 8.5,44.5 C 10.7157,45.2026 12.549,46.5359 14,48.5C 17.2367,55.2574 17.2367,61.9241 14,68.5C 12.264,66.9368 10.764,65.2701 9.5,63.5C 7.34162,57.2652 7.00828,50.9319 8.5,44.5 Z"/></g>
<g><path style="opacity:0.557" fill="#a3804e" d="M 6.5,36.5 C 2.4804,44.0738 1.4804,52.0738 3.5,60.5C 2.07546,58.9689 1.40879,59.3023 1.5,61.5C 0.833333,60.8333 0.166667,60.1667 -0.5,59.5C -0.5,54.5 -0.5,49.5 -0.5,44.5C 0.798717,41.6047 2.46538,38.938 4.5,36.5C 5.39567,35.4937 6.06233,35.4937 6.5,36.5 Z"/></g>
<g><path style="opacity:1" fill="#fdfdfb" d="M 63.5,52.5 C 63.5,53.1667 63.5,53.8333 63.5,54.5C 58.8771,53.5966 54.2104,53.5966 49.5,54.5C 49.5,54.1667 49.5,53.8333 49.5,53.5C 53.9367,51.3669 58.6034,51.0336 63.5,52.5 Z"/></g>
<g><path style="opacity:1" fill="#fcfbf7" d="M 80.5,52.5 C 79.8478,53.7251 78.6811,54.3917 77,54.5C 72.9402,52.8413 69.1069,53.1746 65.5,55.5C 65.5,54.5 65.5,53.5 65.5,52.5C 70.4693,51.4091 75.4693,51.4091 80.5,52.5 Z"/></g>
<g><path style="opacity:0.835" fill="#d8ad5f" d="M 98.5,45.5 C 98.6567,46.8734 98.49,48.2068 98,49.5C 95.4222,53.207 92.5889,56.5403 89.5,59.5C 90.0787,56.6689 91.412,54.3356 93.5,52.5C 95.4121,50.3428 97.0787,48.0094 98.5,45.5 Z"/></g>
<g><path style="opacity:1" fill="#7daba6" d="M 63.5,54.5 C 63.5,55.1667 63.5,55.8333 63.5,56.5C 59.2424,54.9383 55.2424,55.2716 51.5,57.5C 50.5987,56.7095 49.9321,55.7095 49.5,54.5C 54.2104,53.5966 58.8771,53.5966 63.5,54.5 Z"/></g>
<g><path style="opacity:1" fill="#f5eaa7" d="M 75.5,60.5 C 72.8427,60.9348 70.5093,61.9348 68.5,63.5C 67.5,63.5 66.5,63.5 65.5,63.5C 65.5,61.1667 65.5,58.8333 65.5,56.5C 69.8918,55.0078 74.2252,55.1745 78.5,57C 77.2899,58.0391 76.2899,59.2058 75.5,60.5 Z"/></g>
<g><path style="opacity:1" fill="#e5dca6" d="M 90.5,51.5 C 90.2447,54.0163 89.4114,56.3496 88,58.5C 85.3039,62.3607 82.1373,65.694 78.5,68.5C 78.1667,68.5 77.8333,68.5 77.5,68.5C 76.5084,68.6716 75.8417,68.3382 75.5,67.5C 80.2478,65.087 83.5811,61.4204 85.5,56.5C 86.1667,56.1667 86.8333,55.8333 87.5,55.5C 88.5,54.1667 89.5,52.8333 90.5,51.5 Z"/></g>
<g><path style="opacity:1" fill="#f2eba8" d="M 63.5,56.5 C 63.298,58.9496 63.6314,61.283 64.5,63.5C 59.4658,63.043 55.1325,61.043 51.5,57.5C 55.2424,55.2716 59.2424,54.9383 63.5,56.5 Z"/></g>
<g><path style="opacity:1" fill="#46848b" d="M 86.5,35.5 C 87.4013,36.2905 88.0679,37.2905 88.5,38.5C 88.687,44.2124 88.3537,49.8791 87.5,55.5C 86.8333,55.8333 86.1667,56.1667 85.5,56.5C 85.1575,54.7748 84.1575,54.2748 82.5,55C 81.018,56.9829 79.3513,58.8163 77.5,60.5C 76.5712,61.5498 75.9046,61.5498 75.5,60.5C 76.2899,59.2058 77.2899,58.0391 78.5,57C 74.2252,55.1745 69.8918,55.0078 65.5,56.5C 65.5,56.1667 65.5,55.8333 65.5,55.5C 69.1069,53.1746 72.9402,52.8413 77,54.5C 78.6811,54.3917 79.8478,53.7251 80.5,52.5C 81.1667,52.5 81.5,52.1667 81.5,51.5C 82.6948,51.6775 83.8615,52.0109 85,52.5C 86.2798,52.3865 87.1131,51.7199 87.5,50.5C 82.5378,47.1145 82.2045,43.2812 86.5,39C 85.2089,37.7083 85.2089,36.5417 86.5,35.5 Z"/></g>
<g><path style="opacity:1" fill="#d89e5d" d="M 63.5,52.5 C 64.1667,52.5 64.8333,52.5 65.5,52.5C 65.5,53.5 65.5,54.5 65.5,55.5C 65.5,55.8333 65.5,56.1667 65.5,56.5C 65.5,58.8333 65.5,61.1667 65.5,63.5C 65.1667,63.5 64.8333,63.5 64.5,63.5C 63.6314,61.283 63.298,58.9496 63.5,56.5C 63.5,55.8333 63.5,55.1667 63.5,54.5C 63.5,53.8333 63.5,53.1667 63.5,52.5 Z"/></g>
<g><path style="opacity:0.012" fill="#c3b778" d="M 89.5,59.5 C 89.573,61.0269 88.9063,62.0269 87.5,62.5C 87.427,60.9731 88.0937,59.9731 89.5,59.5 Z"/></g>
<g><path style="opacity:1" fill="#6c9a8f" d="M 85.5,56.5 C 83.2468,59.581 80.4134,62.2477 77,64.5C 75.984,63.3659 75.3173,63.6992 75,65.5C 74.6667,65.1667 74.3333,64.8333 74,64.5C 73.5814,65.6721 72.9147,66.6721 72,67.5C 71.5017,65.4556 70.335,64.1223 68.5,63.5C 70.5093,61.9348 72.8427,60.9348 75.5,60.5C 75.9046,61.5498 76.5712,61.5498 77.5,60.5C 79.3513,58.8163 81.018,56.9829 82.5,55C 84.1575,54.2748 85.1575,54.7748 85.5,56.5 Z"/></g>
<g><path style="opacity:1" fill="#367a83" d="M 83.5,30.5 C 80.6216,29.423 78.1216,27.7564 76,25.5C 74.3333,25.5 72.6667,25.5 71,25.5C 70.6924,24.6919 70.1924,24.0253 69.5,23.5C 68.6667,24.5 67.8333,25.5 67,26.5C 66.5078,25.451 66.6744,24.451 67.5,23.5C 66.5,22.1667 65.5,22.1667 64.5,23.5C 65.5896,24.6086 65.5896,25.6086 64.5,26.5C 63.8333,25.1667 63.1667,23.8333 62.5,22.5C 57.9815,23.181 53.9815,25.0143 50.5,28C 51.3333,28.8333 52.1667,29.6667 53,30.5C 53.2915,26.9679 54.4582,26.6345 56.5,29.5C 47.4303,35.5521 45.097,43.5521 49.5,53.5C 49.5,53.8333 49.5,54.1667 49.5,54.5C 49.9321,55.7095 50.5987,56.7095 51.5,57.5C 55.1325,61.043 59.4658,63.043 64.5,63.5C 64.8333,63.5 65.1667,63.5 65.5,63.5C 66.5,63.5 67.5,63.5 68.5,63.5C 70.335,64.1223 71.5017,65.4556 72,67.5C 72.9147,66.6721 73.5814,65.6721 74,64.5C 74.3333,64.8333 74.6667,65.1667 75,65.5C 75.3173,63.6992 75.984,63.3659 77,64.5C 80.4134,62.2477 83.2468,59.581 85.5,56.5C 83.5811,61.4204 80.2478,65.087 75.5,67.5C 68.4682,70.1162 61.4682,70.1162 54.5,67.5C 47.5988,63.6055 42.9321,57.9388 40.5,50.5C 40.307,46.4338 40.6403,42.4338 41.5,38.5C 41.5,38.1667 41.5,37.8333 41.5,37.5C 43.0709,35.3649 44.4043,33.0316 45.5,30.5C 48.3347,27.8347 51.3347,25.3347 54.5,23C 57.7641,22.0611 61.0974,21.5611 64.5,21.5C 72.4805,21.2598 78.8139,24.2598 83.5,30.5 Z"/></g>
<g><path style="opacity:1" fill="#86ab93" d="M 45.5,56.5 C 46.8734,56.3433 48.2068,56.51 49.5,57C 48.1373,59.1293 48.4706,59.6293 50.5,58.5C 51.5,59.5 52.5,60.5 53.5,61.5C 52.3595,62.4255 52.3595,63.2588 53.5,64C 49.7981,62.8044 47.1314,60.3044 45.5,56.5 Z"/></g>
<g><path style="opacity:1" fill="#8daf94" d="M 44.5,50.5 C 46.3786,50.3932 46.7119,50.8932 45.5,52C 46.5,53 47.5,54 48.5,55C 47.175,54.8516 46.0084,55.0183 45,55.5C 43.4807,53.8608 43.314,52.1942 44.5,50.5 Z"/></g>
<g><path style="opacity:1" fill="#85aa93" d="M 47.5,31.5 C 48.4778,31.811 49.1445,32.4777 49.5,33.5C 48.5,35.5 47.5,37.5 46.5,39.5C 45.675,40.3857 44.675,40.719 43.5,40.5C 43.2267,38.549 43.8934,37.049 45.5,36C 45.1667,35.6667 44.8333,35.3333 44.5,35C 46.0629,34.2411 47.0629,33.0744 47.5,31.5 Z"/></g>
<g><path style="opacity:1" fill="#94b497" d="M 54.5,62.5 C 56.8123,63.3195 59.1457,64.1529 61.5,65C 60.4158,67.8249 59.2492,67.9915 58,65.5C 55.3422,66.694 54.1756,65.694 54.5,62.5 Z"/></g>
<g><path style="opacity:0.927" fill="#f6e4a1" d="M 3.5,60.5 C 4.04469,62.5932 4.87803,64.5932 6,66.5C 9.03787,69.3694 11.8712,72.3694 14.5,75.5C 14.5,76.1667 14.5,76.8333 14.5,77.5C 7.87992,73.8937 3.54659,68.5604 1.5,61.5C 1.40879,59.3023 2.07546,58.9689 3.5,60.5 Z"/></g>
<g><path style="opacity:0.004" fill="#bed0d8" d="M 77.5,69.5 C 77.8333,69.5 78.1667,69.5 78.5,69.5C 78.3147,70.1701 77.9813,70.1701 77.5,69.5 Z"/></g>
<g><path style="opacity:0.722" fill="#eddc9a" d="M 40.5,50.5 C 42.9321,57.9388 47.5988,63.6055 54.5,67.5C 54.5,68.1667 54.1667,68.5 53.5,68.5C 51.7935,69.8726 50.4602,71.5393 49.5,73.5C 48.8333,73.5 48.5,73.8333 48.5,74.5C 46.5887,75.075 44.922,76.075 43.5,77.5C 43.1667,76.8333 42.8333,76.1667 42.5,75.5C 45.6381,73.1928 48.3048,70.3594 50.5,67C 44.7044,62.8953 41.3711,57.3953 40.5,50.5 Z"/></g>
<g><path style="opacity:0.373" fill="#ac8a58" d="M 54.5,67.5 C 61.4682,70.1162 68.4682,70.1162 75.5,67.5C 75.8417,68.3382 76.5084,68.6716 77.5,68.5C 77.5,68.8333 77.5,69.1667 77.5,69.5C 69.8695,72.8312 62.2028,72.9978 54.5,70C 53.944,69.6174 53.6107,69.1174 53.5,68.5C 54.1667,68.5 54.5,68.1667 54.5,67.5 Z"/></g>
<g><path style="opacity:1" fill="#2d7682" d="M 39.5,65.5 C 44.9313,66.0126 45.5979,67.6793 41.5,70.5C 35.7396,74.2391 29.4063,75.4057 22.5,74C 21.6433,73.3109 20.9767,72.4776 20.5,71.5C 25.7184,66.3175 32.0517,64.3175 39.5,65.5 Z"/></g>
<g><path style="opacity:1" fill="#f3a833" d="M 8.5,44.5 C 12.8333,43.1667 17.1667,43.1667 21.5,44.5C 19.712,44.2148 18.0453,44.5481 16.5,45.5C 18.1938,47.5543 19.3605,49.8877 20,52.5C 20.3333,56.8333 20.6667,61.1667 21,65.5C 23.9949,62.8899 27.4949,61.5565 31.5,61.5C 30.3998,62.5585 29.0664,63.3918 27.5,64C 31.6877,64.1762 35.6877,64.6762 39.5,65.5C 32.0517,64.3175 25.7184,66.3175 20.5,71.5C 20.9767,72.4776 21.6433,73.3109 22.5,74C 29.4063,75.4057 35.7396,74.2391 41.5,70.5C 42.3764,70.3691 43.0431,70.7025 43.5,71.5C 42.3698,72.6223 41.7031,73.9557 41.5,75.5C 34.6708,78.6125 27.6708,79.2791 20.5,77.5C 21.2625,76.7321 22.2625,76.2321 23.5,76C 15.448,75.441 10.7814,71.2743 9.5,63.5C 10.764,65.2701 12.264,66.9368 14,68.5C 17.2367,61.9241 17.2367,55.2574 14,48.5C 12.549,46.5359 10.7157,45.2026 8.5,44.5 Z"/></g>
<g><path style="opacity:0.718" fill="#5c857d" d="M 49.5,73.5 C 53.7804,73.9424 58.4471,74.1091 63.5,74C 64,74.5 64.5,75 65,75.5C 66.3129,74.4272 67.8129,73.7605 69.5,73.5C 73.8333,74.8333 78.1667,74.8333 82.5,73.5C 85.5175,74.3802 86.1842,76.2136 84.5,79C 81.6667,79.1667 78.8333,79.3333 76,79.5C 72.724,79.4423 69.724,78.7757 67,77.5C 64.7057,78.8522 62.2057,79.5189 59.5,79.5C 55.9716,78.8985 52.3049,78.8985 48.5,79.5C 48.5,77.8333 48.5,76.1667 48.5,74.5C 48.5,73.8333 48.8333,73.5 49.5,73.5 Z"/></g>
<g><path style="opacity:0.027" fill="#bb9b65" d="M 14.5,75.5 C 16.5,76.1667 18.5,76.8333 20.5,77.5C 27.6708,79.2791 34.6708,78.6125 41.5,75.5C 41.8333,75.5 42.1667,75.5 42.5,75.5C 42.8333,76.1667 43.1667,76.8333 43.5,77.5C 41.2504,78.1302 39.2504,79.1302 37.5,80.5C 31.5,80.5 25.5,80.5 19.5,80.5C 17.7392,79.6873 16.0725,78.6873 14.5,77.5C 14.5,76.8333 14.5,76.1667 14.5,75.5 Z"/></g>
</svg>
