<?xml version="1.0" encoding="UTF-8"?>
<!DOCTYPE svg PUBLIC "-//W3C//DTD SVG 1.1//EN" "http://www.w3.org/Graphics/SVG/1.1/DTD/svg11.dtd">
<svg xmlns="http://www.w3.org/2000/svg" version="1.1" width="80px" height="81px" style="shape-rendering:geometricPrecision; text-rendering:geometricPrecision; image-rendering:optimizeQuality; fill-rule:evenodd; clip-rule:evenodd" xmlns:xlink="http://www.w3.org/1999/xlink">
<g><path style="opacity:0.955" fill="#f4f4f4" d="M 31.5,-0.5 C 37.1667,-0.5 42.8333,-0.5 48.5,-0.5C 52.0264,1.07157 55.693,2.57157 59.5,4C 62.7874,5.46746 65.4541,7.63413 67.5,10.5C 61.7097,13.1258 55.7097,15.4592 49.5,17.5C 51.2302,20.3699 52.5635,23.3699 53.5,26.5C 55.099,26.2322 56.4324,26.5655 57.5,27.5C 56.8333,27.8333 56.1667,28.1667 55.5,28.5C 55.1667,28.5 54.8333,28.5 54.5,28.5C 53.3281,27.2947 51.9948,27.2947 50.5,28.5C 49.7124,27.2299 48.7124,26.2299 47.5,25.5C 45.8292,23.9923 43.9959,23.6589 42,24.5C 41.51,23.2068 41.3433,21.8734 41.5,20.5C 39.6693,19.9478 38.0026,19.9478 36.5,20.5C 35.8076,19.9747 35.3076,19.3081 35,18.5C 34.1841,19.8228 33.0174,20.4894 31.5,20.5C 31.8039,19.8501 32.1373,19.1835 32.5,18.5C 30.8333,17.1667 29.1667,17.1667 27.5,18.5C 25.3333,21.5 23.1667,24.5 21,27.5C 18.8333,24.5 16.6667,21.5 14.5,18.5C 12.9547,17.5481 11.288,17.2148 9.5,17.5C 10.2297,15.955 11.563,15.1216 13.5,15C 12.6198,13.6439 12.2865,12.1439 12.5,10.5C 18.0797,5.54311 24.413,1.87645 31.5,-0.5 Z"/></g>
<g><path style="opacity:1" fill="#5f6060" d="M 9.5,17.5 C 11.288,17.2148 12.9547,17.5481 14.5,18.5C 16.6667,21.5 18.8333,24.5 21,27.5C 23.1667,24.5 25.3333,21.5 27.5,18.5C 29.1667,17.1667 30.8333,17.1667 32.5,18.5C 32.1373,19.1835 31.8039,19.8501 31.5,20.5C 30.0937,20.9731 29.427,21.9731 29.5,23.5C 26.2452,25.9263 23.4119,28.9263 21,32.5C 19.0342,28.4763 16.2009,25.4763 12.5,23.5C 11.5,21.5 10.5,19.5 9.5,17.5 Z"/></g>
<g><path style="opacity:1" fill="#1a243d" d="M 12.5,23.5 C 16.2009,25.4763 19.0342,28.4763 21,32.5C 23.4119,28.9263 26.2452,25.9263 29.5,23.5C 30.3764,23.3691 31.0431,23.7025 31.5,24.5C 29.4742,27.5178 27.4742,30.5178 25.5,33.5C 24.7326,34.172 24.0659,35.0053 23.5,36C 25.3991,38.9877 27.3991,41.8211 29.5,44.5C 29.8333,45.5 30.5,46.1667 31.5,46.5C 31.4142,47.4959 31.7476,48.3292 32.5,49C 30.8333,49.6667 29.1667,49.6667 27.5,49C 25.7532,45.6666 23.4199,42.8333 20.5,40.5C 18.2417,43.3566 16.2417,46.3566 14.5,49.5C 12.8008,49.6602 11.1341,49.4935 9.5,49C 10.8825,47.7292 11.8825,46.2292 12.5,44.5C 14.8288,42.1587 16.8288,39.4921 18.5,36.5C 18.0576,35.2613 17.3909,34.2613 16.5,33.5C 15.1194,29.9506 13.1194,26.7839 10.5,24C 11.0944,23.5357 11.7611,23.369 12.5,23.5 Z"/></g>
<g><path style="opacity:1" fill="#5f6061" d="M 16.5,33.5 C 17.3909,34.2613 18.0576,35.2613 18.5,36.5C 16.8288,39.4921 14.8288,42.1587 12.5,44.5C 12.1961,43.8501 11.8627,43.1835 11.5,42.5C 13.4446,39.6067 15.1113,36.6067 16.5,33.5 Z"/></g>
<g><path style="opacity:1" fill="#ebebeb" d="M 67.5,10.5 C 72.683,15.0068 76.683,20.3401 79.5,26.5C 79.5,35.8333 79.5,45.1667 79.5,54.5C 74.5812,65.0865 66.9145,73.0865 56.5,78.5C 56.5394,77.4168 56.8728,76.4168 57.5,75.5C 57.1543,74.3044 56.6543,74.3044 56,75.5C 55.9566,72.7828 54.9566,72.1161 53,73.5C 49.0837,72.5831 46.4171,70.2498 45,66.5C 42.094,67.78 39.4274,66.78 37,63.5C 36.6667,63.8333 36.3333,64.1667 36,64.5C 34.164,62.0382 34.9974,60.5382 38.5,60C 37.2396,58.887 36.073,58.7203 35,59.5C 32.4417,57.1642 33.1084,55.1642 37,53.5C 38.0002,59.6008 41.8336,61.6008 48.5,59.5C 48.147,57.3652 48.9803,56.0319 51,55.5C 52.3264,56.7989 53.6598,58.1322 55,59.5C 56.7184,57.7979 56.885,55.9645 55.5,54C 57.5,53.6667 59.5,53.3333 61.5,53C 59.0995,52.8142 56.7662,52.3142 54.5,51.5C 55.7887,49.7807 55.4554,48.4474 53.5,47.5C 53.9175,46.7784 54.5842,46.2784 55.5,46C 55.0426,45.586 54.7093,45.086 54.5,44.5C 49.544,43.5059 44.544,43.1725 39.5,43.5C 39.1667,50.1667 38.8333,50.1667 38.5,43.5C 36.5168,43.1568 35.1834,43.8235 34.5,45.5C 33.609,46.1098 32.609,46.4431 31.5,46.5C 30.5,46.1667 29.8333,45.5 29.5,44.5C 29.9175,43.7784 30.5842,43.2784 31.5,43C 29.6446,39.6648 27.6446,36.4982 25.5,33.5C 27.4742,30.5178 29.4742,27.5178 31.5,24.5C 31.0431,23.7025 30.3764,23.3691 29.5,23.5C 29.427,21.9731 30.0937,20.9731 31.5,20.5C 33.0174,20.4894 34.1841,19.8228 35,18.5C 35.3076,19.3081 35.8076,19.9747 36.5,20.5C 38.0026,19.9478 39.6693,19.9478 41.5,20.5C 41.3433,21.8734 41.51,23.2068 42,24.5C 43.9959,23.6589 45.8292,23.9923 47.5,25.5C 47.719,26.675 47.3857,27.675 46.5,28.5C 43.7444,27.367 41.911,28.367 41,31.5C 40.6667,30.5 40.3333,29.5 40,28.5C 40.6667,32.1667 40.6667,35.8333 40,39.5C 40.3333,38.5 40.6667,37.5 41,36.5C 41.2784,37.4158 41.7784,38.0825 42.5,38.5C 43.3697,40.5988 44.703,40.9321 46.5,39.5C 47.2508,40.376 47.7508,41.376 48,42.5C 48.9154,40.0197 50.4154,39.3531 52.5,40.5C 55.0756,39.1166 54.7423,38.2833 51.5,38C 52.448,37.5172 53.448,37.3505 54.5,37.5C 54.7373,36.209 54.404,35.209 53.5,34.5C 54.2341,33.2921 54.5674,31.9587 54.5,30.5C 53.448,30.6495 52.448,30.4828 51.5,30C 52.7375,29.7679 53.7375,29.2679 54.5,28.5C 54.8333,28.5 55.1667,28.5 55.5,28.5C 55.178,30.7224 55.8446,32.5557 57.5,34C 54.6873,36.5365 54.854,38.7031 58,40.5C 58.5,40.1667 59,39.8333 59.5,39.5C 56.6383,38.6941 56.1383,37.3607 58,35.5C 58.3333,35.8333 58.6667,36.1667 59,36.5C 58.6888,35.0654 58.8555,33.7321 59.5,32.5C 55.9232,31.8862 55.9232,30.5529 59.5,28.5C 59.0431,27.7025 58.3764,27.3691 57.5,27.5C 56.4324,26.5655 55.099,26.2322 53.5,26.5C 52.5635,23.3699 51.2302,20.3699 49.5,17.5C 55.7097,15.4592 61.7097,13.1258 67.5,10.5 Z"/></g>
<g><path style="opacity:1" fill="#79808c" d="M 53.5,34.5 C 54.404,35.209 54.7373,36.209 54.5,37.5C 53.448,37.3505 52.448,37.5172 51.5,38C 54.7423,38.2833 55.0756,39.1166 52.5,40.5C 50.4154,39.3531 48.9154,40.0197 48,42.5C 47.7508,41.376 47.2508,40.376 46.5,39.5C 44.703,40.9321 43.3697,40.5988 42.5,38.5C 42.33,37.1779 42.6634,36.0113 43.5,35C 46.8013,34.5234 50.1347,34.3567 53.5,34.5 Z"/></g>
<g><path style="opacity:1" fill="#767c89" d="M 35.5,33.5 C 35.8333,33.5 36.1667,33.5 36.5,33.5C 39.4346,37.2022 38.6013,39.8689 34,41.5C 33.1329,38.4791 33.6329,35.8124 35.5,33.5 Z"/></g>
<g><path style="opacity:1" fill="#92959b" d="M 61.5,27.5 C 62.1614,28.7175 62.8281,30.0508 63.5,31.5C 66.0278,30.5022 66.0278,29.6689 63.5,29C 64.5358,27.3831 65.7025,27.2164 67,28.5C 66.9744,31.4683 67.1411,34.3016 67.5,37C 67.3244,40.4227 65.9911,41.0894 63.5,39C 66.0278,38.3311 66.0278,37.4978 63.5,36.5C 62.7189,37.7287 62.2189,39.062 62,40.5C 60.1778,36.2686 60.0111,31.9353 61.5,27.5 Z"/></g>
<g><path style="opacity:1" fill="#a7a8a9" d="M 47.5,25.5 C 48.7124,26.2299 49.7124,27.2299 50.5,28.5C 51.9948,27.2947 53.3281,27.2947 54.5,28.5C 53.7375,29.2679 52.7375,29.7679 51.5,30C 52.448,30.4828 53.448,30.6495 54.5,30.5C 54.5674,31.9587 54.2341,33.2921 53.5,34.5C 50.1347,34.3567 46.8013,34.5234 43.5,35C 42.6634,36.0113 42.33,37.1779 42.5,38.5C 41.7784,38.0825 41.2784,37.4158 41,36.5C 40.6667,37.5 40.3333,38.5 40,39.5C 40.6667,35.8333 40.6667,32.1667 40,28.5C 40.3333,29.5 40.6667,30.5 41,31.5C 41.911,28.367 43.7444,27.367 46.5,28.5C 47.3857,27.675 47.719,26.675 47.5,25.5 Z"/></g>
<g><path style="opacity:1" fill="#a9a9a9" d="M 36.5,33.5 C 36.1667,33.5 35.8333,33.5 35.5,33.5C 34.2749,32.8478 33.6083,31.6811 33.5,30C 33.6163,26.156 35.1163,25.9894 38,29.5C 38.7726,31.3524 38.2726,32.6857 36.5,33.5 Z"/></g>
<g><path style="opacity:1" fill="#828489" d="M 57.5,27.5 C 58.3764,27.3691 59.0431,27.7025 59.5,28.5C 55.9232,30.5529 55.9232,31.8862 59.5,32.5C 58.8555,33.7321 58.6888,35.0654 59,36.5C 58.6667,36.1667 58.3333,35.8333 58,35.5C 56.1383,37.3607 56.6383,38.6941 59.5,39.5C 59,39.8333 58.5,40.1667 58,40.5C 54.854,38.7031 54.6873,36.5365 57.5,34C 55.8446,32.5557 55.178,30.7224 55.5,28.5C 56.1667,28.1667 56.8333,27.8333 57.5,27.5 Z"/></g>
<g><path style="opacity:1" fill="#5e5e5e" d="M 25.5,33.5 C 27.6446,36.4982 29.6446,39.6648 31.5,43C 30.5842,43.2784 29.9175,43.7784 29.5,44.5C 27.3991,41.8211 25.3991,38.9877 23.5,36C 24.0659,35.0053 24.7326,34.172 25.5,33.5 Z"/></g>
<g><path style="opacity:1" fill="#cdcdcd" d="M 53.5,47.5 C 52.5222,47.811 51.8555,48.4777 51.5,49.5C 45.8722,50.4954 40.2055,50.8288 34.5,50.5C 34.5,48.8333 34.5,47.1667 34.5,45.5C 35.1834,43.8235 36.5168,43.1568 38.5,43.5C 38.8333,50.1667 39.1667,50.1667 39.5,43.5C 44.544,43.1725 49.544,43.5059 54.5,44.5C 54.7093,45.086 55.0426,45.586 55.5,46C 54.5842,46.2784 53.9175,46.7784 53.5,47.5 Z"/></g>
<g><path style="opacity:1" fill="#e2e2e2" d="M 31.5,46.5 C 32.609,46.4431 33.609,46.1098 34.5,45.5C 34.5,47.1667 34.5,48.8333 34.5,50.5C 40.2055,50.8288 45.8722,50.4954 51.5,49.5C 51.8555,48.4777 52.5222,47.811 53.5,47.5C 55.4554,48.4474 55.7887,49.7807 54.5,51.5C 56.7662,52.3142 59.0995,52.8142 61.5,53C 59.5,53.3333 57.5,53.6667 55.5,54C 56.885,55.9645 56.7184,57.7979 55,59.5C 53.6598,58.1322 52.3264,56.7989 51,55.5C 48.9803,56.0319 48.147,57.3652 48.5,59.5C 41.8336,61.6008 38.0002,59.6008 37,53.5C 33.1084,55.1642 32.4417,57.1642 35,59.5C 36.073,58.7203 37.2396,58.887 38.5,60C 34.9974,60.5382 34.164,62.0382 36,64.5C 36.3333,64.1667 36.6667,63.8333 37,63.5C 39.4274,66.78 42.094,67.78 45,66.5C 46.4171,70.2498 49.0837,72.5831 53,73.5C 54.9566,72.1161 55.9566,72.7828 56,75.5C 56.6543,74.3044 57.1543,74.3044 57.5,75.5C 56.8728,76.4168 56.5394,77.4168 56.5,78.5C 55.0048,78.9887 53.6715,79.6554 52.5,80.5C 49.8333,80.5 47.1667,80.5 44.5,80.5C 40.4774,77.1596 36.1441,74.1596 31.5,71.5C 30.608,68.3609 28.7746,66.0276 26,64.5C 22.9464,67.1809 21.1131,66.3476 20.5,62C 24.5537,60.0588 24.2203,59.2254 19.5,59.5C 19.6534,53.6761 18.9867,53.3428 17.5,58.5C 16.4593,56.0087 15.6259,56.0087 15,58.5C 14.51,57.2068 14.3433,55.8734 14.5,54.5C 13.448,54.6495 12.448,54.4828 11.5,54C 13.8333,53.6667 16.1667,53.3333 18.5,53C 15.3771,52.7935 12.3771,52.1268 9.5,51C 11.3817,50.8019 13.0484,50.3019 14.5,49.5C 16.2417,46.3566 18.2417,43.3566 20.5,40.5C 23.4199,42.8333 25.7532,45.6666 27.5,49C 29.1667,49.6667 30.8333,49.6667 32.5,49C 31.7476,48.3292 31.4142,47.4959 31.5,46.5 Z"/></g>
<g><path style="opacity:0.996" fill="#d2d2d2" d="M 12.5,10.5 C 12.2865,12.1439 12.6198,13.6439 13.5,15C 11.563,15.1216 10.2297,15.955 9.5,17.5C 10.5,19.5 11.5,21.5 12.5,23.5C 11.7611,23.369 11.0944,23.5357 10.5,24C 13.1194,26.7839 15.1194,29.9506 16.5,33.5C 15.1113,36.6067 13.4446,39.6067 11.5,42.5C 11.8627,43.1835 12.1961,43.8501 12.5,44.5C 11.8825,46.2292 10.8825,47.7292 9.5,49C 11.1341,49.4935 12.8008,49.6602 14.5,49.5C 13.0484,50.3019 11.3817,50.8019 9.5,51C 12.3771,52.1268 15.3771,52.7935 18.5,53C 16.1667,53.3333 13.8333,53.6667 11.5,54C 12.448,54.4828 13.448,54.6495 14.5,54.5C 14.3433,55.8734 14.51,57.2068 15,58.5C 15.6259,56.0087 16.4593,56.0087 17.5,58.5C 18.9867,53.3428 19.6534,53.6761 19.5,59.5C 24.2203,59.2254 24.5537,60.0588 20.5,62C 21.1131,66.3476 22.9464,67.1809 26,64.5C 28.7746,66.0276 30.608,68.3609 31.5,71.5C 36.1441,74.1596 40.4774,77.1596 44.5,80.5C 38.8333,80.5 33.1667,80.5 27.5,80.5C 14.4159,74.7494 5.08257,65.416 -0.5,52.5C -0.5,44.8333 -0.5,37.1667 -0.5,29.5C 1.12997,27.9739 1.96331,25.9739 2,23.5C 4.86159,18.6204 8.36159,14.2871 12.5,10.5 Z"/></g>
</svg>
