<?xml version="1.0" encoding="UTF-8"?>
<!DOCTYPE svg PUBLIC "-//W3C//DTD SVG 1.1//EN" "http://www.w3.org/Graphics/SVG/1.1/DTD/svg11.dtd">
<svg xmlns="http://www.w3.org/2000/svg" version="1.1" width="53px" height="81px" style="shape-rendering:geometricPrecision; text-rendering:geometricPrecision; image-rendering:optimizeQuality; fill-rule:evenodd; clip-rule:evenodd" xmlns:xlink="http://www.w3.org/1999/xlink">
<g><path style="opacity:0.349" fill="#0392d2" d="M 25.5,-0.5 C 26.5,-0.5 27.5,-0.5 28.5,-0.5C 29.8815,3.46982 31.3815,7.46982 33,11.5C 33.7958,14.0385 33.6291,16.3718 32.5,18.5C 32.762,17.0222 32.4287,15.6888 31.5,14.5C 30.3892,16.5522 28.7225,17.8855 26.5,18.5C 26.1667,17.8333 25.8333,17.1667 25.5,16.5C 26.8333,10.8333 26.8333,5.16667 25.5,-0.5 Z"/></g>
<g><path style="opacity:1" fill="#60b1e3" d="M 32.5,18.5 C 32.3465,20.9699 31.3465,22.9699 29.5,24.5C 28.2652,24.7214 27.2652,25.3881 26.5,26.5C 25.5344,24.604 25.2011,22.604 25.5,20.5C 25.8333,19.8333 26.1667,19.1667 26.5,18.5C 28.7225,17.8855 30.3892,16.5522 31.5,14.5C 32.4287,15.6888 32.762,17.0222 32.5,18.5 Z"/></g>
<g><path style="opacity:1" fill="#2997d3" d="M 25.5,20.5 C 25.2011,22.604 25.5344,24.604 26.5,26.5C 27.2652,25.3881 28.2652,24.7214 29.5,24.5C 29.1667,25.1667 28.8333,25.8333 28.5,26.5C 28.5,27.1667 28.1667,27.5 27.5,27.5C 25.9991,28.7515 24.3325,29.7515 22.5,30.5C 21.5041,30.4142 20.6708,30.7476 20,31.5C 19.1786,28.4459 19.3452,25.4459 20.5,22.5C 22.0754,21.5435 23.742,20.8769 25.5,20.5 Z"/></g>
<g><path style="opacity:0.983" fill="#0582c7" d="M 25.5,16.5 C 25.8333,17.1667 26.1667,17.8333 26.5,18.5C 26.1667,19.1667 25.8333,19.8333 25.5,20.5C 23.742,20.8769 22.0754,21.5435 20.5,22.5C 19.3452,25.4459 19.1786,28.4459 20,31.5C 20.6708,30.7476 21.5041,30.4142 22.5,30.5C 20.5,32.8333 18.5,35.1667 16.5,37.5C 15.8333,37.8333 15.1667,38.1667 14.5,38.5C 13.6365,39.463 12.9698,39.463 12.5,38.5C 13.4444,34.5801 13.4444,31.5801 12.5,29.5C 13.925,28.078 14.925,26.4113 15.5,24.5C 18.7941,21.8442 22.1274,19.1775 25.5,16.5 Z"/></g>
<g><path style="opacity:0.704" fill="#63ccf3" d="M 28.5,26.5 C 34.0276,29.4114 39.6942,32.2448 45.5,35C 46.7101,36.0391 47.7101,37.2058 48.5,38.5C 47.4151,40.5822 45.9151,40.9156 44,39.5C 43.2086,40.745 42.7086,42.0783 42.5,43.5C 42.1667,43.5 41.8333,43.5 41.5,43.5C 41.5,42.8333 41.1667,42.5 40.5,42.5C 40.5,42.1667 40.5,41.8333 40.5,41.5C 40.5,40.8333 40.1667,40.5 39.5,40.5C 39.6716,39.5084 39.3382,38.8417 38.5,38.5C 38.5,37.8333 38.1667,37.5 37.5,37.5C 37.1583,36.6618 36.4916,36.3284 35.5,36.5C 35.5,35.8333 35.1667,35.5 34.5,35.5C 34.1583,34.6618 33.4916,34.3284 32.5,34.5C 30.6098,32.4099 28.9431,30.0765 27.5,27.5C 28.1667,27.5 28.5,27.1667 28.5,26.5 Z"/></g>
<g><path style="opacity:0.997" fill="#0c84c8" d="M 12.5,29.5 C 13.4444,31.5801 13.4444,34.5801 12.5,38.5C 12.9698,39.463 13.6365,39.463 14.5,38.5C 14.5,39.1667 14.5,39.8333 14.5,40.5C 13.0937,40.9731 12.427,41.9731 12.5,43.5C 12.5,43.8333 12.5,44.1667 12.5,44.5C 11.5233,47.2869 11.19,50.2869 11.5,53.5C 11.9321,54.7095 12.5987,55.7095 13.5,56.5C 13.5,56.8333 13.5,57.1667 13.5,57.5C 13.3284,58.4916 13.6618,59.1583 14.5,59.5C 14.5569,60.609 14.8902,61.609 15.5,62.5C 15.5,63.1667 15.8333,63.5 16.5,63.5C 18.2181,65.2228 19.5514,67.2228 20.5,69.5C 20.5,70.1667 20.8333,70.5 21.5,70.5C 21.5,70.8333 21.5,71.1667 21.5,71.5C 16.3723,68.2737 12.3723,63.9404 9.5,58.5C 8.3447,55.6717 7.01137,53.0051 5.5,50.5C 4.89428,42.3157 7.22762,35.3157 12.5,29.5 Z"/></g>
<g><path style="opacity:0.28" fill="#2c5c73" d="M 32.5,34.5 C 32.5,34.8333 32.5,35.1667 32.5,35.5C 29.1501,35.335 25.8168,35.5017 22.5,36C 21.0577,36.3768 20.0577,37.2101 19.5,38.5C 17.7356,39.326 16.4023,40.6593 15.5,42.5C 15.1667,42.5 14.8333,42.5 14.5,42.5C 14.5,41.8333 14.5,41.1667 14.5,40.5C 15.9063,40.0269 16.573,39.0269 16.5,37.5C 21.5374,34.4247 26.8708,33.4247 32.5,34.5 Z"/></g>
<g><path style="opacity:0.051" fill="#305d75" d="M 34.5,36.5 C 34.8333,36.5 35.1667,36.5 35.5,36.5C 35.8417,37.3382 36.5084,37.6716 37.5,37.5C 38.1667,37.5 38.5,37.8333 38.5,38.5C 38.5,39.1667 38.5,39.8333 38.5,40.5C 36.6593,39.5977 35.326,38.2644 34.5,36.5 Z"/></g>
<g><path style="opacity:1" fill="#29b1f0" d="M 19.5,38.5 C 21.698,38.1201 23.3646,38.7868 24.5,40.5C 24.2493,43.909 24.5827,47.2423 25.5,50.5C 24.1353,53.1247 22.802,53.1247 21.5,50.5C 18.6618,48.6941 18.9952,47.6941 22.5,47.5C 22.5792,46.0695 22.2458,44.7362 21.5,43.5C 19.1102,43.8519 17.1102,43.5186 15.5,42.5C 16.4023,40.6593 17.7356,39.326 19.5,38.5 Z"/></g>
<g><path style="opacity:1" fill="#39b2ec" d="M 32.5,35.5 C 33.1667,35.5 33.8333,35.5 34.5,35.5C 34.5,35.8333 34.5,36.1667 34.5,36.5C 35.326,38.2644 36.6593,39.5977 38.5,40.5C 38.8333,40.5 39.1667,40.5 39.5,40.5C 40.1667,40.5 40.5,40.8333 40.5,41.5C 40.5,41.8333 40.5,42.1667 40.5,42.5C 40.5,42.8333 40.5,43.1667 40.5,43.5C 40.5,44.1667 40.5,44.8333 40.5,45.5C 39.8365,47.0419 39.1698,48.7086 38.5,50.5C 37.6667,49.5 36.8333,48.5 36,47.5C 35.8019,49.3817 35.3019,51.0484 34.5,52.5C 34.631,51.7611 34.4643,51.0944 34,50.5C 33.5814,51.6721 32.9147,52.6721 32,53.5C 31.9091,51.2037 32.0757,48.8704 32.5,46.5C 31.2423,38.6343 30.5756,38.6343 30.5,46.5C 29.2502,46.4226 28.4169,45.756 28,44.5C 27.6667,42.5 27.3333,40.5 27,38.5C 26.2917,39.3805 25.4584,40.0472 24.5,40.5C 23.3646,38.7868 21.698,38.1201 19.5,38.5C 20.0577,37.2101 21.0577,36.3768 22.5,36C 25.8168,35.5017 29.1501,35.335 32.5,35.5 Z"/></g>
<g><path style="opacity:1" fill="#56c3ef" d="M 15.5,24.5 C 14.925,26.4113 13.925,28.078 12.5,29.5C 7.22762,35.3157 4.89428,42.3157 5.5,50.5C 4.85013,50.1961 4.18346,49.8627 3.5,49.5C 2.51998,46.9135 2.18665,44.2469 2.5,41.5C 4.91594,34.4112 9.24928,28.7445 15.5,24.5 Z"/></g>
<g><path style="opacity:1" fill="#f4fbfe" d="M 34.5,52.5 C 33.7764,56.8802 31.1097,58.8802 26.5,58.5C 26.6887,54.1217 28.022,50.1217 30.5,46.5C 30.5756,38.6343 31.2423,38.6343 32.5,46.5C 32.0757,48.8704 31.9091,51.2037 32,53.5C 32.9147,52.6721 33.5814,51.6721 34,50.5C 34.4643,51.0944 34.631,51.7611 34.5,52.5 Z"/></g>
<g><path style="opacity:1" fill="#43b8f1" d="M 14.5,42.5 C 14.8333,42.5 15.1667,42.5 15.5,42.5C 17.1102,43.5186 19.1102,43.8519 21.5,43.5C 22.2458,44.7362 22.5792,46.0695 22.5,47.5C 18.9952,47.6941 18.6618,48.6941 21.5,50.5C 20.5028,50.4701 19.8361,50.9701 19.5,52C 20.0439,53.585 20.7106,55.085 21.5,56.5C 20.9569,56.56 20.6236,56.8933 20.5,57.5C 21.2634,58.7193 22.2634,59.7193 23.5,60.5C 23.3764,61.1067 23.0431,61.44 22.5,61.5C 21.325,61.719 20.325,61.3857 19.5,60.5C 17.785,58.1182 15.785,56.1182 13.5,54.5C 13.307,50.4338 13.6403,46.4338 14.5,42.5 Z"/></g>
<g><path style="opacity:1" fill="#69c8f1" d="M 48.5,38.5 C 50.7271,39.4006 51.7271,41.0672 51.5,43.5C 50.791,44.404 49.791,44.7373 48.5,44.5C 48.9077,49.2223 46.9077,52.2223 42.5,53.5C 42.5,50.8333 42.5,48.1667 42.5,45.5C 42.5,44.8333 42.5,44.1667 42.5,43.5C 42.7086,42.0783 43.2086,40.745 44,39.5C 45.9151,40.9156 47.4151,40.5822 48.5,38.5 Z"/></g>
<g><path style="opacity:0.608" fill="#3b515e" d="M 14.5,42.5 C 13.6403,46.4338 13.307,50.4338 13.5,54.5C 13.5,55.1667 13.5,55.8333 13.5,56.5C 12.5987,55.7095 11.9321,54.7095 11.5,53.5C 12.4767,50.7131 12.81,47.7131 12.5,44.5C 12.5,44.1667 12.5,43.8333 12.5,43.5C 13.1667,43.1667 13.8333,42.8333 14.5,42.5 Z"/></g>
<g><path style="opacity:1" fill="#1cacec" d="M 40.5,45.5 C 41.6776,48.4773 41.6776,51.4773 40.5,54.5C 40.5,54.8333 40.5,55.1667 40.5,55.5C 40.1667,55.5 39.8333,55.5 39.5,55.5C 39.719,54.325 39.3857,53.325 38.5,52.5C 37.062,54.7118 35.3954,56.7118 33.5,58.5C 30.1441,59.5101 27.1441,60.8435 24.5,62.5C 23.5084,62.6716 22.8417,62.3382 22.5,61.5C 23.0431,61.44 23.3764,61.1067 23.5,60.5C 22.2634,59.7193 21.2634,58.7193 20.5,57.5C 20.6236,56.8933 20.9569,56.56 21.5,56.5C 22.8195,57.9418 24.4862,58.6085 26.5,58.5C 31.1097,58.8802 33.7764,56.8802 34.5,52.5C 35.3019,51.0484 35.8019,49.3817 36,47.5C 36.8333,48.5 37.6667,49.5 38.5,50.5C 39.1698,48.7086 39.8365,47.0419 40.5,45.5 Z"/></g>
<g><path style="opacity:1" fill="#e5f5fd" d="M 30.5,46.5 C 28.022,50.1217 26.6887,54.1217 26.5,58.5C 24.4862,58.6085 22.8195,57.9418 21.5,56.5C 20.7106,55.085 20.0439,53.585 19.5,52C 19.8361,50.9701 20.5028,50.4701 21.5,50.5C 22.802,53.1247 24.1353,53.1247 25.5,50.5C 24.5827,47.2423 24.2493,43.909 24.5,40.5C 25.4584,40.0472 26.2917,39.3805 27,38.5C 27.3333,40.5 27.6667,42.5 28,44.5C 28.4169,45.756 29.2502,46.4226 30.5,46.5 Z"/></g>
<g><path style="opacity:0.188" fill="#27262e" d="M 40.5,43.5 C 40.8333,43.5 41.1667,43.5 41.5,43.5C 41.3284,44.4916 41.6618,45.1583 42.5,45.5C 42.5,48.1667 42.5,50.8333 42.5,53.5C 41.8333,53.5 41.5,53.8333 41.5,54.5C 41.1667,54.5 40.8333,54.5 40.5,54.5C 41.6776,51.4773 41.6776,48.4773 40.5,45.5C 40.5,44.8333 40.5,44.1667 40.5,43.5 Z"/></g>
<g><path style="opacity:0.999" fill="#1aace3" d="M 2.5,41.5 C 2.18665,44.2469 2.51998,46.9135 3.5,49.5C 4.18346,49.8627 4.85013,50.1961 5.5,50.5C 7.01137,53.0051 8.3447,55.6717 9.5,58.5C 8.09368,58.9731 7.42702,59.9731 7.5,61.5C 3.55331,57.9372 0.886641,53.6039 -0.5,48.5C -0.5,47.8333 -0.5,47.1667 -0.5,46.5C 0.687286,44.9275 1.68729,43.2608 2.5,41.5 Z"/></g>
<g><path style="opacity:1" fill="#56acdb" d="M 51.5,43.5 C 51.8333,43.5 52.1667,43.5 52.5,43.5C 52.5,46.5 52.5,49.5 52.5,52.5C 51.234,53.0899 49.9007,53.5899 48.5,54C 46.9697,56.352 45.3031,58.5187 43.5,60.5C 42.1196,59.2935 40.9529,59.6269 40,61.5C 39.5357,60.9056 39.369,60.2389 39.5,59.5C 39.1667,58.1667 38.8333,58.1667 38.5,59.5C 37.8333,59.5 37.5,59.8333 37.5,60.5C 37.1667,60.5 36.8333,60.5 36.5,60.5C 36.5858,59.5041 36.2524,58.6708 35.5,58C 37.3197,57.7996 38.653,56.9663 39.5,55.5C 39.8333,55.5 40.1667,55.5 40.5,55.5C 41.206,56.5573 41.5393,56.2239 41.5,54.5C 42.1667,54.5 42.5,54.1667 42.5,53.5C 46.9077,52.2223 48.9077,49.2223 48.5,44.5C 49.791,44.7373 50.791,44.404 51.5,43.5 Z"/></g>
<g><path style="opacity:1" fill="#62c2e9" d="M 39.5,55.5 C 38.653,56.9663 37.3197,57.7996 35.5,58C 36.2524,58.6708 36.5858,59.5041 36.5,60.5C 36.5,60.8333 36.5,61.1667 36.5,61.5C 35.8333,61.5 35.5,61.8333 35.5,62.5C 35.1667,62.5 34.8333,62.5 34.5,62.5C 34.1667,62.5 33.8333,62.5 33.5,62.5C 30.8728,63.0916 28.2062,63.4249 25.5,63.5C 25.5,62.8333 25.1667,62.5 24.5,62.5C 27.1441,60.8435 30.1441,59.5101 33.5,58.5C 35.3954,56.7118 37.062,54.7118 38.5,52.5C 39.3857,53.325 39.719,54.325 39.5,55.5 Z"/></g>
<g><path style="opacity:1" fill="#16aae2" d="M 9.5,58.5 C 12.3723,63.9404 16.3723,68.2737 21.5,71.5C 20.7095,72.4013 19.7095,73.0679 18.5,73.5C 14.8616,69.5259 11.1949,65.5259 7.5,61.5C 7.42702,59.9731 8.09368,58.9731 9.5,58.5 Z"/></g>
<g><path style="opacity:0.992" fill="#5db3e4" d="M 38.5,59.5 C 38.8333,59.5 39.1667,59.5 39.5,59.5C 39.369,60.2389 39.5357,60.9056 40,61.5C 40.9529,59.6269 42.1196,59.2935 43.5,60.5C 39.5724,65.4251 34.5724,68.7584 28.5,70.5C 27.448,70.6495 26.448,70.4828 25.5,70C 23.5,67.6667 21.5,65.3333 19.5,63C 21.3502,63.5948 23.3502,64.0948 25.5,64.5C 25.7869,66.1207 26.7869,67.1207 28.5,67.5C 29.9014,66.4793 31.2347,65.4793 32.5,64.5C 33.1667,64.5 33.5,64.1667 33.5,63.5C 34.1667,63.5 34.5,63.1667 34.5,62.5C 34.8333,62.5 35.1667,62.5 35.5,62.5C 36.1667,62.5 36.5,62.1667 36.5,61.5C 37.1667,61.5 37.5,61.1667 37.5,60.5C 38.1667,60.5 38.5,60.1667 38.5,59.5 Z M 25.5,64.5 C 27.8333,64.5 30.1667,64.5 32.5,64.5C 31.2347,65.4793 29.9014,66.4793 28.5,67.5C 26.7869,67.1207 25.7869,66.1207 25.5,64.5 Z"/></g>
<g><path style="opacity:0.59" fill="#3495d1" d="M 52.5,52.5 C 52.5,53.8333 52.5,55.1667 52.5,56.5C 48.6262,63.4689 42.9596,68.6356 35.5,72C 40.7992,75.3758 46.4659,77.8758 52.5,79.5C 52.5,79.8333 52.5,80.1667 52.5,80.5C 45.8333,80.5 39.1667,80.5 32.5,80.5C 30.8767,79.2206 29.21,77.8872 27.5,76.5C 25.4346,77.8567 23.4346,79.19 21.5,80.5C 16.8333,80.5 12.1667,80.5 7.5,80.5C 12.0725,78.5838 16.7392,76.7504 21.5,75C 24.1867,73.9514 26.52,72.4514 28.5,70.5C 34.5724,68.7584 39.5724,65.4251 43.5,60.5C 45.3031,58.5187 46.9697,56.352 48.5,54C 49.9007,53.5899 51.234,53.0899 52.5,52.5 Z"/></g>
<g><path style="opacity:0.051" fill="#323338" d="M 33.5,62.5 C 33.5,62.8333 33.5,63.1667 33.5,63.5C 32.8333,63.5 32.5,63.8333 32.5,64.5C 30.1667,64.5 27.8333,64.5 25.5,64.5C 25.5,64.1667 25.5,63.8333 25.5,63.5C 28.2062,63.4249 30.8728,63.0916 33.5,62.5 Z"/></g>
<g><path style="opacity:0.878" fill="#42a6d5" d="M 13.5,54.5 C 15.785,56.1182 17.785,58.1182 19.5,60.5C 20.325,61.3857 21.325,61.719 22.5,61.5C 22.8417,62.3382 23.5084,62.6716 24.5,62.5C 25.1667,62.5 25.5,62.8333 25.5,63.5C 25.5,63.8333 25.5,64.1667 25.5,64.5C 23.3502,64.0948 21.3502,63.5948 19.5,63C 21.5,65.3333 23.5,67.6667 25.5,70C 26.448,70.4828 27.448,70.6495 28.5,70.5C 26.52,72.4514 24.1867,73.9514 21.5,75C 16.7392,76.7504 12.0725,78.5838 7.5,80.5C 4.83333,80.5 2.16667,80.5 -0.5,80.5C -0.5,80.1667 -0.5,79.8333 -0.5,79.5C 5.97835,77.8958 12.3117,75.8958 18.5,73.5C 19.7095,73.0679 20.7095,72.4013 21.5,71.5C 22.8333,71.1667 22.8333,70.8333 21.5,70.5C 20.8333,70.5 20.5,70.1667 20.5,69.5C 19.5514,67.2228 18.2181,65.2228 16.5,63.5C 15.8333,63.5 15.5,63.1667 15.5,62.5C 14.8902,61.609 14.5569,60.609 14.5,59.5C 14.6716,58.5084 14.3382,57.8417 13.5,57.5C 13.5,57.1667 13.5,56.8333 13.5,56.5C 13.5,55.8333 13.5,55.1667 13.5,54.5 Z"/></g>
</svg>
