<?xml version="1.0" encoding="UTF-8"?>
<!DOCTYPE svg PUBLIC "-//W3C//DTD SVG 1.1//EN" "http://www.w3.org/Graphics/SVG/1.1/DTD/svg11.dtd">
<svg xmlns="http://www.w3.org/2000/svg" version="1.1" width="469px" height="412px" style="shape-rendering:geometricPrecision; text-rendering:geometricPrecision; image-rendering:optimizeQuality; fill-rule:evenodd; clip-rule:evenodd" xmlns:xlink="http://www.w3.org/1999/xlink">
<g><path style="opacity:1" fill="#fc8683" d="M 53.5,-0.5 C 55.8333,-0.5 58.1667,-0.5 60.5,-0.5C 61.362,2.53613 63.1953,4.86946 66,6.5C 70.0177,17.2271 74.0177,27.8938 78,38.5C 78.8696,44.9172 78.5362,51.2506 77,57.5C 75,58.8333 73,58.8333 71,57.5C 68.3021,42.8763 65.1355,28.543 61.5,14.5C 60.0702,11.0391 58.9035,7.37245 58,3.5C 55.9546,2.07352 53.7879,1.07352 51.5,0.5C 52.4916,0.67158 53.1583,0.338246 53.5,-0.5 Z"/></g>
<g><path style="opacity:1" fill="#aa3a34" d="M 385.5,5.5 C 388.97,4.87483 391.804,5.87483 394,8.5C 395.332,12.8292 396.498,17.1625 397.5,21.5C 396.178,21.67 395.011,21.3366 394,20.5C 391.312,15.3182 388.478,10.3182 385.5,5.5 Z"/></g>
<g><path style="opacity:1" fill="#af0302" d="M 42.5,3.5 C 45.2869,4.47667 48.2869,4.81 51.5,4.5C 51.167,24.178 51.5004,43.8446 52.5,63.5C 53.1835,63.8627 53.8501,64.1961 54.5,64.5C 59.6946,64.1795 64.6946,64.5128 69.5,65.5C 60.0609,65.1732 50.7275,66.0066 41.5,68C 37.1296,69.5486 33.4629,72.0486 30.5,75.5C 32.9438,56.2559 36.1105,36.9226 40,17.5C 40.499,13.1794 40.6657,8.84611 40.5,4.5C 41.1667,4.16667 41.8333,3.83333 42.5,3.5 Z"/></g>
<g><path style="opacity:1" fill="#c60906" d="M 96.5,7.5 C 108.654,11.9917 120.654,16.6584 132.5,21.5C 137.274,30.0894 144.607,35.5894 154.5,38C 170.588,47.3758 186.921,56.2092 203.5,64.5C 205.077,62.8156 206.743,62.4823 208.5,63.5C 207.164,65.0103 205.997,66.6769 205,68.5C 199.953,65.7005 195.12,62.5339 190.5,59C 173.761,51.4637 157.427,43.1304 141.5,34C 133.115,32.2245 124.948,29.7245 117,26.5C 116.5,27 116,27.5 115.5,28C 118.203,32.3255 120.536,36.8255 122.5,41.5C 127.081,43.4801 131.748,44.8134 136.5,45.5C 142.447,45.9035 148.113,47.4035 153.5,50C 154.699,51.6943 156.032,53.1943 157.5,54.5C 152.886,53.3485 148.386,51.6818 144,49.5C 131.669,47.4386 119.836,44.1053 108.5,39.5C 111.866,39.7878 115.2,39.9545 118.5,40C 115.344,39.0628 112.511,37.5628 110,35.5C 107.188,29.2096 103.855,23.2096 100,17.5C 99.6667,17.8333 99.3333,18.1667 99,18.5C 94.4852,14.3245 89.6519,10.4912 84.5,7C 88.3716,6.10878 92.0382,6.60878 95.5,8.5C 96.1067,8.37642 96.44,8.04309 96.5,7.5 Z"/></g>
<g><path style="opacity:1" fill="#d5150d" d="M 90.5,5.5 C 92.7028,5.60357 94.7028,6.27024 96.5,7.5C 96.44,8.04309 96.1067,8.37642 95.5,8.5C 92.0382,6.60878 88.3716,6.10878 84.5,7C 89.6519,10.4912 94.4852,14.3245 99,18.5C 99.3333,18.1667 99.6667,17.8333 100,17.5C 103.855,23.2096 107.188,29.2096 110,35.5C 112.511,37.5628 115.344,39.0628 118.5,40C 115.2,39.9545 111.866,39.7878 108.5,39.5C 102.212,39.3507 96.5454,37.5173 91.5,34C 90.7224,30.8532 89.8891,27.6865 89,24.5C 86.9162,21.3342 84.7496,18.3342 82.5,15.5C 78.7312,11.2288 74.7312,7.06209 70.5,3C 77.2318,3.0711 83.8984,3.90444 90.5,5.5 Z"/></g>
<g><path style="opacity:1" fill="#f87673" d="M 60.5,-0.5 C 64.5,-0.5 68.5,-0.5 72.5,-0.5C 72.5,-0.166667 72.5,0.166667 72.5,0.5C 70.076,0.192441 67.7427,0.525774 65.5,1.5C 67.0792,2.66686 68.4125,4.00019 69.5,5.5C 70.0915,9.01514 71.9248,11.6818 75,13.5C 75.3333,16.5 75.6667,19.5 76,22.5C 82.9829,33.5852 85.1496,45.5852 82.5,58.5C 81.5,58.5 80.5,58.5 79.5,58.5C 77.2752,59.9241 74.7752,60.5908 72,60.5C 69.6477,60.6951 67.6477,60.0284 66,58.5C 65.0135,43.7652 63.5135,29.0986 61.5,14.5C 65.1355,28.543 68.3021,42.8763 71,57.5C 73,58.8333 75,58.8333 77,57.5C 78.5362,51.2506 78.8696,44.9172 78,38.5C 74.0177,27.8938 70.0177,17.2271 66,6.5C 63.1953,4.86946 61.362,2.53613 60.5,-0.5 Z"/></g>
<g><path style="opacity:0.204" fill="#ef322f" d="M 150.5,27.5 C 170.256,34.3773 188.59,43.8773 205.5,56C 207.464,57.451 208.797,59.2843 209.5,61.5C 206.692,59.6249 203.692,57.1249 200.5,54C 186.393,45.783 171.726,38.4497 156.5,32C 154.253,30.7225 152.253,29.2225 150.5,27.5 Z"/></g>
<g><path style="opacity:0.992" fill="#a90803" d="M 385.5,5.5 C 388.478,10.3182 391.312,15.3182 394,20.5C 395.011,21.3366 396.178,21.67 397.5,21.5C 397.788,24.9389 398.454,28.2722 399.5,31.5C 397.903,32.7373 396.737,34.404 396,36.5C 395.833,38 395.667,39.5 395.5,41C 396.545,49.367 397.545,57.5337 398.5,65.5C 396.164,67.0728 396.164,68.4061 398.5,69.5C 401.522,69.6384 404.522,69.3051 407.5,68.5C 410.345,73.5307 412.678,78.8641 414.5,84.5C 411.087,87.312 407.087,88.9787 402.5,89.5C 403.785,88.2147 405.119,86.8814 406.5,85.5C 407.428,84.2322 407.595,82.8989 407,81.5C 405.383,80.1487 404.216,78.482 403.5,76.5C 394.458,74.9578 389.292,69.6245 388,60.5C 386.562,53.1422 385.062,45.8089 383.5,38.5C 383.79,33.6276 385.457,29.2943 388.5,25.5C 387.368,21.4372 386.035,17.4372 384.5,13.5C 383.833,13.1667 383.167,12.8333 382.5,12.5C 374.551,13.7655 366.551,14.5988 358.5,15C 355.562,15.6958 352.896,16.8625 350.5,18.5C 344.07,19.4223 337.737,20.7556 331.5,22.5C 322.65,23.0577 314.817,26.0577 308,31.5C 307.691,33.807 306.858,35.9737 305.5,38C 297.806,40.7317 290.139,43.565 282.5,46.5C 279.946,48.7081 277.446,51.0414 275,53.5C 273.798,55.6775 273.298,58.0108 273.5,60.5C 283.005,61.1031 291.005,64.7697 297.5,71.5C 297.023,72.4776 296.357,73.3109 295.5,74C 290.286,75.5678 285.286,77.4011 280.5,79.5C 269.507,80.5944 258.507,81.5944 247.5,82.5C 259.89,80.6072 272.223,78.1072 284.5,75C 289.669,72.8003 289.669,70.467 284.5,68C 279.833,67.3333 275.167,67.3333 270.5,68C 262.243,71.2542 253.909,74.4209 245.5,77.5C 249.55,74.7371 253.883,72.2371 258.5,70C 261.758,67.5698 261.758,65.7365 258.5,64.5C 256.885,65.154 255.218,65.654 253.5,66C 248.918,68.7702 244.251,71.2702 239.5,73.5C 239.5,72.5 239.5,71.5 239.5,70.5C 239.5,69.8333 239.5,69.1667 239.5,68.5C 239.833,68.5 240.167,68.5 240.5,68.5C 240.351,69.552 240.517,70.552 241,71.5C 243.384,68.4303 246.55,66.597 250.5,66C 257.451,62.3812 262.284,56.8812 265,49.5C 265.495,47.5273 265.662,45.5273 265.5,43.5C 271.027,39.5684 277.027,36.4017 283.5,34C 317.451,24.1801 351.451,14.6801 385.5,5.5 Z"/></g>
<g><path style="opacity:1" fill="#c32a28" d="M 46.5,2.5 C 48.8568,2.33669 51.1902,2.50335 53.5,3C 55.1554,4.44425 55.822,6.27759 55.5,8.5C 56.7565,25.489 57.9231,42.489 59,59.5C 60.9349,61.7593 63.4349,62.7593 66.5,62.5C 66.5,62.8333 66.5,63.1667 66.5,63.5C 62.2984,63.1832 58.2984,63.5166 54.5,64.5C 53.8501,64.1961 53.1835,63.8627 52.5,63.5C 51.5004,43.8446 51.167,24.178 51.5,4.5C 48.2869,4.81 45.2869,4.47667 42.5,3.5C 43.7079,2.76589 45.0413,2.43255 46.5,2.5 Z"/></g>
<g><path style="opacity:1" fill="#b60302" d="M 331.5,22.5 C 328.718,23.933 325.718,25.0997 322.5,26C 320.702,28.4725 318.368,30.1392 315.5,31C 314.483,32.0495 314.316,33.2161 315,34.5C 318.434,39.7156 322.101,44.7156 326,49.5C 333.497,57.6511 341.664,64.9844 350.5,71.5C 353.085,74.789 356.085,77.6224 359.5,80C 358.167,80 356.833,80 355.5,80C 356.944,81.7635 357.944,83.7635 358.5,86C 357.953,86.9246 357.287,87.7579 356.5,88.5C 341.343,91.5606 326.01,93.3939 310.5,94C 327.81,95.2538 345.143,95.7538 362.5,95.5C 343.616,96.8631 324.616,96.5298 305.5,94.5C 302.359,93.6787 299.025,93.1787 295.5,93C 294.366,91.984 294.699,91.3173 296.5,91C 275.912,88.5275 255.245,87.3608 234.5,87.5C 245.654,86.5052 256.988,86.1719 268.5,86.5C 283.33,88.596 298.33,88.9293 313.5,87.5C 313.67,86.1779 313.337,85.0113 312.5,84C 309.382,82.107 306.049,80.7736 302.5,80C 295.174,79.5003 287.841,79.3337 280.5,79.5C 285.286,77.4011 290.286,75.5678 295.5,74C 296.357,73.3109 297.023,72.4776 297.5,71.5C 291.005,64.7697 283.005,61.1031 273.5,60.5C 273.298,58.0108 273.798,55.6775 275,53.5C 277.446,51.0414 279.946,48.7081 282.5,46.5C 290.139,43.565 297.806,40.7317 305.5,38C 306.858,35.9737 307.691,33.807 308,31.5C 314.817,26.0577 322.65,23.0577 331.5,22.5 Z"/></g>
<g><path style="opacity:1" fill="#e6625f" d="M 51.5,0.5 C 53.7879,1.07352 55.9546,2.07352 58,3.5C 58.9035,7.37245 60.0702,11.0391 61.5,14.5C 63.5135,29.0986 65.0135,43.7652 66,58.5C 67.6477,60.0284 69.6477,60.6951 72,60.5C 74.7752,60.5908 77.2752,59.9241 79.5,58.5C 78.8592,59.4822 78.1925,60.4822 77.5,61.5C 73.8927,62.4892 70.226,62.8226 66.5,62.5C 64.6964,61.6193 63.1964,60.286 62,58.5C 61.4352,50.4915 60.7686,42.4915 60,34.5C 58.8211,25.7396 57.3211,17.073 55.5,8.5C 55.822,6.27759 55.1554,4.44425 53.5,3C 51.1902,2.50335 48.8568,2.33669 46.5,2.5C 47.9303,1.46253 49.597,0.795864 51.5,0.5 Z"/></g>
<g><path style="opacity:1" fill="#d83834" d="M 350.5,18.5 C 349.41,19.8571 348.076,20.8571 346.5,21.5C 349.892,24.2491 352.725,27.5825 355,31.5C 357.307,35.5738 359.14,39.9071 360.5,44.5C 355.598,38.3741 350.932,32.0408 346.5,25.5C 338.13,22.7984 330.63,24.465 324,30.5C 323.125,31.8732 322.625,33.3732 322.5,35C 327.369,43.2087 333.703,50.2087 341.5,56C 345.203,59.3675 348.536,63.0342 351.5,67C 357.48,68.7633 362.48,72.0967 366.5,77C 369.5,78.6667 372.5,80.3333 375.5,82C 376.337,83.0113 376.67,84.1779 376.5,85.5C 371.877,84.053 367.877,81.553 364.5,78C 359.658,76.1132 354.992,73.9465 350.5,71.5C 341.664,64.9844 333.497,57.6511 326,49.5C 322.101,44.7156 318.434,39.7156 315,34.5C 314.316,33.2161 314.483,32.0495 315.5,31C 318.368,30.1392 320.702,28.4725 322.5,26C 325.718,25.0997 328.718,23.933 331.5,22.5C 337.737,20.7556 344.07,19.4223 350.5,18.5 Z"/></g>
<g><path style="opacity:0.45" fill="#cf0b00" d="M 40.5,4.5 C 40.6657,8.84611 40.499,13.1794 40,17.5C 36.1105,36.9226 32.9438,56.2559 30.5,75.5C 29.8902,76.391 29.5569,77.391 29.5,78.5C 28.6618,78.8417 28.3284,79.5084 28.5,80.5C 27.8442,79.3784 27.5108,78.0451 27.5,76.5C 30.6755,53.4548 34.1755,30.4548 38,7.5C 38.3768,6.05773 39.2101,5.05773 40.5,4.5 Z"/></g>
<g><path style="opacity:1" fill="#c30b02" d="M 402.5,89.5 C 399.545,90.1587 396.545,90.4921 393.5,90.5C 392.761,90.631 392.094,90.4643 391.5,90C 393.134,89.5065 394.801,89.3398 396.5,89.5C 399.264,88.7056 401.264,87.7056 402.5,86.5C 402.736,83.7743 401.903,81.441 400,79.5C 395.799,76.7544 391.632,73.9211 387.5,71C 386.695,69.0283 385.361,67.5283 383.5,66.5C 381.303,56.724 377.47,47.724 372,39.5C 369.956,34.5549 370.456,29.8882 373.5,25.5C 372.738,25.0894 371.738,24.9227 370.5,25C 372.652,22.5761 373.985,19.7427 374.5,16.5C 367.876,15.4027 361.542,16.4027 355.5,19.5C 352.739,20.9205 349.739,21.5871 346.5,21.5C 348.076,20.8571 349.41,19.8571 350.5,18.5C 352.896,16.8625 355.562,15.6958 358.5,15C 366.551,14.5988 374.551,13.7655 382.5,12.5C 383.167,12.8333 383.833,13.1667 384.5,13.5C 386.035,17.4372 387.368,21.4372 388.5,25.5C 385.457,29.2943 383.79,33.6276 383.5,38.5C 385.062,45.8089 386.562,53.1422 388,60.5C 389.292,69.6245 394.458,74.9578 403.5,76.5C 404.216,78.482 405.383,80.1487 407,81.5C 407.595,82.8989 407.428,84.2322 406.5,85.5C 405.119,86.8814 403.785,88.2147 402.5,89.5 Z"/></g>
<g><path style="opacity:1" fill="#d64846" d="M 55.5,8.5 C 57.3211,17.073 58.8211,25.7396 60,34.5C 60.7686,42.4915 61.4352,50.4915 62,58.5C 63.1964,60.286 64.6964,61.6193 66.5,62.5C 63.4349,62.7593 60.9349,61.7593 59,59.5C 57.9231,42.489 56.7565,25.489 55.5,8.5 Z"/></g>
<g><path style="opacity:0.901" fill="#8c0000" d="M 265.5,43.5 C 265.662,45.5273 265.495,47.5273 265,49.5C 262.284,56.8812 257.451,62.3812 250.5,66C 246.55,66.597 243.384,68.4303 241,71.5C 240.517,70.552 240.351,69.552 240.5,68.5C 243.98,65.9138 247.313,63.0804 250.5,60C 250.164,58.9701 249.497,58.4701 248.5,58.5C 253.271,52.3904 258.938,47.3904 265.5,43.5 Z"/></g>
<g><path style="opacity:1" fill="#e1130e" d="M 396.5,89.5 C 396.414,88.5041 396.748,87.6708 397.5,87C 393.095,82.7171 388.595,78.5504 384,74.5C 383.536,73.9056 383.369,73.2389 383.5,72.5C 378.067,65.0843 372.9,57.4176 368,49.5C 367.286,46.4055 366.286,43.4055 365,40.5C 361.358,34.048 357.858,27.548 354.5,21C 355.056,20.6174 355.389,20.1174 355.5,19.5C 361.542,16.4027 367.876,15.4027 374.5,16.5C 373.985,19.7427 372.652,22.5761 370.5,25C 371.738,24.9227 372.738,25.0894 373.5,25.5C 370.456,29.8882 369.956,34.5549 372,39.5C 377.47,47.724 381.303,56.724 383.5,66.5C 385.361,67.5283 386.695,69.0283 387.5,71C 391.632,73.9211 395.799,76.7544 400,79.5C 401.903,81.441 402.736,83.7743 402.5,86.5C 401.264,87.7056 399.264,88.7056 396.5,89.5 Z"/></g>
<g><path style="opacity:1" fill="#ef403a" d="M 72.5,0.5 C 78.9266,0.980379 84.9266,2.64705 90.5,5.5C 83.8984,3.90444 77.2318,3.0711 70.5,3C 74.7312,7.06209 78.7312,11.2288 82.5,15.5C 84.5924,25.7511 89.259,34.5845 96.5,42C 101.222,43.3363 105.888,44.6697 110.5,46C 107.001,47.7045 103.334,49.0378 99.5,50C 96.4874,53.5479 93.1541,56.7145 89.5,59.5C 88.6143,60.325 88.281,61.325 88.5,62.5C 86.1667,62.5 83.8333,62.5 81.5,62.5C 84.6505,60.0178 86.8172,56.6844 88,52.5C 88.6667,47.8333 88.6667,43.1667 88,38.5C 86.1372,30.9148 83.4705,23.5814 80,16.5C 77.6755,11.6763 74.1755,8.00963 69.5,5.5C 68.4125,4.00019 67.0792,2.66686 65.5,1.5C 67.7427,0.525774 70.076,0.192441 72.5,0.5 Z"/></g>
<g><path style="opacity:1" fill="#dd100d" d="M 132.5,21.5 C 138.715,22.9048 144.715,24.9048 150.5,27.5C 152.253,29.2225 154.253,30.7225 156.5,32C 171.726,38.4497 186.393,45.783 200.5,54C 203.692,57.1249 206.692,59.6249 209.5,61.5C 210.167,61.5 210.5,61.8333 210.5,62.5C 210.158,63.3382 209.492,63.6716 208.5,63.5C 206.743,62.4823 205.077,62.8156 203.5,64.5C 186.921,56.2092 170.588,47.3758 154.5,38C 144.607,35.5894 137.274,30.0894 132.5,21.5 Z"/></g>
<g><path style="opacity:1" fill="#de2b25" d="M 82.5,15.5 C 84.7496,18.3342 86.9162,21.3342 89,24.5C 89.8891,27.6865 90.7224,30.8532 91.5,34C 96.5454,37.5173 102.212,39.3507 108.5,39.5C 119.836,44.1053 131.669,47.4386 144,49.5C 148.386,51.6818 152.886,53.3485 157.5,54.5C 165.099,57.9672 172.433,61.9672 179.5,66.5C 178.277,67.6139 176.944,67.7805 175.5,67C 168.248,62.2788 160.248,60.1122 151.5,60.5C 138.263,54.9513 124.263,53.118 109.5,55C 105.331,54.6717 102.664,56.505 101.5,60.5C 99.3211,61.7567 97.3211,63.2567 95.5,65C 89.1754,65.4995 82.8421,65.6662 76.5,65.5C 74.1667,65.5 71.8333,65.5 69.5,65.5C 64.6946,64.5128 59.6946,64.1795 54.5,64.5C 58.2984,63.5166 62.2984,63.1832 66.5,63.5C 71.547,63.6625 76.547,63.3292 81.5,62.5C 83.8333,62.5 86.1667,62.5 88.5,62.5C 88.281,61.325 88.6143,60.325 89.5,59.5C 93.1541,56.7145 96.4874,53.5479 99.5,50C 103.334,49.0378 107.001,47.7045 110.5,46C 105.888,44.6697 101.222,43.3363 96.5,42C 89.259,34.5845 84.5924,25.7511 82.5,15.5 Z"/></g>
<g><path style="opacity:1" fill="#eb5854" d="M 360.5,44.5 C 361.933,46.5582 362.6,48.8915 362.5,51.5C 358.866,47.5891 355.699,43.2558 353,38.5C 350.63,35.9614 348.13,33.6281 345.5,31.5C 345.021,28.6879 343.354,27.3545 340.5,27.5C 337.5,28 334.5,28.5 331.5,29C 330.944,29.3826 330.611,29.8826 330.5,30.5C 327.459,30.3794 325.792,31.8794 325.5,35C 328.405,39.5834 331.739,43.9168 335.5,48C 351.774,59.2856 367.107,71.6189 381.5,85C 384.923,86.9039 388.59,87.7372 392.5,87.5C 392.5,86.5 392.5,85.5 392.5,84.5C 396.358,87.5493 395.524,88.8827 390,88.5C 385.532,87.4008 381.032,86.4008 376.5,85.5C 376.67,84.1779 376.337,83.0113 375.5,82C 372.5,80.3333 369.5,78.6667 366.5,77C 362.48,72.0967 357.48,68.7633 351.5,67C 348.536,63.0342 345.203,59.3675 341.5,56C 333.703,50.2087 327.369,43.2087 322.5,35C 322.625,33.3732 323.125,31.8732 324,30.5C 330.63,24.465 338.13,22.7984 346.5,25.5C 350.932,32.0408 355.598,38.3741 360.5,44.5 Z"/></g>
<g><path style="opacity:1" fill="#f02e27" d="M 355.5,19.5 C 355.389,20.1174 355.056,20.6174 354.5,21C 357.858,27.548 361.358,34.048 365,40.5C 366.286,43.4055 367.286,46.4055 368,49.5C 372.9,57.4176 378.067,65.0843 383.5,72.5C 375.244,65.4258 368.744,57.0925 364,47.5C 362.961,46.2899 361.794,45.2899 360.5,44.5C 359.14,39.9071 357.307,35.5738 355,31.5C 352.725,27.5825 349.892,24.2491 346.5,21.5C 349.739,21.5871 352.739,20.9205 355.5,19.5 Z"/></g>
<g><path style="opacity:1" fill="#9a1306" d="M 399.5,31.5 C 402.01,43.873 404.677,56.2063 407.5,68.5C 404.522,69.3051 401.522,69.6384 398.5,69.5C 396.164,68.4061 396.164,67.0728 398.5,65.5C 397.545,57.5337 396.545,49.367 395.5,41C 395.667,39.5 395.833,38 396,36.5C 396.737,34.404 397.903,32.7373 399.5,31.5 Z"/></g>
<g><path style="opacity:1" fill="#f77975" d="M 345.5,31.5 C 348.13,33.6281 350.63,35.9614 353,38.5C 355.699,43.2558 358.866,47.5891 362.5,51.5C 362.5,52.1667 362.5,52.8333 362.5,53.5C 364.906,57.1889 367.406,60.8556 370,64.5C 370.688,65.3317 370.521,65.9984 369.5,66.5C 361.839,64.6776 355.506,60.8443 350.5,55C 347.291,54.1219 344.291,52.7886 341.5,51C 338.027,47.527 334.527,44.027 331,40.5C 329.493,37.1798 329.327,33.8465 330.5,30.5C 330.611,29.8826 330.944,29.3826 331.5,29C 334.5,28.5 337.5,28 340.5,27.5C 343.354,27.3545 345.021,28.6879 345.5,31.5 Z"/></g>
<g><path style="opacity:1" fill="#fa8885" d="M 345.5,31.5 C 350.638,39.0853 355.805,46.7519 361,54.5C 362.543,56.0894 362.543,57.4228 361,58.5C 354.808,54.314 348.308,50.4807 341.5,47C 339.667,44.5 337.5,42.3333 335,40.5C 333.656,32.0707 337.156,29.0707 345.5,31.5 Z"/></g>
<g><path style="opacity:1" fill="#f25752" d="M 69.5,5.5 C 74.1755,8.00963 77.6755,11.6763 80,16.5C 83.4705,23.5814 86.1372,30.9148 88,38.5C 88.6667,43.1667 88.6667,47.8333 88,52.5C 86.8172,56.6844 84.6505,60.0178 81.5,62.5C 76.547,63.3292 71.547,63.6625 66.5,63.5C 66.5,63.1667 66.5,62.8333 66.5,62.5C 70.226,62.8226 73.8927,62.4892 77.5,61.5C 78.1925,60.4822 78.8592,59.4822 79.5,58.5C 80.5,58.5 81.5,58.5 82.5,58.5C 85.1496,45.5852 82.9829,33.5852 76,22.5C 75.6667,19.5 75.3333,16.5 75,13.5C 71.9248,11.6818 70.0915,9.01514 69.5,5.5 Z"/></g>
<g><path style="opacity:1" fill="#c30d08" d="M 151.5,60.5 C 134.558,57.5115 117.891,58.6781 101.5,64C 100.833,64.6667 100.167,65.3333 99.5,66C 95.5138,66.4988 91.5138,66.6655 87.5,66.5C 83.8333,66.5 80.1667,66.5 76.5,66.5C 76.5,66.1667 76.5,65.8333 76.5,65.5C 82.8421,65.6662 89.1754,65.4995 95.5,65C 97.3211,63.2567 99.3211,61.7567 101.5,60.5C 102.664,56.505 105.331,54.6717 109.5,55C 124.263,53.118 138.263,54.9513 151.5,60.5 Z"/></g>
<g><path style="opacity:1" fill="#ac0302" d="M 205.5,80.5 C 204.167,80.5 202.833,80.5 201.5,80.5C 193.813,77.6218 186.479,74.1218 179.5,70C 164.542,63.7467 149.542,63.4134 134.5,69C 134.833,69.3333 135.167,69.6667 135.5,70C 132.518,70.498 129.518,70.6646 126.5,70.5C 113.329,69.4329 100.329,68.0996 87.5,66.5C 91.5138,66.6655 95.5138,66.4988 99.5,66C 100.167,65.3333 100.833,64.6667 101.5,64C 117.891,58.6781 134.558,57.5115 151.5,60.5C 160.248,60.1122 168.248,62.2788 175.5,67C 176.944,67.7805 178.277,67.6139 179.5,66.5C 172.433,61.9672 165.099,57.9672 157.5,54.5C 156.032,53.1943 154.699,51.6943 153.5,50C 148.113,47.4035 142.447,45.9035 136.5,45.5C 132.904,43.5109 129.237,41.5109 125.5,39.5C 124.374,37.2069 123.041,35.0403 121.5,33C 122.609,32.3623 123.775,31.8623 125,31.5C 146.017,38.4257 165.517,48.0924 183.5,60.5C 192.23,62.862 199.23,67.6953 204.5,75C 204.056,76.7618 203.556,76.5951 203,74.5C 201.745,75.2106 200.579,76.044 199.5,77C 201.505,78.8502 203.505,80.0169 205.5,80.5 Z"/></g>
<g><path style="opacity:1" fill="#b90602" d="M 208.5,63.5 C 209.492,63.6716 210.158,63.3382 210.5,62.5C 220.832,63.1178 231.165,63.2845 241.5,63C 243.734,61.2502 246.068,59.7502 248.5,58.5C 249.497,58.4701 250.164,58.9701 250.5,60C 247.313,63.0804 243.98,65.9138 240.5,68.5C 240.167,68.5 239.833,68.5 239.5,68.5C 229.091,67.5071 218.091,67.5071 206.5,68.5C 205.415,71.773 205.248,75.1064 206,78.5C 207.481,79.4709 208.315,80.8042 208.5,82.5C 207.5,81.8333 206.5,81.1667 205.5,80.5C 203.505,80.0169 201.505,78.8502 199.5,77C 200.579,76.044 201.745,75.2106 203,74.5C 203.556,76.5951 204.056,76.7618 204.5,75C 199.23,67.6953 192.23,62.862 183.5,60.5C 165.517,48.0924 146.017,38.4257 125,31.5C 123.775,31.8623 122.609,32.3623 121.5,33C 123.041,35.0403 124.374,37.2069 125.5,39.5C 129.237,41.5109 132.904,43.5109 136.5,45.5C 131.748,44.8134 127.081,43.4801 122.5,41.5C 120.536,36.8255 118.203,32.3255 115.5,28C 116,27.5 116.5,27 117,26.5C 124.948,29.7245 133.115,32.2245 141.5,34C 157.427,43.1304 173.761,51.4637 190.5,59C 195.12,62.5339 199.953,65.7005 205,68.5C 205.997,66.6769 207.164,65.0103 208.5,63.5 Z"/></g>
<g><path style="opacity:1" fill="#650000" d="M 76.5,66.5 C 80.1667,66.5 83.8333,66.5 87.5,66.5C 100.329,68.0996 113.329,69.4329 126.5,70.5C 142.84,72.3089 159.173,74.9755 175.5,78.5C 174.378,79.1558 173.045,79.4892 171.5,79.5C 144.977,78.9664 118.477,77.9664 92,76.5C 90.8926,76.5852 89.8926,76.9186 89,77.5C 80.8912,76.2642 72.7245,75.0975 64.5,74C 62.2827,72.7246 59.9494,71.7246 57.5,71C 58.9494,69.883 60.6161,69.2163 62.5,69C 69.5,68.6667 76.5,68.3333 83.5,68C 79.5,67.6667 75.5,67.3333 71.5,67C 73.1341,66.5065 74.8008,66.3398 76.5,66.5 Z"/></g>
<g><path style="opacity:1" fill="#730000" d="M 69.5,65.5 C 71.8333,65.5 74.1667,65.5 76.5,65.5C 76.5,65.8333 76.5,66.1667 76.5,66.5C 74.8008,66.3398 73.1341,66.5065 71.5,67C 75.5,67.3333 79.5,67.6667 83.5,68C 76.5,68.3333 69.5,68.6667 62.5,69C 60.6161,69.2163 58.9494,69.883 57.5,71C 59.9494,71.7246 62.2827,72.7246 64.5,74C 72.7245,75.0975 80.8912,76.2642 89,77.5C 89.8926,76.9186 90.8926,76.5852 92,76.5C 118.477,77.9664 144.977,78.9664 171.5,79.5C 173.045,79.4892 174.378,79.1558 175.5,78.5C 175.833,78.5 176.167,78.5 176.5,78.5C 179.568,79.0218 182.568,79.8551 185.5,81C 184.207,81.49 182.873,81.6567 181.5,81.5C 155.098,80.8291 128.598,80.1625 102,79.5C 98.4257,80.4408 94.759,81.1075 91,81.5C 71.2923,80.6295 51.4589,80.2962 31.5,80.5C 30.1667,80.5 29.5,79.8333 29.5,78.5C 29.5569,77.391 29.8902,76.391 30.5,75.5C 33.4629,72.0486 37.1296,69.5486 41.5,68C 50.7275,66.0066 60.0609,65.1732 69.5,65.5 Z"/></g>
<g><path style="opacity:1" fill="#8c0000" d="M 201.5,80.5 C 202.091,81.1515 202.757,81.8182 203.5,82.5C 202.833,82.8333 202.167,83.1667 201.5,83.5C 194.972,81.1574 188.306,79.324 181.5,78C 179.613,77.2204 177.946,77.3871 176.5,78.5C 176.167,78.5 175.833,78.5 175.5,78.5C 159.173,74.9755 142.84,72.3089 126.5,70.5C 129.518,70.6646 132.518,70.498 135.5,70C 135.167,69.6667 134.833,69.3333 134.5,69C 149.542,63.4134 164.542,63.7467 179.5,70C 186.479,74.1218 193.813,77.6218 201.5,80.5 Z"/></g>
<g><path style="opacity:1" fill="#7f0101" d="M 247.5,82.5 C 242.362,82.4335 237.362,83.1002 232.5,84.5C 232.738,82.5956 233.738,81.2623 235.5,80.5C 238.844,79.4925 242.177,78.4925 245.5,77.5C 253.909,74.4209 262.243,71.2542 270.5,68C 275.167,67.3333 279.833,67.3333 284.5,68C 289.669,70.467 289.669,72.8003 284.5,75C 272.223,78.1072 259.89,80.6072 247.5,82.5 Z"/></g>
<g><path style="opacity:1" fill="#f96e6a" d="M 330.5,30.5 C 329.327,33.8465 329.493,37.1798 331,40.5C 334.527,44.027 338.027,47.527 341.5,51C 344.291,52.7886 347.291,54.1219 350.5,55C 355.506,60.8443 361.839,64.6776 369.5,66.5C 370.521,65.9984 370.688,65.3317 370,64.5C 367.406,60.8556 364.906,57.1889 362.5,53.5C 372.445,63.7801 382.445,74.1134 392.5,84.5C 392.5,85.5 392.5,86.5 392.5,87.5C 388.59,87.7372 384.923,86.9039 381.5,85C 367.107,71.6189 351.774,59.2856 335.5,48C 331.739,43.9168 328.405,39.5834 325.5,35C 325.792,31.8794 327.459,30.3794 330.5,30.5 Z"/></g>
<g><path style="opacity:1" fill="#f4392a" d="M 239.5,68.5 C 239.5,69.1667 239.5,69.8333 239.5,70.5C 238.5,70.5 237.5,70.5 236.5,70.5C 236.5,72.1667 236.5,73.8333 236.5,75.5C 239.011,75.162 241.345,75.162 243.5,75.5C 240.531,76.8068 237.865,78.4735 235.5,80.5C 233.738,81.2623 232.738,82.5956 232.5,84.5C 231.833,84.5 231.5,84.8333 231.5,85.5C 231.167,85.5 230.833,85.5 230.5,85.5C 230.703,83.6096 230.037,82.1096 228.5,81C 226.546,80.8382 224.879,80.6715 223.5,80.5C 223.649,79.448 223.483,78.448 223,77.5C 221.302,80.1899 219.302,82.5232 217,84.5C 214.361,83.0056 211.528,82.3389 208.5,82.5C 208.315,80.8042 207.481,79.4709 206,78.5C 205.248,75.1064 205.415,71.773 206.5,68.5C 218.091,67.5071 229.091,67.5071 239.5,68.5 Z"/></g>
<g><path style="opacity:1" fill="#c81f0d" d="M 245.5,77.5 C 242.177,78.4925 238.844,79.4925 235.5,80.5C 237.865,78.4735 240.531,76.8068 243.5,75.5C 241.345,75.162 239.011,75.162 236.5,75.5C 236.5,73.8333 236.5,72.1667 236.5,70.5C 237.5,70.5 238.5,70.5 239.5,70.5C 239.5,71.5 239.5,72.5 239.5,73.5C 244.251,71.2702 248.918,68.7702 253.5,66C 255.218,65.654 256.885,65.154 258.5,64.5C 261.758,65.7365 261.758,67.5698 258.5,70C 253.883,72.2371 249.55,74.7371 245.5,77.5 Z"/></g>
<g><path style="opacity:1" fill="#f34e48" d="M 360.5,44.5 C 361.794,45.2899 362.961,46.2899 364,47.5C 368.744,57.0925 375.244,65.4258 383.5,72.5C 383.369,73.2389 383.536,73.9056 384,74.5C 388.595,78.5504 393.095,82.7171 397.5,87C 396.748,87.6708 396.414,88.5041 396.5,89.5C 394.801,89.3398 393.134,89.5065 391.5,90C 392.094,90.4643 392.761,90.631 393.5,90.5C 392.791,91.404 391.791,91.7373 390.5,91.5C 390.167,91.5 389.833,91.5 389.5,91.5C 384.493,91.0491 380.159,89.0491 376.5,85.5C 381.032,86.4008 385.532,87.4008 390,88.5C 395.524,88.8827 396.358,87.5493 392.5,84.5C 382.445,74.1134 372.445,63.7801 362.5,53.5C 362.5,52.8333 362.5,52.1667 362.5,51.5C 362.6,48.8915 361.933,46.5582 360.5,44.5 Z"/></g>
<g><path style="opacity:1" fill="#ce0f0a" d="M 280.5,79.5 C 287.841,79.3337 295.174,79.5003 302.5,80C 306.049,80.7736 309.382,82.107 312.5,84C 313.337,85.0113 313.67,86.1779 313.5,87.5C 298.33,88.9293 283.33,88.596 268.5,86.5C 279.505,86.6665 290.505,86.4998 301.5,86C 302.308,85.6924 302.975,85.1924 303.5,84.5C 302.335,83.4164 301.002,82.5831 299.5,82C 276.801,82.3352 254.134,83.5019 231.5,85.5C 231.5,84.8333 231.833,84.5 232.5,84.5C 237.362,83.1002 242.362,82.4335 247.5,82.5C 258.507,81.5944 269.507,80.5944 280.5,79.5 Z"/></g>
<g><path style="opacity:1" fill="#da0e07" d="M 223.5,80.5 C 224.879,80.6715 226.546,80.8382 228.5,81C 230.037,82.1096 230.703,83.6096 230.5,85.5C 229.188,86.1451 228.188,87.1451 227.5,88.5C 223.956,90.1373 221.956,88.9706 221.5,85C 221.525,83.124 222.191,81.624 223.5,80.5 Z"/></g>
<g><path style="opacity:1" fill="#b00000" d="M 176.5,83.5 C 161.909,85.6545 147.243,88.1545 132.5,91C 122.337,91.57 112.17,92.07 102,92.5C 82.1513,91.0804 62.318,89.4137 42.5,87.5C 41.8333,87.6667 41.1667,87.8333 40.5,88C 42.2331,89.1889 43.8998,90.3556 45.5,91.5C 41.6978,90.6803 38.3645,89.0136 35.5,86.5C 35.0472,85.5416 34.3805,84.7083 33.5,84C 44.5023,84.5723 55.5023,85.5723 66.5,87C 81.6007,87.1059 96.6007,87.9392 111.5,89.5C 133.183,87.581 154.849,85.581 176.5,83.5 Z"/></g>
<g><path style="opacity:1" fill="#e3160e" d="M 268.5,86.5 C 256.988,86.1719 245.654,86.5052 234.5,87.5C 232.517,87.8432 231.183,87.1765 230.5,85.5C 230.833,85.5 231.167,85.5 231.5,85.5C 254.134,83.5019 276.801,82.3352 299.5,82C 301.002,82.5831 302.335,83.4164 303.5,84.5C 302.975,85.1924 302.308,85.6924 301.5,86C 290.505,86.4998 279.505,86.6665 268.5,86.5 Z"/></g>
<g><path style="opacity:1" fill="#c40906" d="M 176.5,83.5 C 183.841,83.3337 191.174,83.5003 198.5,84C 199.833,84.6667 199.833,85.3333 198.5,86C 197.207,86.49 195.873,86.6567 194.5,86.5C 194.389,85.8826 194.056,85.3826 193.5,85C 182.767,84.4603 172.1,85.127 161.5,87C 150.066,91.4785 138.399,95.1451 126.5,98C 128.473,98.4955 130.473,98.6621 132.5,98.5C 103.169,101.586 74.1688,99.2529 45.5,91.5C 43.8998,90.3556 42.2331,89.1889 40.5,88C 41.1667,87.8333 41.8333,87.6667 42.5,87.5C 62.318,89.4137 82.1513,91.0804 102,92.5C 112.17,92.07 122.337,91.57 132.5,91C 147.243,88.1545 161.909,85.6545 176.5,83.5 Z"/></g>
<g><path style="opacity:1" fill="#d20100" d="M 194.5,86.5 C 190.418,87.2488 186.418,88.2488 182.5,89.5C 166.425,92.7323 150.425,95.7323 134.5,98.5C 133.833,98.5 133.167,98.5 132.5,98.5C 130.473,98.6621 128.473,98.4955 126.5,98C 138.399,95.1451 150.066,91.4785 161.5,87C 172.1,85.127 182.767,84.4603 193.5,85C 194.056,85.3826 194.389,85.8826 194.5,86.5 Z"/></g>
<g><path style="opacity:1" fill="#cc1108" d="M 350.5,71.5 C 354.992,73.9465 359.658,76.1132 364.5,78C 367.877,81.553 371.877,84.053 376.5,85.5C 380.159,89.0491 384.493,91.0491 389.5,91.5C 382.682,92.0949 376.015,93.0949 369.5,94.5C 367.585,94.2155 365.919,94.5489 364.5,95.5C 363.833,95.5 363.167,95.5 362.5,95.5C 345.143,95.7538 327.81,95.2538 310.5,94C 326.01,93.3939 341.343,91.5606 356.5,88.5C 357.287,87.7579 357.953,86.9246 358.5,86C 357.944,83.7635 356.944,81.7635 355.5,80C 356.833,80 358.167,80 359.5,80C 356.085,77.6224 353.085,74.789 350.5,71.5 Z"/></g>
<g><path style="opacity:1" fill="#ebeaea" d="M 414.5,84.5 C 432.176,84.4301 449.843,84.7634 467.5,85.5C 467.5,86.5 467.5,87.5 467.5,88.5C 458.208,90.7828 449.208,93.9495 440.5,98C 438.527,98.4955 436.527,98.6621 434.5,98.5C 434.262,96.5956 433.262,95.2623 431.5,94.5C 424.687,93.5088 417.687,93.1755 410.5,93.5C 404.185,92.8905 397.851,92.5572 391.5,92.5C 390.833,92.5 390.5,92.1667 390.5,91.5C 391.791,91.7373 392.791,91.404 393.5,90.5C 396.545,90.4921 399.545,90.1587 402.5,89.5C 407.087,88.9787 411.087,87.312 414.5,84.5 Z"/></g>
<g><path style="opacity:1" fill="#9b0100" d="M 176.5,78.5 C 177.946,77.3871 179.613,77.2204 181.5,78C 188.306,79.324 194.972,81.1574 201.5,83.5C 202.167,83.1667 202.833,82.8333 203.5,82.5C 202.757,81.8182 202.091,81.1515 201.5,80.5C 202.833,80.5 204.167,80.5 205.5,80.5C 206.5,81.1667 207.5,81.8333 208.5,82.5C 211.528,82.3389 214.361,83.0056 217,84.5C 219.302,82.5232 221.302,80.1899 223,77.5C 223.483,78.448 223.649,79.448 223.5,80.5C 222.191,81.624 221.525,83.124 221.5,85C 221.956,88.9706 223.956,90.1373 227.5,88.5C 228.188,87.1451 229.188,86.1451 230.5,85.5C 231.183,87.1765 232.517,87.8432 234.5,87.5C 255.245,87.3608 275.912,88.5275 296.5,91C 294.699,91.3173 294.366,91.984 295.5,93C 299.025,93.1787 302.359,93.6787 305.5,94.5C 302.287,94.19 299.287,94.5233 296.5,95.5C 291.417,93.7847 286.084,92.7847 280.5,92.5C 266.001,89.8145 252.001,91.6478 238.5,98C 234.288,98.2215 230.288,98.3882 226.5,98.5C 225.599,97.7095 224.932,96.7095 224.5,95.5C 224.953,94.5416 225.619,93.7083 226.5,93C 222.795,91.3006 220.628,88.4672 220,84.5C 217.541,87.1003 215.041,87.1003 212.5,84.5C 209.273,84.6549 205.94,84.8216 202.5,85C 202.167,85.3333 201.833,85.6667 201.5,86C 208.038,86.4407 214.371,87.774 220.5,90C 221.357,90.6891 222.023,91.5224 222.5,92.5C 221.291,94.9408 219.624,96.9408 217.5,98.5C 217.586,97.5041 217.252,96.6708 216.5,96C 214.616,95.7837 212.949,95.117 211.5,94C 201.167,93.6667 190.833,93.3333 180.5,93C 180.043,92.586 179.709,92.086 179.5,91.5C 180.602,90.8243 181.602,90.1577 182.5,89.5C 186.418,88.2488 190.418,87.2488 194.5,86.5C 195.873,86.6567 197.207,86.49 198.5,86C 199.833,85.3333 199.833,84.6667 198.5,84C 191.174,83.5003 183.841,83.3337 176.5,83.5C 154.849,85.581 133.183,87.581 111.5,89.5C 96.6007,87.9392 81.6007,87.1059 66.5,87C 55.5023,85.5723 44.5023,84.5723 33.5,84C 34.3805,84.7083 35.0472,85.5416 35.5,86.5C 32.5726,85.2427 30.2393,83.2427 28.5,80.5C 28.3284,79.5084 28.6618,78.8417 29.5,78.5C 29.5,79.8333 30.1667,80.5 31.5,80.5C 65.8139,84.3217 100.147,84.8217 134.5,82C 150.163,81.5001 165.83,81.3334 181.5,81.5C 182.873,81.6567 184.207,81.49 185.5,81C 182.568,79.8551 179.568,79.0218 176.5,78.5 Z"/></g>
<g><path style="opacity:1" fill="#820000" d="M 181.5,81.5 C 165.83,81.3334 150.163,81.5001 134.5,82C 100.147,84.8217 65.8139,84.3217 31.5,80.5C 51.4589,80.2962 71.2923,80.6295 91,81.5C 94.759,81.1075 98.4257,80.4408 102,79.5C 128.598,80.1625 155.098,80.8291 181.5,81.5 Z"/></g>
<g><path style="opacity:1" fill="#cb0203" d="M 280.5,92.5 C 277.15,92.335 273.817,92.5017 270.5,93C 273.447,93.1118 274.78,94.6118 274.5,97.5C 261.055,101.644 247.055,104.977 232.5,107.5C 231.167,105.5 229.833,103.5 228.5,101.5C 228.5,100.833 228.167,100.5 227.5,100.5C 227.167,99.8333 226.833,99.1667 226.5,98.5C 230.288,98.3882 234.288,98.2215 238.5,98C 252.001,91.6478 266.001,89.8145 280.5,92.5 Z"/></g>
<g><path style="opacity:1" fill="#79130b" d="M 389.5,91.5 C 389.833,91.5 390.167,91.5 390.5,91.5C 390.5,92.1667 390.833,92.5 391.5,92.5C 391.586,93.4959 391.252,94.3292 390.5,95C 386.8,96.2077 383.467,98.041 380.5,100.5C 376.56,101.855 372.56,103.022 368.5,104C 369.056,104.383 369.389,104.883 369.5,105.5C 362.167,105.167 354.833,104.833 347.5,104.5C 356.58,103.648 365.58,101.815 374.5,99C 377.362,98.0695 379.695,96.4029 381.5,94C 379.833,93.3333 378.167,93.3333 376.5,94C 377.696,94.6543 377.696,95.1543 376.5,95.5C 374.253,94.6258 371.92,94.2924 369.5,94.5C 376.015,93.0949 382.682,92.0949 389.5,91.5 Z"/></g>
<g><path style="opacity:0.975" fill="#bababa" d="M 467.5,88.5 C 467.174,96.6841 467.508,104.684 468.5,112.5C 468.5,123.167 468.5,133.833 468.5,144.5C 467.833,144.833 467.167,145.167 466.5,145.5C 466.681,141.498 465.015,139.998 461.5,141C 463.515,139.445 463.848,137.611 462.5,135.5C 453.825,139.591 445.659,144.591 438,150.5C 437.333,156.167 437.333,161.833 438,167.5C 440.616,166.347 443.282,165.347 446,164.5C 447.624,166.158 449.291,167.825 451,169.5C 452.943,167.434 455.109,167.101 457.5,168.5C 459.3,168.098 460.967,167.431 462.5,166.5C 462.5,168.833 462.5,171.167 462.5,173.5C 457.527,176.321 452.527,179.155 447.5,182C 446.751,183.734 446.251,185.567 446,187.5C 443.995,189.8 441.828,189.8 439.5,187.5C 438.702,185.922 438.202,184.256 438,182.5C 437.5,189.492 437.334,196.492 437.5,203.5C 436.068,168.671 435.068,133.671 434.5,98.5C 436.527,98.6621 438.527,98.4955 440.5,98C 449.208,93.9495 458.208,90.7828 467.5,88.5 Z"/></g>
<g><path style="opacity:1" fill="#b80101" d="M 182.5,89.5 C 181.602,90.1577 180.602,90.8243 179.5,91.5C 179.709,92.086 180.043,92.586 180.5,93C 190.833,93.3333 201.167,93.6667 211.5,94C 212.949,95.117 214.616,95.7837 216.5,96C 217.252,96.6708 217.586,97.5041 217.5,98.5C 216.694,99.7281 215.694,100.728 214.5,101.5C 213.5,102.167 212.5,102.833 211.5,103.5C 208.713,101.795 209.046,100.628 212.5,100C 209.158,98.0068 205.824,98.1734 202.5,100.5C 197.319,99.5533 192.153,98.5533 187,97.5C 178.344,98.804 169.678,98.804 161,97.5C 157.176,98.2206 153.343,98.8873 149.5,99.5C 144.84,98.3868 140.173,98.3868 135.5,99.5C 135.5,98.8333 135.167,98.5 134.5,98.5C 150.425,95.7323 166.425,92.7323 182.5,89.5 Z"/></g>
<g><path style="opacity:1" fill="#84160a" d="M 224.5,95.5 C 223.539,97.2646 223.205,99.2646 223.5,101.5C 225.099,101.768 226.432,101.434 227.5,100.5C 228.167,100.5 228.5,100.833 228.5,101.5C 223.939,103.701 219.272,103.701 214.5,101.5C 215.694,100.728 216.694,99.7281 217.5,98.5C 219.624,96.9408 221.291,94.9408 222.5,92.5C 222.023,91.5224 221.357,90.6891 220.5,90C 214.371,87.774 208.038,86.4407 201.5,86C 201.833,85.6667 202.167,85.3333 202.5,85C 205.94,84.8216 209.273,84.6549 212.5,84.5C 215.041,87.1003 217.541,87.1003 220,84.5C 220.628,88.4672 222.795,91.3006 226.5,93C 225.619,93.7083 224.953,94.5416 224.5,95.5 Z"/></g>
<g><path style="opacity:1" fill="#410300" d="M 296.5,95.5 C 299.287,94.5233 302.287,94.19 305.5,94.5C 324.616,96.5298 343.616,96.8631 362.5,95.5C 363.167,95.5 363.833,95.5 364.5,95.5C 365.873,95.3433 367.207,95.51 368.5,96C 364.755,98.2038 360.755,99.8705 356.5,101C 339.384,102.03 322.384,101.197 305.5,98.5C 304.583,99.1272 303.583,99.4606 302.5,99.5C 300.5,98.1667 298.5,96.8333 296.5,95.5 Z"/></g>
<g><path style="opacity:1" fill="#912010" d="M 45.5,91.5 C 74.1688,99.2529 103.169,101.586 132.5,98.5C 133.167,98.5 133.833,98.5 134.5,98.5C 135.167,98.5 135.5,98.8333 135.5,99.5C 133.326,99.7497 131.659,100.75 130.5,102.5C 130.167,102.5 129.833,102.5 129.5,102.5C 118.679,101.505 107.679,101.172 96.5,101.5C 90.5,101.5 84.5,101.5 78.5,101.5C 68.8227,101.195 59.156,101.028 49.5,101C 47.3083,101.926 45.3083,103.093 43.5,104.5C 44.2543,101.909 45.921,100.076 48.5,99C 51.0891,97.8035 53.7558,96.8035 56.5,96C 52.6572,94.6389 48.9906,93.1389 45.5,91.5 Z"/></g>
<g><path style="opacity:1" fill="#425a5a" d="M 224.5,95.5 C 224.932,96.7095 225.599,97.7095 226.5,98.5C 226.833,99.1667 227.167,99.8333 227.5,100.5C 226.432,101.434 225.099,101.768 223.5,101.5C 223.205,99.2646 223.539,97.2646 224.5,95.5 Z"/></g>
<g><path style="opacity:1" fill="#d23e28" d="M 418.5,95.5 C 422.846,95.3343 427.179,95.501 431.5,96C 432.337,97.0113 432.67,98.1779 432.5,99.5C 423.049,102.529 413.716,105.862 404.5,109.5C 402.238,108.655 401.571,107.322 402.5,105.5C 400.604,104.534 398.604,104.201 396.5,104.5C 403.641,101.117 410.975,98.1172 418.5,95.5 Z"/></g>
<g><path style="opacity:1" fill="#ea0a0f" d="M 280.5,92.5 C 286.084,92.7847 291.417,93.7847 296.5,95.5C 298.5,96.8333 300.5,98.1667 302.5,99.5C 304.475,101.137 306.475,102.804 308.5,104.5C 309.5,104.833 310.167,105.5 310.5,106.5C 295.902,110.277 281.068,112.611 266,113.5C 262.349,113.234 258.849,112.401 255.5,111C 256.167,110.667 256.833,110.333 257.5,110C 251.249,104.175 244.915,104.009 238.5,109.5C 240.051,112.359 241.051,115.359 241.5,118.5C 240.604,117.494 239.938,117.494 239.5,118.5C 238.5,118.167 237.833,117.5 237.5,116.5C 236.066,113.953 234.4,111.619 232.5,109.5C 232.5,108.833 232.5,108.167 232.5,107.5C 247.055,104.977 261.055,101.644 274.5,97.5C 274.78,94.6118 273.447,93.1118 270.5,93C 273.817,92.5017 277.15,92.335 280.5,92.5 Z"/></g>
<g><path style="opacity:1" fill="#ae2416" d="M 410.5,93.5 C 417.687,93.1755 424.687,93.5088 431.5,94.5C 426.968,94.1818 422.634,94.5151 418.5,95.5C 410.975,98.1172 403.641,101.117 396.5,104.5C 394.143,104.337 391.81,104.503 389.5,105C 390.416,105.278 391.082,105.778 391.5,106.5C 388.833,106.5 386.167,106.5 383.5,106.5C 380.375,105.521 377.042,105.187 373.5,105.5C 373.389,104.883 373.056,104.383 372.5,104C 379.724,104.614 386.057,102.614 391.5,98C 397.889,96.135 404.222,94.635 410.5,93.5 Z"/></g>
<g><path style="opacity:1" fill="#c7c9c9" d="M 78.5,101.5 C 84.5,101.5 90.5,101.5 96.5,101.5C 97.4831,102.85 98.8164,103.85 100.5,104.5C 104.841,105.293 109.007,106.627 113,108.5C 114.984,108.259 116.817,107.592 118.5,106.5C 119.107,106.624 119.44,106.957 119.5,107.5C 114.833,110.167 110.167,112.833 105.5,115.5C 95.7805,112.475 86.1138,108.975 76.5,105C 76.0426,104.586 75.7093,104.086 75.5,103.5C 76.6016,102.824 77.6016,102.158 78.5,101.5 Z"/></g>
<g><path style="opacity:1" fill="#d70909" d="M 211.5,103.5 C 205.177,108.491 199.177,113.824 193.5,119.5C 193.167,119.5 192.833,119.5 192.5,119.5C 189.393,120.553 186.393,121.886 183.5,123.5C 186.452,121.215 189.118,118.548 191.5,115.5C 193.381,113.039 193.381,110.872 191.5,109C 188.5,108.333 185.5,108.333 182.5,109C 178.563,110.151 174.563,110.984 170.5,111.5C 165.706,110.019 160.872,108.686 156,107.5C 149.634,108.319 143.301,108.652 137,108.5C 134.087,106.75 130.92,105.583 127.5,105C 128.942,104.623 129.942,103.79 130.5,102.5C 131.659,100.75 133.326,99.7497 135.5,99.5C 140.173,98.3868 144.84,98.3868 149.5,99.5C 153.343,98.8873 157.176,98.2206 161,97.5C 169.678,98.804 178.344,98.804 187,97.5C 192.153,98.5533 197.319,99.5533 202.5,100.5C 205.824,98.1734 209.158,98.0068 212.5,100C 209.046,100.628 208.713,101.795 211.5,103.5 Z"/></g>
<g><path style="opacity:1" fill="#5d0a06" d="M 347.5,104.5 C 344.833,104.5 342.167,104.5 339.5,104.5C 329.167,103.167 318.833,103.167 308.5,104.5C 306.475,102.804 304.475,101.137 302.5,99.5C 303.583,99.4606 304.583,99.1272 305.5,98.5C 322.384,101.197 339.384,102.03 356.5,101C 360.755,99.8705 364.755,98.2038 368.5,96C 367.207,95.51 365.873,95.3433 364.5,95.5C 365.919,94.5489 367.585,94.2155 369.5,94.5C 371.92,94.2924 374.253,94.6258 376.5,95.5C 377.696,95.1543 377.696,94.6543 376.5,94C 378.167,93.3333 379.833,93.3333 381.5,94C 379.695,96.4029 377.362,98.0695 374.5,99C 365.58,101.815 356.58,103.648 347.5,104.5 Z"/></g>
<g><path style="opacity:1" fill="#8d140b" d="M 391.5,92.5 C 397.851,92.5572 404.185,92.8905 410.5,93.5C 404.222,94.635 397.889,96.135 391.5,98C 386.057,102.614 379.724,104.614 372.5,104C 373.056,104.383 373.389,104.883 373.5,105.5C 372.167,105.5 370.833,105.5 369.5,105.5C 369.389,104.883 369.056,104.383 368.5,104C 372.56,103.022 376.56,101.855 380.5,100.5C 383.467,98.041 386.8,96.2077 390.5,95C 391.252,94.3292 391.586,93.4959 391.5,92.5 Z"/></g>
<g><path style="opacity:1" fill="#9d1706" d="M 214.5,101.5 C 219.272,103.701 223.939,103.701 228.5,101.5C 229.833,103.5 231.167,105.5 232.5,107.5C 232.5,108.167 232.5,108.833 232.5,109.5C 221.718,112.507 211.051,115.507 200.5,118.5C 198.833,119.833 197.167,121.167 195.5,122.5C 194.449,121.778 193.782,120.778 193.5,119.5C 199.177,113.824 205.177,108.491 211.5,103.5C 212.5,102.833 213.5,102.167 214.5,101.5 Z"/></g>
<g><path style="opacity:1" fill="#ca1701" d="M 418.5,95.5 C 422.634,94.5151 426.968,94.1818 431.5,94.5C 433.262,95.2623 434.262,96.5956 434.5,98.5C 435.068,133.671 436.068,168.671 437.5,203.5C 437.516,241.847 438.182,280.18 439.5,318.5C 439.173,328.348 439.506,338.014 440.5,347.5C 440.483,349.565 440.15,351.565 439.5,353.5C 437.199,354.06 434.866,354.56 432.5,355C 426.235,360.439 419.568,365.272 412.5,369.5C 410.527,307.799 407.861,246.132 404.5,184.5C 404.824,177.646 404.491,170.979 403.5,164.5C 403.273,145.992 402.607,127.659 401.5,109.5C 400.942,108.21 399.942,107.377 398.5,107C 396.19,106.503 393.857,106.337 391.5,106.5C 391.082,105.778 390.416,105.278 389.5,105C 391.81,104.503 394.143,104.337 396.5,104.5C 398.604,104.201 400.604,104.534 402.5,105.5C 401.571,107.322 402.238,108.655 404.5,109.5C 413.716,105.862 423.049,102.529 432.5,99.5C 432.67,98.1779 432.337,97.0113 431.5,96C 427.179,95.501 422.846,95.3343 418.5,95.5 Z"/></g>
<g><path style="opacity:1" fill="#9c9e9e" d="M 96.5,101.5 C 107.679,101.172 118.679,101.505 129.5,102.5C 126.167,104.167 122.833,105.833 119.5,107.5C 119.44,106.957 119.107,106.624 118.5,106.5C 116.817,107.592 114.984,108.259 113,108.5C 109.007,106.627 104.841,105.293 100.5,104.5C 98.8164,103.85 97.4831,102.85 96.5,101.5 Z"/></g>
<g><path style="opacity:1" fill="#8b8c8b" d="M 308.5,104.5 C 318.833,103.167 329.167,103.167 339.5,104.5C 336.15,104.335 332.817,104.502 329.5,105C 333.211,105.175 336.878,105.675 340.5,106.5C 334.297,108.634 327.964,110.301 321.5,111.5C 320.287,111.747 319.62,112.414 319.5,113.5C 316.786,110.785 313.786,108.451 310.5,106.5C 310.167,105.5 309.5,104.833 308.5,104.5 Z"/></g>
<g><path style="opacity:1" fill="#aeaeae" d="M 339.5,104.5 C 342.167,104.5 344.833,104.5 347.5,104.5C 354.833,104.833 362.167,105.167 369.5,105.5C 370.833,105.5 372.167,105.5 373.5,105.5C 377.042,105.187 380.375,105.521 383.5,106.5C 370.183,106.669 370.183,107.169 383.5,108C 380.343,109.578 377.009,110.578 373.5,111C 358.181,112.974 342.848,114.807 327.5,116.5C 325.519,116.563 323.852,115.896 322.5,114.5C 321.893,114.624 321.56,114.957 321.5,115.5C 321.167,115.5 320.833,115.5 320.5,115.5C 320.167,114.833 319.833,114.167 319.5,113.5C 319.62,112.414 320.287,111.747 321.5,111.5C 327.964,110.301 334.297,108.634 340.5,106.5C 336.878,105.675 333.211,105.175 329.5,105C 332.817,104.502 336.15,104.335 339.5,104.5 Z"/></g>
<g><path style="opacity:1" fill="#c1c1c1" d="M 401.5,109.5 C 402.607,127.659 403.273,145.992 403.5,164.5C 403.666,168.846 403.499,173.179 403,177.5C 397.912,180.294 392.745,182.961 387.5,185.5C 386.824,184.398 386.158,183.398 385.5,182.5C 385.5,181.833 385.167,181.5 384.5,181.5C 377.728,175.069 371.728,168.069 366.5,160.5C 366.267,158.938 365.6,157.605 364.5,156.5C 366.683,149.132 369.183,141.798 372,134.5C 377.087,129.583 381.921,124.583 386.5,119.5C 390.632,115.9 395.298,113.234 400.5,111.5C 401.298,111.043 401.631,110.376 401.5,109.5 Z"/></g>
<g><path style="opacity:1" fill="#aaabab" d="M 232.5,109.5 C 234.4,111.619 236.066,113.953 237.5,116.5C 227.579,118.26 217.413,119.26 207,119.5C 204.784,119.347 202.617,119.014 200.5,118.5C 211.051,115.507 221.718,112.507 232.5,109.5 Z"/></g>
<g><path style="opacity:1" fill="#fd6d69" d="M 320.5,115.5 C 320.833,115.5 321.167,115.5 321.5,115.5C 324.833,118.5 328.167,121.5 331.5,124.5C 331.5,124.833 331.5,125.167 331.5,125.5C 331.414,126.496 331.748,127.329 332.5,128C 328.051,127.932 323.551,127.765 319,127.5C 308.969,129.375 298.802,130.375 288.5,130.5C 283.833,130.333 279.167,130.167 274.5,130C 273.04,128.418 271.373,127.085 269.5,126C 268.294,123.291 269.294,121.625 272.5,121C 288.582,118.677 304.582,116.843 320.5,115.5 Z"/></g>
<g><path style="opacity:1" fill="#e0e1e1" d="M 239.5,119.5 C 240.167,120.5 240.833,121.5 241.5,122.5C 240.957,122.56 240.624,122.893 240.5,123.5C 241.833,124.62 242.333,125.953 242,127.5C 230.604,124.711 219.104,124.211 207.5,126C 206.128,127.242 205.128,128.742 204.5,130.5C 206.532,133.368 208.365,136.368 210,139.5C 212.602,150.083 215.268,160.75 218,171.5C 218.667,172.167 219.333,172.833 220,173.5C 220.828,177.466 221.328,181.466 221.5,185.5C 244.826,187.01 268.16,188.676 291.5,190.5C 293.759,190.468 295.925,190.134 298,189.5C 300.04,191.37 301.873,193.37 303.5,195.5C 275.171,194.084 246.838,192.75 218.5,191.5C 217.391,190.71 216.058,190.21 214.5,190C 215.167,189.667 215.833,189.333 216.5,189C 213.572,187.74 211.739,185.573 211,182.5C 209.073,167.601 206.073,152.934 202,138.5C 199.734,135.007 198.4,131.34 198,127.5C 199.613,125.223 201.78,123.723 204.5,123C 216.167,122.667 227.833,122.333 239.5,122C 238.226,121.023 238.226,120.189 239.5,119.5 Z"/></g>
<g><path style="opacity:1" fill="#ececec" d="M 241.5,122.5 C 246.787,130.75 252.787,138.416 259.5,145.5C 271.432,160.101 284.432,173.768 298.5,186.5C 300.091,189.431 302.091,192.098 304.5,194.5C 304.5,195.167 304.167,195.5 303.5,195.5C 301.873,193.37 300.04,191.37 298,189.5C 295.925,190.134 293.759,190.468 291.5,190.5C 268.16,188.676 244.826,187.01 221.5,185.5C 221.328,181.466 220.828,177.466 220,173.5C 219.333,172.833 218.667,172.167 218,171.5C 215.268,160.75 212.602,150.083 210,139.5C 208.365,136.368 206.532,133.368 204.5,130.5C 205.128,128.742 206.128,127.242 207.5,126C 219.104,124.211 230.604,124.711 242,127.5C 242.333,125.953 241.833,124.62 240.5,123.5C 240.624,122.893 240.957,122.56 241.5,122.5 Z"/></g>
<g><path style="opacity:1" fill="#f3f3f3" d="M 78.5,101.5 C 77.6016,102.158 76.6016,102.824 75.5,103.5C 75.7093,104.086 76.0426,104.586 76.5,105C 86.1138,108.975 95.7805,112.475 105.5,115.5C 98.2964,119.597 91.2964,123.93 84.5,128.5C 81.7972,130.181 79.1305,131.847 76.5,133.5C 75.609,134.11 74.609,134.443 73.5,134.5C 72.2617,134.19 72.2617,133.69 73.5,133C 50.8293,131.889 28.1626,131.222 5.5,131C 4.5701,146.717 4.40344,162.217 5,177.5C 3.98873,178.337 2.82207,178.67 1.5,178.5C 1.35096,166.983 0.684298,155.65 -0.5,144.5C -0.5,134.5 -0.5,124.5 -0.5,114.5C 14.329,111.792 28.9957,108.459 43.5,104.5C 45.3083,103.093 47.3083,101.926 49.5,101C 59.156,101.028 68.8227,101.195 78.5,101.5 Z"/></g>
<g><path style="opacity:1" fill="#cdcdcd" d="M 237.5,116.5 C 237.833,117.5 238.5,118.167 239.5,118.5C 239.5,118.833 239.5,119.167 239.5,119.5C 238.226,120.189 238.226,121.023 239.5,122C 227.833,122.333 216.167,122.667 204.5,123C 201.78,123.723 199.613,125.223 198,127.5C 198.4,131.34 199.734,135.007 202,138.5C 206.073,152.934 209.073,167.601 211,182.5C 211.739,185.573 213.572,187.74 216.5,189C 215.833,189.333 215.167,189.667 214.5,190C 216.058,190.21 217.391,190.71 218.5,191.5C 217.833,191.5 217.167,191.5 216.5,191.5C 209.51,191.001 202.51,190.668 195.5,190.5C 195.167,190.5 194.833,190.5 194.5,190.5C 194.635,178.815 194.302,167.148 193.5,155.5C 193.05,144.403 193.717,133.403 195.5,122.5C 197.167,121.167 198.833,119.833 200.5,118.5C 202.617,119.014 204.784,119.347 207,119.5C 217.413,119.26 227.579,118.26 237.5,116.5 Z"/></g>
<g><path style="opacity:1" fill="#f1f1f1" d="M 364.5,156.5 C 365.6,157.605 366.267,158.938 366.5,160.5C 362.5,157.167 358.833,153.5 355.5,149.5C 349.5,142.833 343.167,136.5 336.5,130.5C 335.167,128.5 333.5,126.833 331.5,125.5C 331.5,125.167 331.5,124.833 331.5,124.5C 332.589,122.883 334.256,122.05 336.5,122C 350.883,120.899 365.216,119.899 379.5,119C 374.659,121.921 369.659,124.588 364.5,127C 363.789,128.255 362.956,129.421 362,130.5C 361.333,138.5 361.333,146.5 362,154.5C 362.708,155.381 363.542,156.047 364.5,156.5 Z"/></g>
<g><path style="opacity:1" fill="#eaeaea" d="M 73.5,134.5 C 57.8126,145.5 41.8126,156.166 25.5,166.5C 28.9044,170.642 31.2377,175.309 32.5,180.5C 32.6495,181.552 32.4828,182.552 32,183.5C 27.0671,182.176 22.2337,182.176 17.5,183.5C 13.1962,182.869 8.86292,182.369 4.5,182C 3.2899,180.961 2.2899,179.794 1.5,178.5C 2.82207,178.67 3.98873,178.337 5,177.5C 4.40344,162.217 4.5701,146.717 5.5,131C 28.1626,131.222 50.8293,131.889 73.5,133C 72.2617,133.69 72.2617,134.19 73.5,134.5 Z"/></g>
<g><path style="opacity:1" fill="#fb5552" d="M 315.5,112.5 C 316.922,113.925 318.589,114.925 320.5,115.5C 304.582,116.843 288.582,118.677 272.5,121C 269.294,121.625 268.294,123.291 269.5,126C 271.373,127.085 273.04,128.418 274.5,130C 279.167,130.167 283.833,130.333 288.5,130.5C 298.802,130.375 308.969,129.375 319,127.5C 323.551,127.765 328.051,127.932 332.5,128C 331.748,127.329 331.414,126.496 331.5,125.5C 333.5,126.833 335.167,128.5 336.5,130.5C 336.631,131.239 336.464,131.906 336,132.5C 332.166,129.624 327.833,128.29 323,128.5C 314.951,128.888 307.118,130.388 299.5,133C 295.167,133.167 290.833,133.333 286.5,133.5C 280.051,133.677 273.718,133.01 267.5,131.5C 266.472,129.639 264.972,128.305 263,127.5C 261.026,123.417 262.359,120.75 267,119.5C 283.151,117.131 299.318,114.798 315.5,112.5 Z"/></g>
<g><path style="opacity:1" fill="#d7431a" d="M 192.5,119.5 C 192.833,119.5 193.167,119.5 193.5,119.5C 193.782,120.778 194.449,121.778 195.5,122.5C 193.717,133.403 193.05,144.403 193.5,155.5C 192.673,150.015 192.173,144.348 192,138.5C 191.586,138.957 191.086,139.291 190.5,139.5C 185.27,137.904 180.104,136.237 175,134.5C 174.184,135.823 173.017,136.489 171.5,136.5C 178.317,130.594 185.317,124.927 192.5,119.5 Z"/></g>
<g><path style="opacity:1" fill="#f53f3d" d="M 315.5,112.5 C 299.318,114.798 283.151,117.131 267,119.5C 262.359,120.75 261.026,123.417 263,127.5C 264.972,128.305 266.472,129.639 267.5,131.5C 273.718,133.01 280.051,133.677 286.5,133.5C 290.833,133.333 295.167,133.167 299.5,133C 307.118,130.388 314.951,128.888 323,128.5C 327.833,128.29 332.166,129.624 336,132.5C 336.464,131.906 336.631,131.239 336.5,130.5C 343.167,136.5 349.5,142.833 355.5,149.5C 354.662,149.842 354.328,150.508 354.5,151.5C 353.833,151.167 353.167,150.833 352.5,150.5C 350.739,147.263 348.406,144.43 345.5,142C 343.922,140.906 342.255,140.072 340.5,139.5C 338.454,136.634 335.787,134.467 332.5,133C 322.034,131.71 312.034,133.043 302.5,137C 293.158,138.966 283.825,138.966 274.5,137C 269.444,134.609 264.277,132.442 259,130.5C 257.267,128.277 255.767,125.944 254.5,123.5C 254.59,121.575 255.59,120.408 257.5,120C 263.211,118.656 268.878,117.156 274.5,115.5C 286.754,114.946 298.921,113.612 311,111.5C 312.707,111.508 314.207,111.842 315.5,112.5 Z"/></g>
<g><path style="opacity:1" fill="#cd0604" d="M 241.5,118.5 C 242.842,119.793 244.509,120.626 246.5,121C 252.696,129.085 260.363,135.252 269.5,139.5C 270.808,140.232 272.142,141.066 273.5,142C 270.23,143.66 266.897,143.994 263.5,143C 266.993,144.791 270.659,146.124 274.5,147C 287.174,149.333 299.841,151.667 312.5,154C 316.068,155.618 319.735,156.951 323.5,158C 331.808,159.165 340.141,160.165 348.5,161C 351.264,161.532 353.93,162.366 356.5,163.5C 356.833,163.167 357.167,162.833 357.5,162.5C 355.055,158.834 353.389,154.834 352.5,150.5C 353.167,150.833 353.833,151.167 354.5,151.5C 354.838,155.356 356.338,158.689 359,161.5C 359.346,163.218 359.846,164.885 360.5,166.5C 354.211,165.815 347.878,164.315 341.5,162C 326.369,160.62 311.536,157.787 297,153.5C 296.667,153.833 296.333,154.167 296,154.5C 290.933,153.187 285.766,152.187 280.5,151.5C 275.93,151.813 271.43,151.813 267,151.5C 264.894,148.882 262.394,146.882 259.5,145.5C 252.787,138.416 246.787,130.75 241.5,122.5C 240.833,121.5 240.167,120.5 239.5,119.5C 239.5,119.167 239.5,118.833 239.5,118.5C 239.938,117.494 240.604,117.494 241.5,118.5 Z"/></g>
<g><path style="opacity:1" fill="#ed2827" d="M 129.5,102.5 C 129.833,102.5 130.167,102.5 130.5,102.5C 129.942,103.79 128.942,104.623 127.5,105C 130.92,105.583 134.087,106.75 137,108.5C 143.301,108.652 149.634,108.319 156,107.5C 160.872,108.686 165.706,110.019 170.5,111.5C 174.563,110.984 178.563,110.151 182.5,109C 185.5,108.333 188.5,108.333 191.5,109C 193.381,110.872 193.381,113.039 191.5,115.5C 189.118,118.548 186.452,121.215 183.5,123.5C 180.68,124.236 178.68,125.902 177.5,128.5C 174.484,129.343 171.817,130.843 169.5,133C 162.477,134.226 155.477,135.559 148.5,137C 138.79,137.429 129.123,136.929 119.5,135.5C 116.075,133.894 113.741,131.727 112.5,129C 106.856,126.092 100.856,125.092 94.5,126C 91.8608,126.653 89.5274,127.82 87.5,129.5C 86.609,128.89 85.609,128.557 84.5,128.5C 91.2964,123.93 98.2964,119.597 105.5,115.5C 110.167,112.833 114.833,110.167 119.5,107.5C 122.833,105.833 126.167,104.167 129.5,102.5 Z"/></g>
<g><path style="opacity:1" fill="#f7413f" d="M 104.5,118.5 C 114.143,118.053 122.143,121.219 128.5,128C 130.715,129.044 133.048,129.71 135.5,130C 143.5,130.667 151.5,130.667 159.5,130C 163.09,129.258 165.923,127.425 168,124.5C 168.667,123.5 168.667,122.5 168,121.5C 165.094,118.963 161.927,116.796 158.5,115C 144.317,114.996 130.317,113.829 116.5,111.5C 117.6,110.442 118.934,109.608 120.5,109C 127.263,107.753 133.596,108.753 139.5,112C 149.768,111.676 159.768,113.01 169.5,116C 171.637,117.639 173.303,119.639 174.5,122C 173.899,123.605 172.899,124.938 171.5,126C 157.695,133.379 143.029,135.379 127.5,132C 124.174,129.516 121.174,126.683 118.5,123.5C 112.253,121.176 105.919,120.342 99.5,121C 100.91,119.628 102.577,118.795 104.5,118.5 Z"/></g>
<g><path style="opacity:1" fill="#fb514d" d="M 116.5,111.5 C 130.317,113.829 144.317,114.996 158.5,115C 161.927,116.796 165.094,118.963 168,121.5C 168.667,122.5 168.667,123.5 168,124.5C 165.923,127.425 163.09,129.258 159.5,130C 151.5,130.667 143.5,130.667 135.5,130C 133.048,129.71 130.715,129.044 128.5,128C 122.143,121.219 114.143,118.053 104.5,118.5C 108.164,115.665 112.164,113.332 116.5,111.5 Z"/></g>
<g><path style="opacity:1" fill="#fd6763" d="M 138.5,116.5 C 145.241,116.171 151.908,116.671 158.5,118C 159.872,119.242 160.872,120.742 161.5,122.5C 158.895,124.931 155.895,126.764 152.5,128C 146.452,128.663 140.452,128.33 134.5,127C 131.913,125.475 131.08,123.308 132,120.5C 133.792,118.372 135.958,117.039 138.5,116.5 Z"/></g>
<g><path style="opacity:1" fill="#e00504" d="M 119.5,135.5 C 121.954,136.621 124.621,137.454 127.5,138C 124.167,138.333 120.833,138.667 117.5,139C 125.006,141.234 132.673,142.568 140.5,143C 124.129,145.165 107.796,144.998 91.5,142.5C 83.1186,144.229 74.7853,145.729 66.5,147C 67.68,144.402 69.68,142.736 72.5,142C 74.5,139.667 76.5,137.333 78.5,135C 82.4916,134.676 85.4916,132.843 87.5,129.5C 89.5274,127.82 91.8608,126.653 94.5,126C 100.856,125.092 106.856,126.092 112.5,129C 113.741,131.727 116.075,133.894 119.5,135.5 Z"/></g>
<g><path style="opacity:1" fill="#ef2626" d="M 310.5,106.5 C 313.786,108.451 316.786,110.785 319.5,113.5C 319.833,114.167 320.167,114.833 320.5,115.5C 318.589,114.925 316.922,113.925 315.5,112.5C 314.207,111.842 312.707,111.508 311,111.5C 298.921,113.612 286.754,114.946 274.5,115.5C 268.878,117.156 263.211,118.656 257.5,120C 255.59,120.408 254.59,121.575 254.5,123.5C 255.767,125.944 257.267,128.277 259,130.5C 264.277,132.442 269.444,134.609 274.5,137C 283.825,138.966 293.158,138.966 302.5,137C 312.034,133.043 322.034,131.71 332.5,133C 335.787,134.467 338.454,136.634 340.5,139.5C 339.833,139.5 339.167,139.5 338.5,139.5C 338.047,138.542 337.381,137.708 336.5,137C 326.249,135.403 316.583,136.903 307.5,141.5C 294.74,141.986 282.073,141.32 269.5,139.5C 260.363,135.252 252.696,129.085 246.5,121C 244.509,120.626 242.842,119.793 241.5,118.5C 241.051,115.359 240.051,112.359 238.5,109.5C 244.915,104.009 251.249,104.175 257.5,110C 256.833,110.333 256.167,110.667 255.5,111C 258.849,112.401 262.349,113.234 266,113.5C 281.068,112.611 295.902,110.277 310.5,106.5 Z"/></g>
<g><path style="opacity:1" fill="#d50907" d="M 84.5,128.5 C 85.609,128.557 86.609,128.89 87.5,129.5C 85.4916,132.843 82.4916,134.676 78.5,135C 76.5,137.333 74.5,139.667 72.5,142C 69.68,142.736 67.68,144.402 66.5,147C 74.7853,145.729 83.1186,144.229 91.5,142.5C 107.796,144.998 124.129,145.165 140.5,143C 132.673,142.568 125.006,141.234 117.5,139C 120.833,138.667 124.167,138.333 127.5,138C 124.621,137.454 121.954,136.621 119.5,135.5C 129.123,136.929 138.79,137.429 148.5,137C 155.477,135.559 162.477,134.226 169.5,133C 171.817,130.843 174.484,129.343 177.5,128.5C 168.211,137.145 157.211,142.645 144.5,145C 125.648,147.214 106.815,147.381 88,145.5C 79.1027,147.066 70.2694,148.566 61.5,150C 64.2808,145.43 67.9474,141.763 72.5,139C 74.0764,137.27 75.4097,135.437 76.5,133.5C 79.1305,131.847 81.7972,130.181 84.5,128.5 Z"/></g>
<g><path style="opacity:1" fill="#f30604" d="M 338.5,139.5 C 340.119,141.958 341.952,144.291 344,146.5C 344.667,147.5 344.667,148.5 344,149.5C 337.256,153.762 330.09,154.595 322.5,152C 317.341,149.588 312.341,146.921 307.5,144C 308.167,143.667 308.833,143.333 309.5,143C 308.584,142.722 307.918,142.222 307.5,141.5C 316.583,136.903 326.249,135.403 336.5,137C 337.381,137.708 338.047,138.542 338.5,139.5 Z"/></g>
<g><path style="opacity:1" fill="#d9d9d9" d="M 383.5,106.5 C 386.167,106.5 388.833,106.5 391.5,106.5C 393.857,106.337 396.19,106.503 398.5,107C 399.942,107.377 400.942,108.21 401.5,109.5C 401.631,110.376 401.298,111.043 400.5,111.5C 395.298,113.234 390.632,115.9 386.5,119.5C 381.921,124.583 377.087,129.583 372,134.5C 369.183,141.798 366.683,149.132 364.5,156.5C 363.542,156.047 362.708,155.381 362,154.5C 361.333,146.5 361.333,138.5 362,130.5C 362.956,129.421 363.789,128.255 364.5,127C 369.659,124.588 374.659,121.921 379.5,119C 365.216,119.899 350.883,120.899 336.5,122C 334.256,122.05 332.589,122.883 331.5,124.5C 328.167,121.5 324.833,118.5 321.5,115.5C 321.56,114.957 321.893,114.624 322.5,114.5C 323.852,115.896 325.519,116.563 327.5,116.5C 342.848,114.807 358.181,112.974 373.5,111C 377.009,110.578 380.343,109.578 383.5,108C 370.183,107.169 370.183,106.669 383.5,106.5 Z"/></g>
<g><path style="opacity:1" fill="#d90403" d="M 269.5,139.5 C 282.073,141.32 294.74,141.986 307.5,141.5C 307.918,142.222 308.584,142.722 309.5,143C 308.833,143.333 308.167,143.667 307.5,144C 312.341,146.921 317.341,149.588 322.5,152C 330.09,154.595 337.256,153.762 344,149.5C 344.667,148.5 344.667,147.5 344,146.5C 341.952,144.291 340.119,141.958 338.5,139.5C 339.167,139.5 339.833,139.5 340.5,139.5C 342.255,140.072 343.922,140.906 345.5,142C 348.406,144.43 350.739,147.263 352.5,150.5C 353.389,154.834 355.055,158.834 357.5,162.5C 357.167,162.833 356.833,163.167 356.5,163.5C 353.93,162.366 351.264,161.532 348.5,161C 340.141,160.165 331.808,159.165 323.5,158C 319.735,156.951 316.068,155.618 312.5,154C 299.841,151.667 287.174,149.333 274.5,147C 270.659,146.124 266.993,144.791 263.5,143C 266.897,143.994 270.23,143.66 273.5,142C 272.142,141.066 270.808,140.232 269.5,139.5 Z"/></g>
<g><path style="opacity:1" fill="#ca2602" d="M 193.5,155.5 C 194.302,167.148 194.635,178.815 194.5,190.5C 194.666,196.176 194.499,201.843 194,207.5C 193.503,204.854 193.336,202.187 193.5,199.5C 181.123,197.228 170.29,191.895 161,183.5C 156.677,174.863 153.343,165.863 151,156.5C 149.41,153.609 147.244,152.942 144.5,154.5C 153.32,148.255 162.32,142.255 171.5,136.5C 173.017,136.489 174.184,135.823 175,134.5C 180.104,136.237 185.27,137.904 190.5,139.5C 191.086,139.291 191.586,138.957 192,138.5C 192.173,144.348 192.673,150.015 193.5,155.5 Z"/></g>
<g><path style="opacity:1" fill="#c10301" d="M 192.5,119.5 C 185.317,124.927 178.317,130.594 171.5,136.5C 162.32,142.255 153.32,148.255 144.5,154.5C 141.24,155.774 138.24,157.44 135.5,159.5C 133.184,160.806 130.85,162.139 128.5,163.5C 127.5,163.5 126.5,163.5 125.5,163.5C 126.263,160.859 126.43,158.192 126,155.5C 124.293,154.541 122.459,153.875 120.5,153.5C 115.278,154.092 110.112,154.758 105,155.5C 98.5214,155.219 92.0214,156.219 85.5,158.5C 82.7837,156.914 80.4503,157.247 78.5,159.5C 79.3128,160.814 80.3128,161.981 81.5,163C 79.3834,164.731 77.8834,166.898 77,169.5C 75.6698,174.824 74.0032,179.824 72,184.5C 86.5971,180.8 100.764,175.8 114.5,169.5C 114.833,169.667 115.167,169.833 115.5,170C 113.937,170.759 112.937,171.926 112.5,173.5C 106.372,177.736 100.038,181.736 93.5,185.5C 90.9528,186.934 88.6195,188.6 86.5,190.5C 72.7736,198.782 59.2736,207.449 46,216.5C 45.2828,215.956 44.7828,215.289 44.5,214.5C 41.1214,206.705 38.1214,198.705 35.5,190.5C 35.4431,189.391 35.1098,188.391 34.5,187.5C 34.2785,184.933 33.6118,182.599 32.5,180.5C 31.2377,175.309 28.9044,170.642 25.5,166.5C 41.8126,156.166 57.8126,145.5 73.5,134.5C 74.609,134.443 75.609,134.11 76.5,133.5C 75.4097,135.437 74.0764,137.27 72.5,139C 67.9474,141.763 64.2808,145.43 61.5,150C 70.2694,148.566 79.1027,147.066 88,145.5C 106.815,147.381 125.648,147.214 144.5,145C 157.211,142.645 168.211,137.145 177.5,128.5C 178.68,125.902 180.68,124.236 183.5,123.5C 186.393,121.886 189.393,120.553 192.5,119.5 Z"/></g>
<g><path style="opacity:1" fill="#b60100" d="M 128.5,163.5 C 123.455,167.195 118.122,170.528 112.5,173.5C 112.937,171.926 113.937,170.759 115.5,170C 115.167,169.833 114.833,169.667 114.5,169.5C 100.764,175.8 86.5971,180.8 72,184.5C 74.0032,179.824 75.6698,174.824 77,169.5C 77.8834,166.898 79.3834,164.731 81.5,163C 80.3128,161.981 79.3128,160.814 78.5,159.5C 80.4503,157.247 82.7837,156.914 85.5,158.5C 92.0214,156.219 98.5214,155.219 105,155.5C 110.112,154.758 115.278,154.092 120.5,153.5C 122.459,153.875 124.293,154.541 126,155.5C 126.43,158.192 126.263,160.859 125.5,163.5C 126.5,163.5 127.5,163.5 128.5,163.5 Z"/></g>
<g><path style="opacity:1" fill="#bc0100" d="M 259.5,145.5 C 262.394,146.882 264.894,148.882 267,151.5C 271.43,151.813 275.93,151.813 280.5,151.5C 285.766,152.187 290.933,153.187 296,154.5C 296.333,154.167 296.667,153.833 297,153.5C 311.536,157.787 326.369,160.62 341.5,162C 347.878,164.315 354.211,165.815 360.5,166.5C 359.846,164.885 359.346,163.218 359,161.5C 356.338,158.689 354.838,155.356 354.5,151.5C 354.328,150.508 354.662,149.842 355.5,149.5C 358.833,153.5 362.5,157.167 366.5,160.5C 371.728,168.069 377.728,175.069 384.5,181.5C 380.494,182.222 376.494,183.055 372.5,184C 368.739,186.029 364.905,187.862 361,189.5C 359.373,189.375 357.873,188.875 356.5,188C 352.486,184.129 347.986,180.962 343,178.5C 340.595,179.274 338.095,179.774 335.5,180C 335.545,182.636 335.712,185.47 336,188.5C 336.834,191.172 337.668,193.839 338.5,196.5C 338.113,199.206 337.113,201.539 335.5,203.5C 331.788,202.431 327.788,201.264 323.5,200C 315.996,194.08 307.996,188.914 299.5,184.5C 298.702,184.957 298.369,185.624 298.5,186.5C 284.432,173.768 271.432,160.101 259.5,145.5 Z"/></g>
<g><path style="opacity:0.953" fill="#acacac" d="M 466.5,145.5 C 464.695,146.237 463.029,147.237 461.5,148.5C 462.457,154.439 462.79,160.439 462.5,166.5C 460.967,167.431 459.3,168.098 457.5,168.5C 455.109,167.101 452.943,167.434 451,169.5C 449.291,167.825 447.624,166.158 446,164.5C 443.282,165.347 440.616,166.347 438,167.5C 437.333,161.833 437.333,156.167 438,150.5C 445.659,144.591 453.825,139.591 462.5,135.5C 463.848,137.611 463.515,139.445 461.5,141C 465.015,139.998 466.681,141.498 466.5,145.5 Z"/></g>
<g><path style="opacity:0.991" fill="#bfbfbf" d="M 462.5,173.5 C 463.106,200.835 463.773,228.169 464.5,255.5C 459.797,259.012 454.463,261.179 448.5,262C 446.317,264.35 443.984,266.517 441.5,268.5C 440.833,285.328 440.167,301.995 439.5,318.5C 438.182,280.18 437.516,241.847 437.5,203.5C 437.334,196.492 437.5,189.492 438,182.5C 438.202,184.256 438.702,185.922 439.5,187.5C 441.828,189.8 443.995,189.8 446,187.5C 446.251,185.567 446.751,183.734 447.5,182C 452.527,179.155 457.527,176.321 462.5,173.5 Z"/></g>
<g><path style="opacity:1" fill="#c50802" d="M 384.5,181.5 C 385.167,181.5 385.5,181.833 385.5,182.5C 377.577,188.086 370.243,194.419 363.5,201.5C 354.148,210.185 344.481,218.518 334.5,226.5C 326.471,218.473 318.805,210.139 311.5,201.5C 311.5,200.833 311.167,200.5 310.5,200.5C 308.833,198.167 306.833,196.167 304.5,194.5C 302.091,192.098 300.091,189.431 298.5,186.5C 298.369,185.624 298.702,184.957 299.5,184.5C 307.996,188.914 315.996,194.08 323.5,200C 327.788,201.264 331.788,202.431 335.5,203.5C 337.113,201.539 338.113,199.206 338.5,196.5C 337.668,193.839 336.834,191.172 336,188.5C 335.712,185.47 335.545,182.636 335.5,180C 338.095,179.774 340.595,179.274 343,178.5C 347.986,180.962 352.486,184.129 356.5,188C 357.873,188.875 359.373,189.375 361,189.5C 364.905,187.862 368.739,186.029 372.5,184C 376.494,183.055 380.494,182.222 384.5,181.5 Z"/></g>
<g><path style="opacity:1" fill="#e5e5e5" d="M 135.5,159.5 C 135.5,164.167 135.5,168.833 135.5,173.5C 135.5,178.167 135.5,182.833 135.5,187.5C 121.298,187.828 107.298,187.161 93.5,185.5C 100.038,181.736 106.372,177.736 112.5,173.5C 118.122,170.528 123.455,167.195 128.5,163.5C 130.85,162.139 133.184,160.806 135.5,159.5 Z"/></g>
<g><path style="opacity:1" fill="#adaead" d="M 403.5,164.5 C 404.491,170.979 404.824,177.646 404.5,184.5C 391.363,191.235 378.363,198.235 365.5,205.5C 364.818,204.757 364.151,204.091 363.5,203.5C 363.5,202.833 363.5,202.167 363.5,201.5C 370.243,194.419 377.577,188.086 385.5,182.5C 386.158,183.398 386.824,184.398 387.5,185.5C 392.745,182.961 397.912,180.294 403,177.5C 403.499,173.179 403.666,168.846 403.5,164.5 Z"/></g>
<g><path style="opacity:1" fill="#bfbfbf" d="M 404.5,184.5 C 407.861,246.132 410.527,307.799 412.5,369.5C 412.567,370.959 412.234,372.292 411.5,373.5C 410.833,373.5 410.5,373.833 410.5,374.5C 409.833,374.5 409.5,374.833 409.5,375.5C 409.167,375.5 408.833,375.5 408.5,375.5C 408.062,375.565 407.728,375.399 407.5,375C 408.333,374.167 409.167,373.333 410,372.5C 410.667,367.833 410.667,363.167 410,358.5C 396.891,368.641 384.058,379.141 371.5,390C 370.552,390.483 369.552,390.649 368.5,390.5C 367.68,396.797 367.347,403.131 367.5,409.5C 312.702,406.73 258.036,402.397 203.5,396.5C 205.81,395.836 208.31,395.503 211,395.5C 247.535,398.118 284.035,401.118 320.5,404.5C 335.538,405.12 350.538,405.62 365.5,406C 366.832,373.736 366.832,341.569 365.5,309.5C 365.74,275.47 364.907,241.47 363,207.5C 360.975,205.722 361.141,204.389 363.5,203.5C 364.151,204.091 364.818,204.757 365.5,205.5C 378.363,198.235 391.363,191.235 404.5,184.5 Z"/></g>
<g><path style="opacity:1" fill="#a4a2a2" d="M 32.5,180.5 C 33.6118,182.599 34.2785,184.933 34.5,187.5C 29.1667,187.5 23.8333,187.5 18.5,187.5C 17.7659,186.292 17.4326,184.959 17.5,183.5C 22.2337,182.176 27.0671,182.176 32,183.5C 32.4828,182.552 32.6495,181.552 32.5,180.5 Z"/></g>
<g><path style="opacity:1" fill="#bf1200" d="M 194.5,190.5 C 194.833,190.5 195.167,190.5 195.5,190.5C 195.171,203.011 195.505,215.345 196.5,227.5C 197.336,258.329 198.336,288.996 199.5,319.5C 199.175,327.352 199.508,335.018 200.5,342.5C 200.5,359.508 200.834,376.508 201.5,393.5C 193.769,392.485 186.102,390.985 178.5,389C 171.495,386.274 164.495,383.441 157.5,380.5C 155.468,377.632 153.635,374.632 152,371.5C 144.863,366.793 141.863,360.126 143,351.5C 142.722,350.584 142.222,349.918 141.5,349.5C 141.81,346.287 141.477,343.287 140.5,340.5C 140.695,309.301 139.695,278.301 137.5,247.5C 137.5,241.833 137.5,236.167 137.5,230.5C 137.444,217.824 137.111,205.158 136.5,192.5C 136.823,185.978 136.49,179.645 135.5,173.5C 135.5,168.833 135.5,164.167 135.5,159.5C 138.24,157.44 141.24,155.774 144.5,154.5C 147.244,152.942 149.41,153.609 151,156.5C 153.343,165.863 156.677,174.863 161,183.5C 170.29,191.895 181.123,197.228 193.5,199.5C 193.336,202.187 193.503,204.854 194,207.5C 194.499,201.843 194.666,196.176 194.5,190.5 Z"/></g>
<g><path style="opacity:1" fill="#aeadac" d="M 135.5,173.5 C 136.49,179.645 136.823,185.978 136.5,192.5C 119.749,192.443 103.083,191.777 86.5,190.5C 88.6195,188.6 90.9528,186.934 93.5,185.5C 107.298,187.161 121.298,187.828 135.5,187.5C 135.5,182.833 135.5,178.167 135.5,173.5 Z"/></g>
<g><path style="opacity:0.972" fill="#cecece" d="M 18.5,187.5 C 23.8333,187.5 29.1667,187.5 34.5,187.5C 35.1098,188.391 35.4431,189.391 35.5,190.5C 33.0677,207.678 31.0677,225.178 29.5,243C 30.487,265.675 30.487,288.508 29.5,311.5C 30.315,324.455 30.815,337.455 31,350.5C 31.8115,354.143 33.9781,356.477 37.5,357.5C 41.6634,363.594 47.3301,367.761 54.5,370C 70.7809,372.147 87.1142,373.813 103.5,375C 111.093,376.236 118.593,377.736 126,379.5C 127.353,378.296 129.019,377.629 131,377.5C 134.774,377.379 138.107,378.379 141,380.5C 141.499,375.511 141.666,370.511 141.5,365.5C 142.489,370.975 142.822,376.642 142.5,382.5C 142.5,385.167 142.5,387.833 142.5,390.5C 141.207,391.158 139.707,391.492 138,391.5C 123.208,389.809 108.375,388.642 93.5,388C 72.0952,384.19 50.4286,382.023 28.5,381.5C 24.8184,316.853 21.4851,252.187 18.5,187.5 Z"/></g>
<g><path style="opacity:1" fill="#d7d7d7" d="M 35.5,190.5 C 38.1214,198.705 41.1214,206.705 44.5,214.5C 40.9845,218.191 38.4845,222.525 37,227.5C 36.0165,261.449 36.6832,294.783 39,327.5C 42.2827,335.062 46.116,342.229 50.5,349C 48.5789,349.36 46.9122,350.194 45.5,351.5C 46.1667,351.833 46.8333,352.167 47.5,352.5C 49.7574,350.831 52.0907,350.165 54.5,350.5C 55.2811,351.729 55.7811,353.062 56,354.5C 57.1853,352.623 58.1853,350.623 59,348.5C 59.2492,349.624 59.7492,350.624 60.5,351.5C 61.1667,350.167 61.8333,348.833 62.5,347.5C 62.6759,349.672 62.8425,352.005 63,354.5C 63.5,355 64,355.5 64.5,356C 68.1052,355.416 71.7719,355.083 75.5,355C 73.7505,356.319 71.7505,356.819 69.5,356.5C 69.4392,359.05 68.1059,360.55 65.5,361C 67.5868,360.782 69.5868,360.949 71.5,361.5C 70.9747,362.192 70.3081,362.692 69.5,363C 69.9615,364.722 70.1282,366.555 70,368.5C 71.3848,367.449 72.3848,366.116 73,364.5C 74.6665,365.34 74.8331,364.84 73.5,363C 74.7487,361.176 75.9153,361.343 77,363.5C 77.1626,361.613 76.3293,360.113 74.5,359C 75.9961,358.493 77.1627,358.993 78,360.5C 77.6667,358.833 77.3333,357.167 77,355.5C 78.9387,357.194 80.7721,359.027 82.5,361C 83.1667,361.667 83.8333,361.667 84.5,361C 82.5394,358.037 80.206,355.371 77.5,353C 79.2212,351.563 80.7212,352.063 82,354.5C 82.5074,353.004 82.0074,351.837 80.5,351C 82.9029,342.503 85.2363,342.67 87.5,351.5C 87.2907,352.086 86.9574,352.586 86.5,353C 87.7425,353.311 88.7425,352.811 89.5,351.5C 89.8333,352 90.1667,352.5 90.5,353C 88.6307,355.368 86.964,357.868 85.5,360.5C 85.8333,360.833 86.1667,361.167 86.5,361.5C 88.1097,359.269 89.943,357.269 92,355.5C 91.6667,357.167 91.3333,358.833 91,360.5C 91.8373,358.993 93.0039,358.493 94.5,359C 92.6682,360.489 91.8348,362.322 92,364.5C 93,363.167 94,361.833 95,360.5C 97.1135,362.271 96.9468,363.771 94.5,365C 97.1719,364.417 99.1719,365.584 100.5,368.5C 101.754,366.741 101.421,365.241 99.5,364C 101.797,362.84 101.464,361.84 98.5,361C 106.496,361.3 106.496,360.3 98.5,358C 101.042,356.23 103.709,354.73 106.5,353.5C 105.039,351.189 104.706,348.856 105.5,346.5C 106.167,347.833 106.833,349.167 107.5,350.5C 108.251,349.624 108.751,348.624 109,347.5C 109.536,349.869 110.703,351.869 112.5,353.5C 112.833,352.167 113.167,350.833 113.5,349.5C 114.816,352.028 115.983,352.028 117,349.5C 119.434,351.023 122.101,352.023 125,352.5C 129.684,351.593 134.35,350.593 139,349.5C 139.333,350.833 139.667,352.167 140,353.5C 140.499,349.179 140.666,344.846 140.5,340.5C 141.477,343.287 141.81,346.287 141.5,349.5C 141.5,354.833 141.5,360.167 141.5,365.5C 141.666,370.511 141.499,375.511 141,380.5C 138.107,378.379 134.774,377.379 131,377.5C 129.019,377.629 127.353,378.296 126,379.5C 118.593,377.736 111.093,376.236 103.5,375C 87.1142,373.813 70.7809,372.147 54.5,370C 47.3301,367.761 41.6634,363.594 37.5,357.5C 33.9781,356.477 31.8115,354.143 31,350.5C 30.815,337.455 30.315,324.455 29.5,311.5C 30.487,288.508 30.487,265.675 29.5,243C 31.0677,225.178 33.0677,207.678 35.5,190.5 Z"/></g>
<g><path style="opacity:1" fill="#b6b6b6" d="M 216.5,191.5 C 217.167,191.5 217.833,191.5 218.5,191.5C 246.838,192.75 275.171,194.084 303.5,195.5C 304.167,195.5 304.5,195.167 304.5,194.5C 306.833,196.167 308.833,198.167 310.5,200.5C 277.998,198.572 245.331,197.739 212.5,198C 209.307,199.026 207.974,201.192 208.5,204.5C 205.188,204.822 205.188,206.155 208.5,208.5C 208.291,209.086 207.957,209.586 207.5,210C 211.265,211.377 210.932,212.377 206.5,213C 209.447,213.112 210.78,214.612 210.5,217.5C 208.654,217.222 207.32,217.889 206.5,219.5C 207.364,221.962 208.697,224.129 210.5,226C 208.613,226.163 207.113,225.329 206,223.5C 206.077,224.738 205.911,225.738 205.5,226.5C 204.702,226.043 204.369,225.376 204.5,224.5C 203.05,222.107 202.383,219.44 202.5,216.5C 202.694,210.639 202.86,204.639 203,198.5C 203.833,197.667 204.667,196.833 205.5,196C 209.468,194.962 213.135,193.462 216.5,191.5 Z"/></g>
<g><path style="opacity:1" fill="#949292" d="M 195.5,190.5 C 202.51,190.668 209.51,191.001 216.5,191.5C 213.135,193.462 209.468,194.962 205.5,196C 204.667,196.833 203.833,197.667 203,198.5C 202.86,204.639 202.694,210.639 202.5,216.5C 202.383,219.44 203.05,222.107 204.5,224.5C 203.206,223.71 202.039,222.71 201,221.5C 200.493,222.996 200.993,224.163 202.5,225C 201.216,225.684 200.049,225.517 199,224.5C 198.005,225.066 197.172,225.733 196.5,226.5C 196.5,226.833 196.5,227.167 196.5,227.5C 195.505,215.345 195.171,203.011 195.5,190.5 Z"/></g>
<g><path style="opacity:1" fill="#e2e2e2" d="M 311.5,201.5 C 318.805,210.139 326.471,218.473 334.5,226.5C 344.481,218.518 354.148,210.185 363.5,201.5C 363.5,202.167 363.5,202.833 363.5,203.5C 361.141,204.389 360.975,205.722 363,207.5C 364.907,241.47 365.74,275.47 365.5,309.5C 365.667,331.169 365.5,352.836 365,374.5C 364.434,383.719 359.601,387.219 350.5,385C 332.105,379.757 313.605,374.924 295,370.5C 293.72,370.613 292.887,371.28 292.5,372.5C 294.482,373.216 296.149,374.383 297.5,376C 293.796,374.689 290.129,373.856 286.5,373.5C 286.657,374.873 286.49,376.207 286,377.5C 285.333,375.5 284.667,373.5 284,371.5C 283.692,372.308 283.192,372.975 282.5,373.5C 281.813,371.726 280.98,370.059 280,368.5C 280.152,371.447 280.319,374.447 280.5,377.5C 277.644,377.928 274.644,378.095 271.5,378C 271.833,378.333 272.167,378.667 272.5,379C 271.5,379.333 270.5,379.667 269.5,380C 271.949,380.725 274.283,381.725 276.5,383C 274.413,382.782 272.413,382.949 270.5,383.5C 272.991,384.541 272.991,385.374 270.5,386C 271.554,387.388 271.72,388.888 271,390.5C 269.605,388.86 268.105,387.36 266.5,386C 268.781,384.518 268.781,382.851 266.5,381C 266.833,380.667 267.167,380.333 267.5,380C 261.279,382.347 260.946,381.347 266.5,377C 263.5,378.333 260.5,379.667 257.5,381C 260.042,378.289 262.709,375.789 265.5,373.5C 263.833,373.5 262.167,373.5 260.5,373.5C 262.815,370.644 262.648,367.644 260,364.5C 256.824,366.497 255.658,369.164 256.5,372.5C 254.997,372.835 253.664,372.835 252.5,372.5C 256.719,380.575 256.052,381.242 250.5,374.5C 250.167,374.833 249.833,375.167 249.5,375.5C 250.167,376.5 250.833,377.5 251.5,378.5C 250.5,378.5 249.5,378.5 248.5,378.5C 251.17,385.846 250.67,386.179 247,379.5C 245.354,381.055 245.021,382.721 246,384.5C 245.586,384.043 245.086,383.709 244.5,383.5C 243.481,384.687 242.314,385.687 241,386.5C 240.833,386 240.667,385.5 240.5,385C 241.703,383.632 242.703,382.132 243.5,380.5C 236.833,379.167 236.833,377.833 243.5,376.5C 243.291,375.914 242.957,375.414 242.5,375C 244.5,374.667 246.5,374.333 248.5,374C 245.167,373.667 241.833,373.333 238.5,373C 237.692,372.692 237.025,372.192 236.5,371.5C 237.089,368.724 238.422,366.39 240.5,364.5C 240.167,364.167 239.833,363.833 239.5,363.5C 238.108,364.605 236.941,365.939 236,367.5C 236.077,366.262 235.911,365.262 235.5,364.5C 234.243,366.679 232.743,368.679 231,370.5C 231.333,368.833 231.667,367.167 232,365.5C 230.482,365.057 229.315,365.724 228.5,367.5C 225.869,367.406 223.202,367.072 220.5,366.5C 222.838,365.384 225.004,364.05 227,362.5C 228.229,364.947 229.729,365.113 231.5,363C 228.895,362.974 227.729,361.807 228,359.5C 230.25,360.708 232.417,362.041 234.5,363.5C 234.5,362.5 234.5,361.5 234.5,360.5C 235.869,362.124 237.536,362.624 239.5,362C 235.275,360.441 232.441,357.608 231,353.5C 230.667,354.833 230.333,356.167 230,357.5C 224.979,355.9 219.812,354.9 214.5,354.5C 214.318,352.409 214.652,350.409 215.5,348.5C 214.263,347.719 213.263,346.719 212.5,345.5C 213.793,338.693 214.793,332.027 215.5,325.5C 214.833,324.5 214.167,323.5 213.5,322.5C 214.247,318.862 214.914,315.195 215.5,311.5C 215.471,309.971 214.804,308.804 213.5,308C 214.924,301.687 215.257,295.354 214.5,289C 215.284,278.675 215.951,268.341 216.5,258C 216.558,254.724 217.224,251.724 218.5,249C 217.182,245.754 216.182,242.42 215.5,239C 218.464,238.16 218.797,237.16 216.5,236C 219.785,235.241 222.785,233.908 225.5,232C 223.884,230.923 222.051,230.423 220,230.5C 217.648,230.305 215.648,230.972 214,232.5C 213.91,230.232 215.077,228.732 217.5,228C 217.167,227.667 216.833,227.333 216.5,227C 229.136,228.552 229.469,226.552 217.5,221C 218.5,220.667 219.5,220.333 220.5,220C 218.038,218.784 215.371,218.118 212.5,218C 218.876,216.714 218.542,215.714 211.5,215C 212.5,214.667 213.5,214.333 214.5,214C 211.085,211.928 211.085,210.761 214.5,210.5C 215.219,207.927 216.219,205.427 217.5,203C 216.542,201.853 216.875,200.853 218.5,200C 224.416,199.81 230.249,199.31 236,198.5C 236.374,199.416 236.874,200.25 237.5,201C 259.014,201.513 280.514,202.347 302,203.5C 305.401,203.669 308.568,203.002 311.5,201.5 Z"/></g>
<g><path style="opacity:1" fill="#e1e1e1" d="M 86.5,190.5 C 103.083,191.777 119.749,192.443 136.5,192.5C 137.111,205.158 137.444,217.824 137.5,230.5C 136.671,238.657 136.171,246.99 136,255.5C 133.079,256.485 130.579,258.485 128.5,261.5C 127.614,260.675 127.281,259.675 127.5,258.5C 126.07,258.421 124.736,258.754 123.5,259.5C 123.167,258.833 122.833,258.167 122.5,257.5C 124.121,255.376 125.954,253.376 128,251.5C 128.49,250.207 128.657,248.873 128.5,247.5C 125.722,247.022 123.722,248.022 122.5,250.5C 121.526,248.257 121.192,245.924 121.5,243.5C 119.856,243.286 118.356,243.62 117,244.5C 116.667,246.5 116.333,248.5 116,250.5C 114.118,246.682 111.951,246.516 109.5,250C 112.017,252.349 114.35,254.849 116.5,257.5C 114.955,258.452 113.288,258.785 111.5,258.5C 111.719,259.675 111.386,260.675 110.5,261.5C 107.927,258.347 106.594,254.68 106.5,250.5C 105.167,250.5 103.833,250.5 102.5,250.5C 102.66,252.199 102.494,253.866 102,255.5C 99.8586,252.509 97.0252,251.342 93.5,252C 92.5494,252.718 92.3828,253.551 93,254.5C 94.4095,255.787 95.9095,256.954 97.5,258C 95.3807,258.098 93.714,258.931 92.5,260.5C 92.7093,261.086 93.0426,261.586 93.5,262C 97.5548,262.232 101.555,262.732 105.5,263.5C 105.833,263.833 106.167,264.167 106.5,264.5C 102.828,265.231 102.161,266.731 104.5,269C 103.167,269.667 101.833,269.667 100.5,269C 97.7737,266.97 94.7737,265.47 91.5,264.5C 90.263,264.556 89.263,265.056 88.5,266C 89.5505,267.385 90.8839,268.385 92.5,269C 89.8333,269.333 87.1667,269.667 84.5,270C 83.1667,271.333 83.1667,272.667 84.5,274C 86.8333,274.333 89.1667,274.667 91.5,275C 88.7019,277.066 89.0352,278.566 92.5,279.5C 95.595,277.065 98.9283,275.065 102.5,273.5C 104.833,273.833 105.167,274.833 103.5,276.5C 104.729,277.281 106.062,277.781 107.5,278C 106.833,278.667 106.167,279.333 105.5,280C 101.168,280.583 96.8346,281.083 92.5,281.5C 92.5,282.5 92.5,283.5 92.5,284.5C 94.604,284.201 96.604,284.534 98.5,285.5C 96.6841,286.815 95.0175,288.315 93.5,290C 94.3992,291.236 95.5659,292.07 97,292.5C 98.9626,291.375 100.796,290.041 102.5,288.5C 103.004,291.522 104.671,292.689 107.5,292C 108.282,289.26 108.782,286.426 109,283.5C 111.178,280.532 112.344,280.865 112.5,284.5C 114.39,284.703 115.89,284.037 117,282.5C 117.167,283.167 117.333,283.833 117.5,284.5C 115.934,287.575 113.767,290.242 111,292.5C 110.699,295.091 111.866,295.925 114.5,295C 115.354,293.978 116.354,293.145 117.5,292.5C 118.308,294.423 118.808,296.423 119,298.5C 120.333,299.833 121.667,299.833 123,298.5C 123.192,296.423 123.692,294.423 124.5,292.5C 125.749,294.475 127.249,294.809 129,293.5C 129.667,292.833 129.667,292.167 129,291.5C 126.038,289.213 123.871,286.38 122.5,283C 124.163,282.735 125.663,283.235 127,284.5C 128.02,283.109 128.853,281.609 129.5,280C 127.023,278.357 124.69,276.524 122.5,274.5C 120.837,305.138 119.837,305.138 119.5,274.5C 118.448,274.351 117.448,274.517 116.5,275C 110.534,280.645 104.201,285.812 97.5,290.5C 96.1667,289.833 96.1667,289.167 97.5,288.5C 103.833,283.333 110.167,278.167 116.5,273C 106.5,272.667 96.5,272.333 86.5,272C 96.5194,271.613 106.519,270.946 116.5,270C 113.937,268.985 112.604,267.485 112.5,265.5C 114.422,266.711 116.255,268.044 118,269.5C 119,237.5 120,237.5 121,269.5C 124.026,266.974 127.193,264.64 130.5,262.5C 130.833,262.667 131.167,262.833 131.5,263C 128.537,264.961 125.871,267.294 123.5,270C 125.5,270.667 127.5,270.667 129.5,270C 129.814,265.526 132.481,263.026 137.5,262.5C 137.5,257.5 137.5,252.5 137.5,247.5C 139.695,278.301 140.695,309.301 140.5,340.5C 140.666,344.846 140.499,349.179 140,353.5C 139.667,352.167 139.333,350.833 139,349.5C 134.35,350.593 129.684,351.593 125,352.5C 122.101,352.023 119.434,351.023 117,349.5C 115.983,352.028 114.816,352.028 113.5,349.5C 113.167,350.833 112.833,352.167 112.5,353.5C 110.703,351.869 109.536,349.869 109,347.5C 108.751,348.624 108.251,349.624 107.5,350.5C 106.833,349.167 106.167,347.833 105.5,346.5C 104.706,348.856 105.039,351.189 106.5,353.5C 103.709,354.73 101.042,356.23 98.5,358C 106.496,360.3 106.496,361.3 98.5,361C 101.464,361.84 101.797,362.84 99.5,364C 101.421,365.241 101.754,366.741 100.5,368.5C 99.1719,365.584 97.1719,364.417 94.5,365C 96.9468,363.771 97.1135,362.271 95,360.5C 94,361.833 93,363.167 92,364.5C 91.8348,362.322 92.6682,360.489 94.5,359C 93.0039,358.493 91.8373,358.993 91,360.5C 91.3333,358.833 91.6667,357.167 92,355.5C 89.943,357.269 88.1097,359.269 86.5,361.5C 86.1667,361.167 85.8333,360.833 85.5,360.5C 86.964,357.868 88.6307,355.368 90.5,353C 90.1667,352.5 89.8333,352 89.5,351.5C 88.7425,352.811 87.7425,353.311 86.5,353C 86.9574,352.586 87.2907,352.086 87.5,351.5C 85.2363,342.67 82.9029,342.503 80.5,351C 82.0074,351.837 82.5074,353.004 82,354.5C 80.7212,352.063 79.2212,351.563 77.5,353C 80.206,355.371 82.5394,358.037 84.5,361C 83.8333,361.667 83.1667,361.667 82.5,361C 80.7721,359.027 78.9387,357.194 77,355.5C 77.3333,357.167 77.6667,358.833 78,360.5C 77.1627,358.993 75.9961,358.493 74.5,359C 76.3293,360.113 77.1626,361.613 77,363.5C 75.9153,361.343 74.7487,361.176 73.5,363C 74.8331,364.84 74.6665,365.34 73,364.5C 72.3848,366.116 71.3848,367.449 70,368.5C 70.1282,366.555 69.9615,364.722 69.5,363C 70.3081,362.692 70.9747,362.192 71.5,361.5C 69.5868,360.949 67.5868,360.782 65.5,361C 68.1059,360.55 69.4392,359.05 69.5,356.5C 71.7505,356.819 73.7505,356.319 75.5,355C 71.7719,355.083 68.1052,355.416 64.5,356C 64,355.5 63.5,355 63,354.5C 62.8425,352.005 62.6759,349.672 62.5,347.5C 61.8333,348.833 61.1667,350.167 60.5,351.5C 59.7492,350.624 59.2492,349.624 59,348.5C 58.1853,350.623 57.1853,352.623 56,354.5C 55.7811,353.062 55.2811,351.729 54.5,350.5C 52.0907,350.165 49.7574,350.831 47.5,352.5C 46.8333,352.167 46.1667,351.833 45.5,351.5C 46.9122,350.194 48.5789,349.36 50.5,349C 46.116,342.229 42.2827,335.062 39,327.5C 36.6832,294.783 36.0165,261.449 37,227.5C 38.4845,222.525 40.9845,218.191 44.5,214.5C 44.7828,215.289 45.2828,215.956 46,216.5C 59.2736,207.449 72.7736,198.782 86.5,190.5 Z"/></g>
<g><path style="opacity:1" fill="#d5d5d5" d="M 310.5,200.5 C 311.167,200.5 311.5,200.833 311.5,201.5C 308.568,203.002 305.401,203.669 302,203.5C 280.514,202.347 259.014,201.513 237.5,201C 236.874,200.25 236.374,199.416 236,198.5C 230.249,199.31 224.416,199.81 218.5,200C 216.875,200.853 216.542,201.853 217.5,203C 216.219,205.427 215.219,207.927 214.5,210.5C 211.085,210.761 211.085,211.928 214.5,214C 213.5,214.333 212.5,214.667 211.5,215C 218.542,215.714 218.876,216.714 212.5,218C 215.371,218.118 218.038,218.784 220.5,220C 219.5,220.333 218.5,220.667 217.5,221C 229.469,226.552 229.136,228.552 216.5,227C 216.833,227.333 217.167,227.667 217.5,228C 215.077,228.732 213.91,230.232 214,232.5C 215.648,230.972 217.648,230.305 220,230.5C 222.051,230.423 223.884,230.923 225.5,232C 222.785,233.908 219.785,235.241 216.5,236C 218.797,237.16 218.464,238.16 215.5,239C 216.182,242.42 217.182,245.754 218.5,249C 217.224,251.724 216.558,254.724 216.5,258C 215.951,268.341 215.284,278.675 214.5,289C 215.257,295.354 214.924,301.687 213.5,308C 214.804,308.804 215.471,309.971 215.5,311.5C 214.914,315.195 214.247,318.862 213.5,322.5C 214.167,323.5 214.833,324.5 215.5,325.5C 214.793,332.027 213.793,338.693 212.5,345.5C 213.263,346.719 214.263,347.719 215.5,348.5C 214.652,350.409 214.318,352.409 214.5,354.5C 219.812,354.9 224.979,355.9 230,357.5C 230.333,356.167 230.667,354.833 231,353.5C 232.441,357.608 235.275,360.441 239.5,362C 237.536,362.624 235.869,362.124 234.5,360.5C 234.5,361.5 234.5,362.5 234.5,363.5C 232.417,362.041 230.25,360.708 228,359.5C 227.729,361.807 228.895,362.974 231.5,363C 229.729,365.113 228.229,364.947 227,362.5C 225.004,364.05 222.838,365.384 220.5,366.5C 223.202,367.072 225.869,367.406 228.5,367.5C 229.315,365.724 230.482,365.057 232,365.5C 231.667,367.167 231.333,368.833 231,370.5C 232.743,368.679 234.243,366.679 235.5,364.5C 235.911,365.262 236.077,366.262 236,367.5C 236.941,365.939 238.108,364.605 239.5,363.5C 239.833,363.833 240.167,364.167 240.5,364.5C 238.422,366.39 237.089,368.724 236.5,371.5C 237.025,372.192 237.692,372.692 238.5,373C 241.833,373.333 245.167,373.667 248.5,374C 246.5,374.333 244.5,374.667 242.5,375C 242.957,375.414 243.291,375.914 243.5,376.5C 236.833,377.833 236.833,379.167 243.5,380.5C 242.703,382.132 241.703,383.632 240.5,385C 240.667,385.5 240.833,386 241,386.5C 242.314,385.687 243.481,384.687 244.5,383.5C 245.086,383.709 245.586,384.043 246,384.5C 245.021,382.721 245.354,381.055 247,379.5C 250.67,386.179 251.17,385.846 248.5,378.5C 249.5,378.5 250.5,378.5 251.5,378.5C 250.833,377.5 250.167,376.5 249.5,375.5C 249.833,375.167 250.167,374.833 250.5,374.5C 256.052,381.242 256.719,380.575 252.5,372.5C 253.664,372.835 254.997,372.835 256.5,372.5C 255.658,369.164 256.824,366.497 260,364.5C 262.648,367.644 262.815,370.644 260.5,373.5C 262.167,373.5 263.833,373.5 265.5,373.5C 262.709,375.789 260.042,378.289 257.5,381C 260.5,379.667 263.5,378.333 266.5,377C 260.946,381.347 261.279,382.347 267.5,380C 267.167,380.333 266.833,380.667 266.5,381C 268.781,382.851 268.781,384.518 266.5,386C 268.105,387.36 269.605,388.86 271,390.5C 271.72,388.888 271.554,387.388 270.5,386C 272.991,385.374 272.991,384.541 270.5,383.5C 272.413,382.949 274.413,382.782 276.5,383C 274.283,381.725 271.949,380.725 269.5,380C 270.5,379.667 271.5,379.333 272.5,379C 272.167,378.667 271.833,378.333 271.5,378C 274.644,378.095 277.644,377.928 280.5,377.5C 280.319,374.447 280.152,371.447 280,368.5C 280.98,370.059 281.813,371.726 282.5,373.5C 283.192,372.975 283.692,372.308 284,371.5C 284.667,373.5 285.333,375.5 286,377.5C 286.49,376.207 286.657,374.873 286.5,373.5C 290.129,373.856 293.796,374.689 297.5,376C 296.149,374.383 294.482,373.216 292.5,372.5C 292.887,371.28 293.72,370.613 295,370.5C 313.605,374.924 332.105,379.757 350.5,385C 359.601,387.219 364.434,383.719 365,374.5C 365.5,352.836 365.667,331.169 365.5,309.5C 366.832,341.569 366.832,373.736 365.5,406C 350.538,405.62 335.538,405.12 320.5,404.5C 284.035,401.118 247.535,398.118 211,395.5C 208.31,395.503 205.81,395.836 203.5,396.5C 203.5,397.167 203.167,397.5 202.5,397.5C 202.167,397.5 201.833,397.5 201.5,397.5C 201.5,396.167 201.5,394.833 201.5,393.5C 200.834,376.508 200.5,359.508 200.5,342.5C 200.334,336.491 200.501,330.491 201,324.5C 201.333,331.833 201.667,339.167 202,346.5C 204.374,339.327 206.041,331.66 207,323.5C 209.734,301.034 211.568,278.701 212.5,256.5C 211.167,254.5 211.167,252.5 212.5,250.5C 210.981,248.444 210.147,246.11 210,243.5C 208.415,244.376 207.415,245.709 207,247.5C 205.421,246.2 204.255,246.534 203.5,248.5C 202.448,248.649 201.448,248.483 200.5,248C 202.092,245.782 204.092,244.115 206.5,243C 201.19,241.202 201.524,240.202 207.5,240C 206.373,238.247 205.373,236.413 204.5,234.5C 205.982,232.517 207.649,230.684 209.5,229C 207.953,228.667 206.62,229.167 205.5,230.5C 205.5,229.5 205.5,228.5 205.5,227.5C 203.606,229.781 201.272,230.948 198.5,231C 203.901,227.983 203.734,227.149 198,228.5C 197.722,227.584 197.222,226.918 196.5,226.5C 197.172,225.733 198.005,225.066 199,224.5C 200.049,225.517 201.216,225.684 202.5,225C 200.993,224.163 200.493,222.996 201,221.5C 202.039,222.71 203.206,223.71 204.5,224.5C 204.369,225.376 204.702,226.043 205.5,226.5C 205.911,225.738 206.077,224.738 206,223.5C 207.113,225.329 208.613,226.163 210.5,226C 208.697,224.129 207.364,221.962 206.5,219.5C 207.32,217.889 208.654,217.222 210.5,217.5C 210.78,214.612 209.447,213.112 206.5,213C 210.932,212.377 211.265,211.377 207.5,210C 207.957,209.586 208.291,209.086 208.5,208.5C 205.188,206.155 205.188,204.822 208.5,204.5C 207.974,201.192 209.307,199.026 212.5,198C 245.331,197.739 277.998,198.572 310.5,200.5 Z"/></g>
<g><path style="opacity:1" fill="#a4a3a2" d="M 196.5,226.5 C 197.222,226.918 197.722,227.584 198,228.5C 203.734,227.149 203.901,227.983 198.5,231C 201.272,230.948 203.606,229.781 205.5,227.5C 205.5,228.5 205.5,229.5 205.5,230.5C 206.62,229.167 207.953,228.667 209.5,229C 207.649,230.684 205.982,232.517 204.5,234.5C 205.373,236.413 206.373,238.247 207.5,240C 201.524,240.202 201.19,241.202 206.5,243C 204.092,244.115 202.092,245.782 200.5,248C 201.448,248.483 202.448,248.649 203.5,248.5C 203.938,248.435 204.272,248.601 204.5,249C 203.604,262.508 202.271,276.175 200.5,290C 201.276,291.77 201.11,293.603 200,295.5C 199.5,303.493 199.334,311.493 199.5,319.5C 198.336,288.996 197.336,258.329 196.5,227.5C 196.5,227.167 196.5,226.833 196.5,226.5 Z"/></g>
<g><path style="opacity:1" fill="#c4c4c4" d="M 200.5,342.5 C 199.508,335.018 199.175,327.352 199.5,319.5C 199.334,311.493 199.5,303.493 200,295.5C 201.11,293.603 201.276,291.77 200.5,290C 202.271,276.175 203.604,262.508 204.5,249C 204.272,248.601 203.938,248.435 203.5,248.5C 204.255,246.534 205.421,246.2 207,247.5C 207.415,245.709 208.415,244.376 210,243.5C 210.147,246.11 210.981,248.444 212.5,250.5C 211.167,252.5 211.167,254.5 212.5,256.5C 211.568,278.701 209.734,301.034 207,323.5C 206.041,331.66 204.374,339.327 202,346.5C 201.667,339.167 201.333,331.833 201,324.5C 200.501,330.491 200.334,336.491 200.5,342.5 Z"/></g>
<g><path style="opacity:0.989" fill="#b4b3b2" d="M 464.5,255.5 C 464.5,261.167 464.5,266.833 464.5,272.5C 462.198,274.656 459.531,276.323 456.5,277.5C 454.17,281.324 451.337,284.658 448,287.5C 446.841,292.469 445.841,297.469 445,302.5C 443.829,317.192 442.662,331.859 441.5,346.5C 441.5,347.167 441.167,347.5 440.5,347.5C 439.506,338.014 439.173,328.348 439.5,318.5C 440.167,301.995 440.833,285.328 441.5,268.5C 443.984,266.517 446.317,264.35 448.5,262C 454.463,261.179 459.797,259.012 464.5,255.5 Z"/></g>
<g><path style="opacity:1" fill="#e9eaea" d="M 137.5,230.5 C 137.5,236.167 137.5,241.833 137.5,247.5C 137.5,252.5 137.5,257.5 137.5,262.5C 132.481,263.026 129.814,265.526 129.5,270C 127.5,270.667 125.5,270.667 123.5,270C 125.871,267.294 128.537,264.961 131.5,263C 131.167,262.833 130.833,262.667 130.5,262.5C 127.193,264.64 124.026,266.974 121,269.5C 120,237.5 119,237.5 118,269.5C 116.255,268.044 114.422,266.711 112.5,265.5C 112.604,267.485 113.937,268.985 116.5,270C 106.519,270.946 96.5194,271.613 86.5,272C 96.5,272.333 106.5,272.667 116.5,273C 110.167,278.167 103.833,283.333 97.5,288.5C 96.1667,289.167 96.1667,289.833 97.5,290.5C 104.201,285.812 110.534,280.645 116.5,275C 117.448,274.517 118.448,274.351 119.5,274.5C 119.837,305.138 120.837,305.138 122.5,274.5C 124.69,276.524 127.023,278.357 129.5,280C 128.853,281.609 128.02,283.109 127,284.5C 125.663,283.235 124.163,282.735 122.5,283C 123.871,286.38 126.038,289.213 129,291.5C 129.667,292.167 129.667,292.833 129,293.5C 127.249,294.809 125.749,294.475 124.5,292.5C 123.692,294.423 123.192,296.423 123,298.5C 121.667,299.833 120.333,299.833 119,298.5C 118.808,296.423 118.308,294.423 117.5,292.5C 116.354,293.145 115.354,293.978 114.5,295C 111.866,295.925 110.699,295.091 111,292.5C 113.767,290.242 115.934,287.575 117.5,284.5C 117.333,283.833 117.167,283.167 117,282.5C 115.89,284.037 114.39,284.703 112.5,284.5C 112.344,280.865 111.178,280.532 109,283.5C 108.782,286.426 108.282,289.26 107.5,292C 104.671,292.689 103.004,291.522 102.5,288.5C 100.796,290.041 98.9626,291.375 97,292.5C 95.5659,292.07 94.3992,291.236 93.5,290C 95.0175,288.315 96.6841,286.815 98.5,285.5C 96.604,284.534 94.604,284.201 92.5,284.5C 92.5,283.5 92.5,282.5 92.5,281.5C 96.8346,281.083 101.168,280.583 105.5,280C 106.167,279.333 106.833,278.667 107.5,278C 106.062,277.781 104.729,277.281 103.5,276.5C 105.167,274.833 104.833,273.833 102.5,273.5C 98.9283,275.065 95.595,277.065 92.5,279.5C 89.0352,278.566 88.7019,277.066 91.5,275C 89.1667,274.667 86.8333,274.333 84.5,274C 83.1667,272.667 83.1667,271.333 84.5,270C 87.1667,269.667 89.8333,269.333 92.5,269C 90.8839,268.385 89.5505,267.385 88.5,266C 89.263,265.056 90.263,264.556 91.5,264.5C 94.7737,265.47 97.7737,266.97 100.5,269C 101.833,269.667 103.167,269.667 104.5,269C 102.161,266.731 102.828,265.231 106.5,264.5C 106.167,264.167 105.833,263.833 105.5,263.5C 101.555,262.732 97.5548,262.232 93.5,262C 93.0426,261.586 92.7093,261.086 92.5,260.5C 93.714,258.931 95.3807,258.098 97.5,258C 95.9095,256.954 94.4095,255.787 93,254.5C 92.3828,253.551 92.5494,252.718 93.5,252C 97.0252,251.342 99.8586,252.509 102,255.5C 102.494,253.866 102.66,252.199 102.5,250.5C 103.833,250.5 105.167,250.5 106.5,250.5C 106.594,254.68 107.927,258.347 110.5,261.5C 111.386,260.675 111.719,259.675 111.5,258.5C 113.288,258.785 114.955,258.452 116.5,257.5C 114.35,254.849 112.017,252.349 109.5,250C 111.951,246.516 114.118,246.682 116,250.5C 116.333,248.5 116.667,246.5 117,244.5C 118.356,243.62 119.856,243.286 121.5,243.5C 121.192,245.924 121.526,248.257 122.5,250.5C 123.722,248.022 125.722,247.022 128.5,247.5C 128.657,248.873 128.49,250.207 128,251.5C 125.954,253.376 124.121,255.376 122.5,257.5C 122.833,258.167 123.167,258.833 123.5,259.5C 124.736,258.754 126.07,258.421 127.5,258.5C 127.281,259.675 127.614,260.675 128.5,261.5C 130.579,258.485 133.079,256.485 136,255.5C 136.171,246.99 136.671,238.657 137.5,230.5 Z"/></g>
<g><path style="opacity:1" fill="#eaeaea" d="M 277.5,262.5 C 278.822,262.33 279.989,262.663 281,263.5C 281.202,265.256 281.702,266.922 282.5,268.5C 284.737,266.183 287.07,266.017 289.5,268C 287.333,270.167 285.167,272.333 283,274.5C 281.954,278.547 282.787,279.214 285.5,276.5C 286.719,277.263 287.719,278.263 288.5,279.5C 289.086,279.291 289.586,278.957 290,278.5C 291.289,275.649 291.789,272.649 291.5,269.5C 292.873,269.343 294.207,269.51 295.5,270C 296.147,273.365 297.813,273.365 300.5,270C 301.833,269.333 303.167,269.333 304.5,270C 305.451,270.718 305.617,271.551 305,272.5C 298.688,275.895 299.188,277.229 306.5,276.5C 306.64,278.124 305.973,279.29 304.5,280C 301.167,280.333 297.833,280.667 294.5,281C 293.833,281.667 293.167,282.333 292.5,283C 296.483,283.23 297.149,284.563 294.5,287C 295.333,287.167 296.167,287.333 297,287.5C 300.064,285.717 303.231,284.05 306.5,282.5C 310.145,283.489 310.145,284.989 306.5,287C 309.426,287.218 312.26,287.718 315,288.5C 315.617,289.449 315.451,290.282 314.5,291C 312.167,291.333 309.833,291.667 307.5,292C 311.546,295.246 310.879,296.58 305.5,296C 302.467,293.286 299.134,292.119 295.5,292.5C 295.833,293.167 296.167,293.833 296.5,294.5C 291.938,295.14 291.604,296.306 295.5,298C 298.833,298.333 302.167,298.667 305.5,299C 306.833,300 306.833,301 305.5,302C 304.049,301.737 302.716,301.904 301.5,302.5C 304.099,303.899 305.599,305.899 306,308.5C 303.188,309.537 300.688,308.87 298.5,306.5C 297.996,309.522 296.329,310.689 293.5,310C 292.44,307.263 291.606,304.43 291,301.5C 289.456,298.736 288.289,298.903 287.5,302C 286.216,302.684 285.049,302.517 284,301.5C 283.833,302 283.667,302.5 283.5,303C 285.296,305.633 287.296,308.133 289.5,310.5C 287.764,313.105 285.931,313.105 284,310.5C 283.505,312.473 283.338,314.473 283.5,316.5C 278.633,317.467 276.466,315.467 277,310.5C 275.556,312.155 273.722,312.822 271.5,312.5C 271.351,311.448 271.517,310.448 272,309.5C 275.069,307.487 276.735,304.82 277,301.5C 275.644,302.38 274.144,302.714 272.5,302.5C 272.344,298.865 271.178,298.532 269,301.5C 268.782,304.426 268.282,307.26 267.5,310C 264.617,310.795 263.117,309.629 263,306.5C 260.738,309.207 258.071,310.207 255,309.5C 255.466,306.9 256.966,304.734 259.5,303C 257.557,303.305 255.557,303.305 253.5,303C 252.549,302.282 252.383,301.449 253,300.5C 257.855,299.495 262.688,298.328 267.5,297C 264.354,296.89 263.354,295.557 264.5,293C 263.833,292.833 263.167,292.667 262.5,292.5C 259.222,293.943 256.055,295.609 253,297.5C 249.88,296.407 249.713,294.907 252.5,293C 241.864,291.423 241.864,289.59 252.5,287.5C 248.957,285.842 248.791,284.175 252,282.5C 254.567,283.868 257.067,285.368 259.5,287C 261.167,287.667 262.833,287.667 264.5,287C 263.209,284.91 263.876,283.576 266.5,283C 266.167,282.667 265.833,282.333 265.5,282C 261.833,281.667 258.167,281.333 254.5,281C 253.663,279.989 253.33,278.822 253.5,277.5C 255.199,277.66 256.866,277.494 258.5,277C 256.91,275.954 255.41,274.787 254,273.5C 253.383,272.551 253.549,271.718 254.5,271C 257.407,270.146 259.74,270.979 261.5,273.5C 262.429,272.311 262.762,270.978 262.5,269.5C 264.144,269.286 265.644,269.62 267,270.5C 267.17,274.353 268.504,277.686 271,280.5C 271.483,279.552 271.649,278.552 271.5,277.5C 273.144,277.286 274.644,277.62 276,278.5C 276.167,277.833 276.333,277.167 276.5,276.5C 274.378,273.876 272.045,271.376 269.5,269C 271.809,266.949 273.976,267.116 276,269.5C 276.29,267.08 276.79,264.746 277.5,262.5 Z"/></g>
<g><path style="opacity:0.945" fill="#a2a2a2" d="M 464.5,272.5 C 465.476,290.49 465.643,308.49 465,326.5C 457,333.002 449.167,339.669 441.5,346.5C 442.662,331.859 443.829,317.192 445,302.5C 445.841,297.469 446.841,292.469 448,287.5C 451.337,284.658 454.17,281.324 456.5,277.5C 459.531,276.323 462.198,274.656 464.5,272.5 Z"/></g>
<g><path style="opacity:1" fill="#ae0e00" d="M 141.5,349.5 C 142.222,349.918 142.722,350.584 143,351.5C 141.863,360.126 144.863,366.793 152,371.5C 153.635,374.632 155.468,377.632 157.5,380.5C 164.495,383.441 171.495,386.274 178.5,389C 186.102,390.985 193.769,392.485 201.5,393.5C 201.5,394.833 201.5,396.167 201.5,397.5C 199.055,397.373 196.388,397.707 193.5,398.5C 178.074,396.54 162.741,394.04 147.5,391C 146.376,390.751 145.376,390.251 144.5,389.5C 143.933,387.018 143.266,384.684 142.5,382.5C 142.822,376.642 142.489,370.975 141.5,365.5C 141.5,360.167 141.5,354.833 141.5,349.5 Z"/></g>
<g><path style="opacity:0.946" fill="#9f1805" d="M 439.5,353.5 C 431.566,364.103 421.566,372.103 409.5,377.5C 408.893,377.376 408.56,377.043 408.5,376.5C 409.167,376.5 409.5,376.167 409.5,375.5C 410.167,375.5 410.5,375.167 410.5,374.5C 411.167,374.5 411.5,374.167 411.5,373.5C 412.234,372.292 412.567,370.959 412.5,369.5C 419.568,365.272 426.235,360.439 432.5,355C 434.866,354.56 437.199,354.06 439.5,353.5 Z"/></g>
<g><path style="opacity:0.847" fill="#a6a6a6" d="M 408.5,375.5 C 408.5,375.833 408.5,376.167 408.5,376.5C 394.549,387.45 381.216,399.117 368.5,411.5C 361.167,411.5 353.833,411.5 346.5,411.5C 302.641,407.452 258.641,403.452 214.5,399.5C 213.833,399.5 213.167,399.5 212.5,399.5C 211.5,399.5 210.5,399.5 209.5,399.5C 209.167,399.5 208.833,399.5 208.5,399.5C 207.432,398.566 206.099,398.232 204.5,398.5C 203.508,398.672 202.842,398.338 202.5,397.5C 203.167,397.5 203.5,397.167 203.5,396.5C 258.036,402.397 312.702,406.73 367.5,409.5C 367.347,403.131 367.68,396.797 368.5,390.5C 369.552,390.649 370.552,390.483 371.5,390C 384.058,379.141 396.891,368.641 410,358.5C 410.667,363.167 410.667,367.833 410,372.5C 409.167,373.333 408.333,374.167 407.5,375C 407.728,375.399 408.062,375.565 408.5,375.5 Z"/></g>
<g><path style="opacity:0.52" fill="#a8a8a8" d="M 28.5,381.5 C 50.4286,382.023 72.0952,384.19 93.5,388C 108.375,388.642 123.208,389.809 138,391.5C 139.707,391.492 141.207,391.158 142.5,390.5C 143.401,391.29 144.068,392.29 144.5,393.5C 107.173,390.334 69.8393,387.167 32.5,384C 30.563,383.878 29.2297,383.045 28.5,381.5 Z"/></g>
<g><path style="opacity:1" fill="#920e01" d="M 142.5,382.5 C 143.266,384.684 143.933,387.018 144.5,389.5C 145.376,390.251 146.376,390.751 147.5,391C 162.741,394.04 178.074,396.54 193.5,398.5C 196.388,397.707 199.055,397.373 201.5,397.5C 201.833,397.5 202.167,397.5 202.5,397.5C 202.842,398.338 203.508,398.672 204.5,398.5C 205.209,399.404 206.209,399.737 207.5,399.5C 204.232,400.822 200.565,401.489 196.5,401.5C 178.799,400.932 161.466,398.266 144.5,393.5C 144.068,392.29 143.401,391.29 142.5,390.5C 142.5,387.833 142.5,385.167 142.5,382.5 Z"/></g>
<g><path style="opacity:0.349" fill="#7d0c00" d="M 144.5,393.5 C 161.466,398.266 178.799,400.932 196.5,401.5C 200.565,401.489 204.232,400.822 207.5,399.5C 207.833,399.5 208.167,399.5 208.5,399.5C 208.833,399.5 209.167,399.5 209.5,399.5C 210.5,400.833 211.5,400.833 212.5,399.5C 213.167,399.5 213.833,399.5 214.5,399.5C 214.611,400.117 214.944,400.617 215.5,401C 207.998,403.365 200.331,404.032 192.5,403C 177.72,401.789 163.053,399.789 148.5,397C 146.676,396.34 145.343,395.173 144.5,393.5 Z"/></g>
</svg>
